<?xml version="1.0" encoding="UTF-8"?>
<!DOCTYPE svg PUBLIC "-//W3C//DTD SVG 1.1//EN" "http://www.w3.org/Graphics/SVG/1.1/DTD/svg11.dtd">
<!-- Creator: CorelDRAW 2026 -->
<svg xmlns="http://www.w3.org/2000/svg" xml:space="preserve" width="184.457mm" height="139.822mm" version="1.1" style="shape-rendering:geometricPrecision; text-rendering:geometricPrecision; image-rendering:optimizeQuality; fill-rule:evenodd; clip-rule:evenodd"
viewBox="0 0 19272.17 14608.76"
 xmlns:xlink="http://www.w3.org/1999/xlink"
 xmlns:xodm="http://www.corel.com/coreldraw/odm/2003">
 <defs>
  <style type="text/css">
   <![CDATA[
    .fil0 {fill:#FEFEFE}
   ]]>
  </style>
 </defs>
 <g id="Слой_x0020_1">
  <metadata id="CorelCorpID_0Corel-Layer"/>
  <path class="fil0" d="M17361.62 9590.31l0 -3464.7c485.71,40.41 921.47,361.37 921.47,847.75l0 1658.63c0,537.16 -447.99,958.32 -921.47,958.32zm-16402.03 -995.18l0 -1474.34c0,-314.85 82.17,-547.32 246.6,-711.73 188.26,-188.24 387.71,-216.55 674.87,-283.45l0 3501.56c-164.2,-78.79 -351.62,-60.36 -636.68,-321.64 -160.16,-146.8 -284.78,-415.18 -284.78,-710.4zm14743.39 -3567.26l460.08 232.22c181.66,89.28 332.55,153.52 351.5,385.66 37.04,453.6 -0.7,3686.69 -0.7,4313.14l0 774.02 0 294.87c-209.86,140.54 -1339.88,716.95 -1584.91,774.02 0,445.27 -4.3,404.59 -336.26,511.49 -904.16,291.15 -3903.9,1233.7 -4802.89,1392.77 -226.13,40.02 -2452.61,-687.5 -2707.16,-766.19 -519.86,-160.7 -2266.65,-692.1 -2658.37,-880.05l0 -1290.04 -847.74 -405.45c-188.78,-94.39 -665.09,-362.89 -847.75,-405.44l3.01 -4309.43c31.8,-240.47 151.23,-274.32 326.69,-373.62 150,-84.89 335.09,-162.38 489.29,-255.99l-3.64 -1552.41c-404.3,-119.54 -763.41,-667.51 -583.51,-1240.82 344.64,-1098.34 2037.62,-891.67 2023.93,324.34 -8.86,787.65 -715.86,923.08 -864.91,1031.4l-12.58 1253.19c201.02,0 243.44,-36.85 464.65,-36.85l0 -405.45c139.89,-32.59 636.31,-290.17 777.14,-366.48 208.68,-113.08 119.01,-151.64 117.35,-304.81 -1.39,-127.07 26.97,-347.13 26.97,-545.03 274.72,-64 1394.19,-713.23 1536.21,-750.04 99.77,-25.86 303.91,122.2 503.28,221.73 137.68,68.73 1982.31,998.59 2088.48,1000.88 143.73,3.09 879.31,-396.13 1056.79,-484.86 186.67,-93.34 329.67,-164.1 516.46,-257.58 1163.73,-582.41 668.53,-677.2 2063.6,24.17 183.78,92.39 359.02,156.09 528.34,245.7l0 774.02c141.98,95.08 262.39,149.23 429.98,233.46 157.58,79.2 313.15,133.99 454.62,208.84l0 405.45c193.47,0 389.26,13.42 517.16,73.71l-6.79 -1321.19c-1247.01,-275.85 -1071.73,-1898.38 41.42,-2040.98 1199.25,-153.64 1682.38,1515.62 511.76,1986.4 1.09,253.77 40.24,1381.71 -31.5,1531.23zm1580.06 109.51l7.36 -633.54c-19.89,-1060.24 192.53,-2331.06 -313.25,-2936.05 -134.61,-161.02 -247.43,-269.61 -411.92,-394.35 -145.31,-110.19 -331.57,-214.44 -496.62,-314.33 -1437.93,-870.32 -1400.25,-876.12 -3203.74,-853.59l-6523.95 0.37c-1441.1,-11.11 -1551.66,-53.56 -2680.84,565.77 -1813.17,994.5 -1714.22,1249.96 -1685.73,3158.14 5.59,374.07 41.38,1289.66 -30.71,1609.56 -854.33,259.9 -634.99,-92.97 -1455.67,646.21 -562.4,506.56 -485.8,1445.27 -483,2167.24 1.92,497.37 -1.18,1059.97 300.78,1503.18 54.56,80.07 83.02,100.74 129.82,161.41 222.59,288.57 41.74,148.36 363.49,375.55 708.94,500.56 1371.97,325.43 1423.62,521.76l26.19 312.6c-0.16,122.86 0.14,246.19 0.72,369.1 1.02,215 -3.7,482.01 97.47,603.41 142.85,171.41 1608.75,829.92 1904.5,965.29 1182.97,541.48 4440.36,1714.62 5518.71,1640.29 915.97,-63.15 3509.96,-910.55 4419.2,-1294.45 457.4,-193.12 2691.71,-1125.8 2910.78,-1400.89 167.4,-210.2 66.26,-955.69 120.22,-1281.55 316.05,-77.38 629.7,-104.73 926.21,-252.6 981.39,-489.43 1113.36,-1265.55 1123.28,-2333.64 9.18,-986.58 24.54,-1773.7 -758.31,-2294.06 -24.26,-16.13 -58.35,-43.91 -82.9,-60.92 -56.19,-38.93 -117.43,-71.02 -189.77,-106.67 -289.66,-142.79 -589.51,-217.81 -933.14,-217.47l-22.81 -225.74z"/>
  <path class="fil0" d="M13417.76 8963.72c-491.74,0 -1417.27,47.35 -1828.95,-124.56 -554.22,-231.42 -714.29,-1650.26 -714.29,-2234.38 0,-590.04 1156.92,-484.37 1576.63,-524.7 55.21,-5.31 46.51,-5.24 105.12,-11.81 504.74,-56.43 691.71,0.22 1045.2,18.65 289.94,15.12 725.75,-22.63 1059.15,122.74 461.76,201.36 337.65,617.14 266.46,1130.41 -50.04,360.79 -168.02,971.6 -320.67,1227.38 -198.21,332.13 -672.58,396.27 -1188.65,396.27zm-7187.41 -2911.83c467.65,0 1107.14,20.95 1527.74,94.04 635.98,110.53 663.15,331.82 609.16,973.93 -43.77,520.44 -200.9,1558.49 -730.29,1739.26 -431.08,147.2 -1275.18,104.6 -1775.19,104.6 -1229.26,0 -1328.55,-381.68 -1517.82,-1688.88 -164.05,-1133.01 94.27,-1222.95 1886.4,-1222.95zm3022.4 958.32l884.61 0c0,545.36 262.08,1480.43 490.76,1941.91 443.3,894.61 1842.8,748.76 2789.65,748.76 831.6,0 1512.12,-184.05 1828.72,-714.52 220.59,-369.61 456.51,-1489.58 456.51,-2086.72 384.04,-203.2 329.4,-204.53 391.33,-717.07 45.43,-376.05 -152.08,-577.09 -450.86,-660.88 -977.22,-274.05 -3640.65,-293.44 -4666.36,-30.67 -882.45,226.08 -1120.98,937.23 -2011.8,332.3 -876.57,-595.26 -2277.71,-508.59 -3361.54,-508.59 -535.35,0 -2227.78,-27.99 -2382.74,568.68 -47.95,184.64 -50.04,514.79 16.23,728.71 124.29,401.3 275.3,-51.52 345.83,649.57 64.97,645.72 278.98,1825.4 852.41,2133.13 336.73,180.7 753.89,285.09 1168.05,306.3 171.53,8.78 335.62,-11.61 507.55,11 340.8,44.8 1302.53,-17.68 1725.98,-136.87 831.65,-234.1 1017.9,-953.9 1185.1,-1800.43 62.56,-316.74 94.91,-764.6 230.58,-764.6z"/>
  <path class="fil0" d="M11631.72 8472.71c185.74,66.09 2197.61,65.53 2446.78,16.99l6.8 -1837.85 -2456.94 2.9 3.35 1817.95z"/>
  <path class="fil0" d="M5193.85 8497.99c448.4,5.75 2093.51,54.83 2420.63,-26.75l12.12 -1843.82 -2430.72 11.49 -2.03 1859.08z"/>
  <path class="fil0" d="M9936.54 11304.46l597.06 1038.12c237.31,-71.74 487.33,-206.21 630.17,-319.62 -99.61,-171.43 -217.55,-317.99 -325.02,-481.05 -84.02,-127.5 -255.23,-336.3 -283.1,-459.74 138.5,-88.09 750.92,-393.5 913.69,-415.78 -92.04,-83.1 -2061.88,-1130.17 -2365.87,-1252.87l86.92 2222.39c169.2,-77.28 613.06,-307.06 746.16,-331.45z"/>
  <path class="fil0" d="M15214.55 2090.77c-633.36,225.08 -267.16,1112.1 306.41,908.49 577.43,-204.97 291.56,-1121.01 -306.41,-908.49z"/>
  <path class="fil0" d="M3796.14 2094.42c-608.1,195.94 -282.66,1102.72 303.7,908.79 544.22,-179.99 337.78,-1115.5 -303.7,-908.79z"/>
 </g>
</svg>
