<?xml version="1.0" encoding="UTF-8"?>
<!DOCTYPE svg PUBLIC "-//W3C//DTD SVG 1.1//EN" "http://www.w3.org/Graphics/SVG/1.1/DTD/svg11.dtd">
<!-- Creator: CorelDRAW 2026 -->
<svg xmlns="http://www.w3.org/2000/svg" xml:space="preserve" width="162.399mm" height="173.701mm" version="1.1" style="shape-rendering:geometricPrecision; text-rendering:geometricPrecision; image-rendering:optimizeQuality; fill-rule:evenodd; clip-rule:evenodd"
viewBox="0 0 15915.74 17023.43"
 xmlns:xlink="http://www.w3.org/1999/xlink"
 xmlns:xodm="http://www.corel.com/coreldraw/odm/2003">
 <defs>
  <style type="text/css">
   <![CDATA[
    .fil1 {fill:#010101}
    .fil0 {fill:#FDFDFD}
   ]]>
  </style>
 </defs>
 <g id="Слой_x0020_1">
  <metadata id="CorelCorpID_0Corel-Layer"/>
  <path class="fil0" d="M3816.61 10432.9c112.97,277.77 1165.89,-171.44 1174,383.97 5.73,392.04 -446.19,320.06 -847.2,319.84 -139.17,-0.09 -281.69,-27.33 -307.08,98.08 16.91,118.76 381.21,80.37 540.96,80.4l446.88 5.77c52.58,10.6 57.61,25.21 137.64,32.82 18.81,116.39 52.79,132.65 38.48,266.1 -10.73,100 -45.08,156.55 -104.97,216.46 -256.46,256.54 -802.93,-17.02 -1035.93,200.36 -174.01,162.33 -65.05,300.18 -317.19,324.9 -410.77,40.29 -714.72,-168.24 -724.6,-541.3l7.66 -1246.98c46.85,-388.68 223.37,-616.39 478.69,-763.74 302.83,-174.77 715.82,-124.84 1123.53,-124.76 234.57,0.05 342.95,12.85 470.74,143.64 138.78,142.03 116.03,325.49 -4.96,435.5 -230.22,209.34 -912.4,-43.12 -1076.65,168.92zm11650.56 -4845.06c-187.83,351.84 -712.54,72.92 -529.33,-247.86 199.65,-349.57 686.56,-46.64 529.33,247.86zm-15044.05 -49.85c-32.42,-172.7 73.72,-313.13 201.54,-342.99 422.03,-98.58 489.93,479.36 160.23,546.09 -184.03,37.24 -338.22,-77.65 -361.76,-203.09zm3152.28 -2106.63c89.82,181.2 50.17,718.86 50.63,970.61 0.39,215.17 27.96,857.59 -33.92,1002.8 -575.82,81.03 -473.88,-646.04 -474.1,-969.39 -0.26,-396.47 -72.71,-741.52 157.02,-935.34 89.53,-75.53 148.11,-72.51 300.37,-68.68zm8737.33 1984.71c-90.2,-211.02 -50.15,-709.45 -49.92,-980.69 0.22,-249.16 -41.52,-822.41 49.92,-998.88 132.07,-9.85 208.3,-25.4 300.01,47.64 245.45,195.51 172.05,507.5 170.31,934.53 -1.94,478.7 77.38,989.88 -470.32,997.4zm-472.46 678.11l7.3 166.64c-91.17,48.43 -88.36,74.04 -162.09,136.93l-567.86 384.3c-285.61,205.71 -533.01,261.7 -885.08,363.29 -311.98,90.03 -655.76,187.57 -978.95,276.97 -332.63,92.02 -666.04,165.35 -996.03,261.22 -355.91,103.38 -697.67,-48.74 -1018.43,-145.62 -642.23,-193.99 -1292.07,-359.2 -1950.01,-557.96 -671.9,-202.96 -214.13,-510.39 -433.98,-833.94 -145.91,-214.72 -582.24,-295.89 -771.51,-480.91 -111.94,-109.43 -69.08,-370.26 -69.55,-544.78 -1.38,-504.67 -25.38,-1482.43 -0.2,-1887.72 13.21,-212.57 130.09,-265.98 266.6,-364.27 178.89,-128.79 165.54,-205.24 166.77,-471.12 1.21,-260.4 34.22,-334.2 -100.78,-520.8 -99.28,-137.24 -194.98,-203.62 -191.16,-448.47 5.6,-358.7 332.48,-610.45 712.64,-492.69 368.35,114.11 445.82,589.33 252.83,818.8 -263.12,312.88 -335.62,129.62 -336.06,627.18 -0.15,168.47 100.1,357.07 266.14,71.65 142.18,-244.42 374.96,-250.96 459.79,-490.2 33.37,-94.09 23.4,-144.09 79.53,-223.57 40.33,-57.11 109.79,-111.01 172.46,-143.95 147.69,-77.62 284.06,-136.29 431.39,-205.49 402.32,-188.93 457.78,-72.35 907.58,155.39 129.39,65.52 746.79,394.33 852.24,399.47 155.43,7.58 1019.84,-494.38 1260.86,-605.61 211.98,-97.82 331.26,-26.99 499.82,47.41 144.5,63.79 515.93,214.23 602.42,334.55 90.88,126.41 15.01,247.95 195.2,421.98 57.81,55.84 118.75,80.77 185.51,131.86 120.69,92.37 181.66,273.1 295.26,340.37 148.52,-65.09 120.59,-168.43 121.48,-368.52 1.57,-357.89 -258.9,-316.13 -388.79,-600.62 -56.83,-124.48 -50.79,-315.42 4.91,-430.19 256.02,-527.6 1112.46,-345.18 1006.81,337.95 -52.6,340.13 -294.01,236.33 -290.35,693.06 1.01,126.6 -27.41,364.66 21.05,461.46 116.58,232.83 409.77,192.93 414.32,573.68l-1.45 2223.07c-16.73,197.36 -218.69,272.44 -388.13,349.35l-1012.27 476.33c-388.83,183.22 -455.84,-251.4 -752.75,-36.27 -239,173.15 -230.62,462.24 26.15,615.23 244.15,145.47 379.46,-117.11 677.91,-247.07 356.67,-155.31 863.2,-401.27 1232.76,-506.38 65.24,-18.56 117.02,-49.39 175.67,-62.02zm-9258.98 -1714.86c-258.96,90.2 -633,-24.18 -865.65,101.52 -205.81,111.21 -318.07,334.89 -501.67,450.33 -146.86,92.34 -207.58,67.99 -356.73,20.21 -368.58,-118.07 -801.62,283.78 -650.54,681.45 66.7,175.56 310.58,428.25 591.02,366.48 215.04,-47.35 421.67,-265.12 440.84,-510.51 17.06,-218.55 -5.36,-231.16 116.02,-367.22 71.93,-80.62 156.5,-155.8 235.3,-232.57 252.99,-246.52 258.97,-232.5 715.84,-232.73l272.86 40.39 35.9 272.74c17.82,509.84 385.51,843.49 860.4,936.18 112.65,21.98 128.21,45.78 232.71,68.22 6.32,75.21 21.82,87.17 30.04,136.25 25.84,154.16 -30.36,338.02 16.68,486.44 66.27,209.05 588.99,433 795.33,539.23 285.12,146.79 199.08,143.55 395.47,256.65 -20.62,63.42 -55.63,42.38 -109.51,91.08 -43.54,39.37 -41.89,54.46 -94.87,87.97 -223.93,141.63 -468.88,263.31 -685.59,417.58 -271.41,193.21 -528.33,433.11 -711.43,776.1 -295.2,552.99 -68.7,670.85 -484.78,1001.6 -461.37,366.76 -407.83,1005.04 -407.67,1568.33 0.15,516.17 -45.2,991.71 276.12,1349.23 232.26,258.42 539.11,343.72 998.37,345.02 539.6,1.54 85.17,-612.92 451.75,-874.72 153.98,-109.97 858.09,-74.83 1068.51,-75.8 110.32,-0.51 211.06,20.81 298.35,-43.83 152.2,-112.7 100.75,-377.1 100.74,-549.56 -0.03,-580.09 -62.56,-798.94 569.86,-801.28l801.9 -1.22c124.51,-0.19 300.82,30.19 395.8,-39.17 147.29,-107.57 93.19,-380.01 92.58,-628.47 -1.74,-716.59 166.44,-634.63 948.35,-634.73 156.21,-0.02 771.87,31.55 870.85,-31.39 81.51,-51.82 116.92,-138.63 116.68,-236.01 -1.13,-461.24 -88.24,-949.56 399.07,-950.57l1520.27 -0.06c151.79,0.28 301.7,-123.28 348.25,-218.8 -32.95,-148.24 -213.4,-203.12 -355.68,-276.97 -272.21,-141.26 -164.65,-110.37 -289.05,-194.04 -64.31,-43.26 -56.54,-10.1 -94.75,-71.3 101.39,-41.37 82.2,-28.8 159.6,-106.72 86.08,-86.65 382.93,-217.63 502.33,-283.09 545.3,-298.93 539.97,-262.34 541.5,-805.32 0.6,-210.73 21.3,-216.33 88.73,-253.95 141.4,-78.85 939.07,-139.8 990.7,-981.95l38.6 -276.05c82.05,-13.38 127.01,-37.98 191.44,-38.06 522.4,-0.44 511.21,-46.59 910.42,338.85 74.92,72.34 141.28,119.46 204.47,213.86 117.08,174.93 -6.63,634.97 484.63,781.53 454.26,135.51 867.18,-488.2 516.15,-864.05 -186.24,-199.41 -348.05,-235.34 -602.68,-146.71 -264.32,92 -367.2,-66.69 -533.83,-237.1 -41.33,-42.27 -60.79,-57.94 -110.99,-106.16 -243.68,-234.03 -336.46,-211.49 -634.28,-212.17 -321.78,-0.73 -167.34,-4 -421.9,-34.71 -21.07,-106.88 -38.73,-191.15 -38.88,-305.01 -0.57,-447.26 -136.77,-796.21 -532.43,-960.12 -58.65,-24.31 -297.36,-91.68 -353.21,-99.5 -17.58,-77.33 -40.4,-120.22 -43.84,-192.53l0.64 -568.83c0.68,-924.8 134.54,-1192.01 -674.05,-1678.77l-597.54 -321.87c-162.59,-131.11 -583.41,-82.59 -830.39,-82.59l-2639.57 0.64c-51.83,0 -2433.64,-25.6 -2583.67,17.58 -155.42,44.75 -605.92,290.65 -736.68,365.76 -270.79,155.51 -674.37,393.78 -674.14,813.83l0.9 885.43c0.25,291.64 23.52,481 -40.78,759.84 -102.31,17.46 -352.51,88.86 -445.91,138.88 -364.51,195.19 -492.83,577.44 -489.41,973.01 1.22,139.36 -28.4,131.02 -33.9,244.01z"/>
  <path class="fil0" d="M5789.79 15102.5c97.27,-15.84 138.01,-37.87 240.64,-37.56l418.44 0.74c248.66,0.22 154.97,19.08 310.96,35.69 13.14,77.84 38.53,133.09 38.42,193.02 -0.13,119.39 15.23,301.95 -18.78,413.73l-27.19 75.06c-0.79,-2.36 -3.19,8.08 -5.66,11.6 -67.05,57.54 -326.56,44.41 -414.68,44.37 -571.49,-0.32 -579.1,43.01 -578.77,-360.99 0.28,-343.96 12.26,-170.03 36.63,-375.67zm-1224.88 -23.11c85.03,-15.24 123.09,-36.25 195.8,-39.95l519.76 1.54c94.11,3.39 103.15,28.36 203.87,31.94 8.97,115.98 35.62,116.33 36.08,237.47 1.39,370.15 -1.56,203.04 -35,490.94 -71.57,12.26 -114.77,29.75 -159.34,35.81l-364.05 1.75c-381.56,0.25 -202.44,-17.9 -393.03,-35.06 -45.05,-231.45 -39.35,-123.17 -39.11,-342.39 0.28,-274.12 21.14,-215.47 35.03,-382.07zm3071.75 -570.78c95.74,-15.41 126.38,-38.74 215.53,-38.52 252.64,0.66 536.91,-29.98 779.12,44.25 21.86,137.63 34.66,148.78 34.52,312.41 -0.11,121.89 -5.65,207.56 -58.96,286.71 -72.85,62.25 -669.27,50.94 -788.12,42.92 -76.15,-5.14 -85.12,-26.42 -177.94,-35.11 -14.01,-77.26 -39.59,-132.87 -39.58,-194.41 0.61,-368.55 21.98,-247.47 35.43,-418.24zm-1848.71 -378.05c107.17,-27.09 141.36,-43.47 259.61,-42.84 206.93,1.13 523.17,-28.66 711.98,45.5 47.36,211.02 65.01,501.39 -2.37,717.03l-53.62 17.94c-150.92,48.36 -592.12,40.66 -739.41,28.24l-170.11 -52.2c-41.77,-126.39 -40.75,-192.78 -40.81,-351.75 -0.12,-352.68 25.29,-206.52 34.72,-361.94zm1848.64 -522.64c110.25,-12.82 120.3,-36.86 231.54,-37.76 88.92,-0.72 178.95,0.9 268.06,0.91 381.49,0.06 170,-12.43 498.68,38.37 5.29,101.38 31.2,102.64 31.86,198.1 0.23,251.67 13.46,242.45 -38.19,474.53 -85.29,12.22 -120.43,37.23 -208.35,37.3l-350.84 -0.29c-385.84,0.73 -277.68,-25.9 -428.36,-34.17 -57.98,-285.8 -39.6,-154.81 -39.78,-477.36 -0.04,-85.02 28.41,-101.29 35.36,-199.61zm3051.96 249.73c0.05,-163.15 -18.6,-362.01 29.22,-490.3 31.68,-84.98 -1.78,-43.58 69.12,-67.16 130.24,-43.3 287.58,-24.33 439.95,-24.6 377.28,-0.66 218.23,17.47 399.49,32.09 10.73,74.63 35.37,115.82 39.5,182.44 7.76,249.41 3.89,319.51 -39.1,549.53 -95.25,5.06 -107.9,32.82 -182.71,32.81 -256.25,-0.04 -495.77,25.68 -707.92,-40.42l-47.55 -174.39zm-1146.73 -548.4c109.23,-6.27 104.94,-32.62 214.87,-32.47 813.54,1.63 765.69,-83.6 764.36,514.05 -0.35,163.67 -21.55,117.42 -37.54,242.87 -92.01,16.06 -124.01,39.08 -208.93,39.05l-384.24 -0.61c-290.57,-0.14 -182.94,-20.25 -348.59,-34.62 -12.93,-82.79 -38.02,-129.23 -37.98,-196.58l0.22 -334.13c0.03,-68.13 24.96,-113.39 37.83,-197.58zm-1898.76 -579.44c70.1,-9.33 74.61,-24.07 131.44,-36.06l612.29 -6.39c209.82,0.1 256.52,29.59 277.73,188 29.07,217.06 -24.94,405.51 -31.11,496.63 -237.81,61.38 -315.63,38.01 -580.75,37.23 -333.26,-0.97 -224.45,-15.14 -411.59,-25.94 -50.78,-282.2 -69.94,-355.6 1.98,-653.47zm1901.73 -387.8c53.34,-13.79 128.76,-37.51 178.49,-37.41 117.11,0.16 710.76,-36.93 759.03,74.4l22.66 61.5c34.54,110.11 23.74,580.54 -27.21,634.14 -62.44,65.69 -521.95,45.5 -620.84,45.6 -296.22,0.32 -112.57,-10.85 -312.01,-37.33 -13.97,-66.81 -33.36,-113.74 -39.09,-161.59 -6.58,-54.99 -1.54,-141.47 -1.36,-199.68 0.43,-302.71 -12.49,-126.65 40.32,-379.63zm-7.45 -910.05c176.76,-13.47 47.36,-35.43 403.12,-35.54 317.33,-0.1 239.53,-18.28 547.28,40.08 5.63,97.02 34.32,108.23 34.31,182.51 0.09,220.44 12.14,272.63 -41.5,489.31 -99.5,9.09 -111.26,33.94 -205.97,33.95l-517.89 -0.09c-96.79,-0.19 -117.74,-24.37 -217.18,-37.11 -8.72,-134.08 -34.74,-38.66 -34.91,-318.99 -0.15,-260.27 29.49,-250.9 32.73,-354.13zm2341.04 -1632.26c267.34,0.25 535.25,-1.7 802.48,-0.37 274.31,1.37 437.33,109.73 557.19,259.36 145.47,181.63 135.9,385.65 136.14,658.21 0.25,267.3 0.37,534.59 0.15,801.9 -0.23,286.79 31.63,475.84 -140.35,653.91 -131.46,136.11 -358.07,227.01 -612.23,176.59 -100,-19.83 -80.68,-4.04 -104.58,-100.94 -13.64,-55.31 -16.34,-112.79 -39.04,-159.97 -134.49,-279.55 -705.04,-33.89 -1034.86,-167.7 -201.82,-81.88 -253.95,-321.66 -157,-559.24 162.09,-68.02 387.05,-46.51 592.11,-46.32 236.36,0.24 459.01,39.24 548.17,-80.34 -84.56,-305.52 -1222.01,211.14 -1189.83,-435.09 5.89,-118.42 89.39,-202.82 165.97,-241.46 114.78,-57.91 618.29,-33.21 776.74,-31.92 107.14,0.87 301.51,-29.58 227.15,-118.79 -68,-81.61 -219.36,-59.66 -344.44,-59.62 -233.49,0.09 -607.25,37.91 -729.36,-70.95 -67.64,-60.3 -135.38,-161.93 -77.45,-300.51 88.05,-210.61 351.52,-177 623.04,-176.74zm192.01 3265.03c86.76,-8.51 103.61,-27.17 161.4,-34.47 287.01,-36.29 706.23,103.92 1124.99,-283.77 360.29,-333.57 363.19,-670.77 363.13,-1244.41 -0.04,-379.68 41.1,-1252.57 -46.2,-1561.02 -61.29,-216.56 -183.35,-372.26 -326.59,-475.74 -250.44,-180.92 -355.32,21.45 -546.06,119.31 -268.61,137.81 -1196.13,-25.48 -1523.81,82.75 -170.05,56.17 -342.17,256.41 -299.4,494.05 25.72,142.89 56.23,204.76 30.8,367.62 -63.64,407.62 -43.22,419.69 -383.19,418.36 -133.62,-0.52 -267.37,0.27 -401.01,0.32 -1136.37,0.37 -1142.35,-101.4 -1142.25,470.81 0.02,133.65 -0.02,267.3 0.09,400.95 0.28,349.65 -11.48,158.88 -37.1,358.75 -74.6,10.32 -107.25,28.57 -159.9,35.26l-1384.02 2.39c-155.35,-1.18 -222.24,5.59 -294.14,110.45 -98.38,143.51 24.04,723.54 -80.04,1105.98 -136.14,31.15 -136.94,42.88 -293.91,41.93 -111.35,-0.67 -222.82,-0.17 -334.19,-0.2 -217.18,-0.07 -434.36,-0.12 -651.55,-0.04 -129.87,0.04 -205.03,-17.51 -287.86,45.84 -132.45,101.31 -94.82,330.54 -93.47,555.05 1.36,226.79 -27.64,147.4 -33.15,289 -113,8.52 -112.8,33.91 -219.37,36.21l-719.46 -0.88c-166.91,-0.72 -273.14,18.9 -321.51,154.7 -28.72,80.61 -10.78,1297.53 -10.88,1442.09 -0.25,383.31 2.59,543.6 240.88,709.59 72.88,50.77 275.25,122.75 357.68,124.75 159.34,3.86 325.57,-0.6 485.73,-0.61l4828.09 0.33c148.03,-0.12 1354.23,17.89 1440.17,-14.09 50.85,-18.92 6.04,-12.23 79.86,-31.02 454.22,-115.59 437.48,-454.75 437.96,-889.19l0.01 -2405.69c0.05,-370.38 -8.18,-136.62 38.27,-425.39z"/>
  <path class="fil0" d="M12500.2 7786.72c-136.28,254.1 -323.77,404.08 -540.96,622.06 -314.56,315.69 -307.37,273.21 -882.75,275.47 -189.34,0.74 -378.67,1.42 -568.01,1.84 -343.78,0.77 -561.63,-56.65 -558.65,309.93l0.5 585.24c1.23,151.95 -23.29,137 -36.53,258.94 -225.67,82.56 -518.3,46.88 -775.22,46.87 -272.84,-0.01 -546.31,1.93 -819.07,-0.21 -146.65,-1.16 -210.28,18.18 -271.76,122.67 -52.33,88.94 -25.7,647.28 -25.59,790.9 0.26,358.96 -7.01,152.67 -37.24,382.46 -167.19,13.03 -17.86,35.16 -349.9,34.63l-1203.66 -0.71c-345.84,-0.3 -268.97,325.05 -268.32,535.87l-1.76 599.72c-4.49,39.56 -6.06,36.95 -19.31,78.72l-27.68 73.47c-86.13,82.49 -1097.73,45.84 -1370,44.45 -114.72,-0.58 -152.46,8.13 -215.83,73 -101.5,103.89 -69.17,302.65 -68.88,517.25 0.26,187.28 -5,382.99 -0.17,569.04 7.32,282.12 377.78,306.47 514.2,161.29 84.33,-89.75 56.69,-339.92 55.34,-513.41 -1.11,-144.06 25.02,-151.7 33.57,-267.23 210.79,-33.23 49.69,-39.85 333.85,-38.93 218.95,0.71 1013.22,15.69 1116.43,-1.35 245.54,-40.53 184.68,-388.21 184.51,-560.95 -0.83,-868.38 -142.62,-762.66 753.93,-762.06 256.07,0.18 512.5,-1.61 768.52,0.3 354.19,2.64 333.38,-134.46 332.93,-441.1l0.97 -584.25c7.41,-71.63 26.94,-75.01 33.66,-170.75 187.58,-17.95 20.51,-35.97 367.47,-35.58l1202.85 0.64c355.53,0.26 396.43,-37.38 396.86,-396.19 0.32,-268.15 -14.67,-524.19 29.57,-776.49 377.33,-125.11 1674.31,33.98 1919.27,-85.57 294.78,-143.86 705.44,-818.2 926.7,-725.73 303.7,126.94 448.71,511.49 604.45,318.76 81.85,-101.29 57.81,-455.48 70.75,-618.5 32.65,-411.48 40.28,-836.53 82.94,-1249.32 10.11,-97.9 41.09,-212.67 -18.58,-290.05 -62.87,-81.53 -107.69,-92.8 -224.14,-54.73l-1522.6 516.08c-463.19,158.58 -330.53,225.78 -76.91,459.93 71.04,65.59 78.69,137.85 154.25,193.56z"/>
  <path class="fil0" d="M5522.38 3404.23c327.52,-26.97 675.47,-7.68 1010.32,-0.57 309.98,6.59 614.09,47.15 705.64,307.54 76.95,218.91 -14.33,689.42 -68.79,890.98 -76.95,284.76 -212.74,453.07 -519,501.89 -212.92,33.94 -763.57,26.06 -1001.37,11.75 -349.44,-21.03 -518.06,-125.2 -618.99,-397.49 -87.09,-234.92 -127.31,-614.17 -121.7,-901.78 3.44,-177.02 71.68,-272.64 179.26,-342.25 123.13,-79.66 275.63,-56.97 434.63,-70.06zm5480.93 646.91c-99.1,860.37 -151.98,1070.07 -996.02,1069.7 -243.48,-0.11 -774.12,29.85 -956.33,-64.46 -71.07,-36.78 -212.09,-164.76 -258.67,-258.68 -59.19,-119.3 -92.44,-254.11 -118.78,-395.3 -177.66,-952 87.34,-1010.77 966.25,-1014.03 844.25,-3.13 1454.77,-129.13 1363.55,662.77zm524.18 -467.76c46.19,-217.94 -91.42,-399.55 -248.53,-452.84 -126.6,-42.94 -500.35,-61.46 -653.02,-63.48 -536.86,-7.1 -1552.05,-72.73 -2027.28,143.37 -174.72,79.45 -280.16,197.48 -481.7,240.3 -491.44,104.4 -607.03,-205.09 -1078.41,-320.21 -394.98,-96.47 -1604.61,-82.43 -2093.27,-44.45 -245.07,19.03 -389.26,42.47 -505.9,208.88 -142.9,203.88 -21.05,389.93 51.37,559.2 145.59,340.28 33.61,1228.78 639.39,1515.41 283.91,134.34 968.45,157.15 1334.53,120.02 473.49,-48.02 762.11,-158 936.02,-504.29 165.84,-330.22 171.2,-718.51 222.18,-879.09 5.79,-18.24 60.79,-117.82 63.14,-120.78 71.12,-89.15 347.72,-74.36 445.93,-45.94 96.63,27.96 65.27,1.17 103.82,80.69 164.37,339.09 32.46,1265.42 905.96,1432.08 356.9,68.1 1005.63,61.76 1364.02,-0.75 658.45,-114.85 772.25,-761.64 843.13,-1332.82 32.86,-264.9 135.72,-332.75 178.62,-535.28z"/>
  <path class="fil0" d="M2493.46 4306.09c90.37,-229.22 -51.01,-368.37 135.35,-768.07 111.63,-239.42 371.8,-485.9 663.94,-538.65 45.93,-8.28 84,-12.38 121.19,-27.99 60.75,-25.5 50.16,-14.21 74.6,-77.14 38.3,-98.65 16.31,-995.21 16.21,-1181.96 -0.32,-547.09 -11.71,-636.89 289.9,-933.58 270.78,-266.38 811.93,-473.15 939.79,-563.45 68.07,-48.09 87.06,-90.2 192.1,-106.59 275.57,-42.98 4758.42,-18.7 5414.87,-18.57 179.64,0.04 421.47,-14.67 592.5,10.98 160.58,24.08 111.96,0.13 208.01,91.91 60.89,58.19 109.4,67.52 190.26,110.83 320.56,171.72 854.85,457.83 1014.15,806.18 148.31,324.31 17.83,1401.27 72.6,1733.62 43.88,266.24 298.02,1.69 713.78,487.89 71.75,83.91 173.03,262.9 195.07,405.55 31.91,206.49 -14.66,254.76 43.31,575.51 339.86,67.74 639.67,-63.96 892.52,126.48 121.15,91.24 426.22,462.98 556.68,477.32 182.97,20.1 390.22,-236.28 782.03,88.33 562.21,465.78 -33.29,1218.95 -514.25,1082.43 -237.48,-67.42 -459.64,-270.53 -508.7,-526.84 -78.2,-408.42 16.42,-231.42 -262.24,-506.36 -325.6,-321.26 -346.43,-372.22 -949.21,-281.72 -22.64,153.05 -21.36,8.31 -32.9,265.03 -10.92,243.19 -128.09,460.87 -286.1,618.8 -109.12,109.05 -181.53,177.07 -350.67,250.49 -77.68,33.71 -137.98,51.7 -230.08,70.97 -86.45,18.11 -164.18,36.71 -190.1,110.81 -46.4,132.66 20,435.14 -33.49,568.05 -91.66,227.77 -324.93,294.56 -503.78,397.63 -198.59,114.44 -495.28,238.81 -569.97,355.08 69.31,121.57 78.7,95.91 204.79,168.72 213.16,123.08 655.74,254.48 298.04,545.36 -198.17,161.15 -320.79,125.31 -630.61,125.31 -250.59,0 -501.18,-0.08 -751.77,0 -768.15,0.25 -762.96,-72.92 -763.05,714.28 -0.01,140.23 64.57,433.95 -226.03,498.29 -195.72,43.33 -1222.42,-28.59 -1472.85,13.99 -248.22,42.19 -226.82,260.19 -226.7,523.51 0.12,269.1 41.88,539.93 -80.67,672.01 -134.13,144.57 -370.76,100.56 -655.48,100.77 -245.12,0.18 -490.3,0.61 -735.41,0.31 -279.26,-0.33 -386.7,68.59 -398.1,346.22 -19.93,485.51 92.28,810.01 -130.76,990.71 -94.42,76.48 -172.26,62.58 -322.81,62.42 -245,-0.25 -484.53,16.88 -718.34,16.3 -589.87,-1.46 -431.28,221.7 -462.06,651.92 -26.91,376.18 -560.29,314.43 -831.61,257.08 -199.04,-42.07 -371.36,-135.64 -493.58,-241.04 -69.94,-60.3 -113.79,-118.98 -181.99,-186.43 -91.67,-90.69 -63.59,-91.91 -105.05,-178.15 -183.89,-382.49 -122.32,-998.06 -120.52,-1489.76 1.58,-428.87 -24.85,-833.9 306.46,-1186.48 119.82,-127.5 304.5,-195.41 359.46,-392.26 64.02,-229.32 79.62,-364.99 175.27,-577.13 440.92,-977.92 1431.6,-1205.48 1555.72,-1435.97 -105.9,-201.14 -773.02,-391.98 -997.38,-624.87 -294.56,-305.76 56.99,-690.74 -244.28,-774.73 -184.64,-51.48 -243.33,-32.25 -464.39,-154.05 -235.55,-129.78 -477.42,-415.3 -522.46,-696.15 -62.93,-392.37 131.76,-415.92 -396.1,-417.91 -164.22,-0.62 -226.65,-4.66 -337.57,74.65 -70.96,50.74 -359.25,337.76 -410.99,408.09 -134.18,182.38 61.04,276.13 -193.4,608.27 -533.07,695.9 -1415.82,-125.53 -1006.82,-689.48 337.32,-465.13 683.68,-258.08 854.09,-246.7 190.78,12.76 366.28,-378.1 692.74,-528.22 212.29,-97.62 546.52,23.19 756.82,-61.89zm-388.19 -839.4l-384.24 0.1c-238.9,0.25 -252.42,441.42 -724.09,478.53 -317.17,24.95 -603.11,-281.04 -643.39,-548.6 -57.9,-384.6 462.26,-941.19 965.33,-564.32 33.63,25.19 50.11,46.24 80.85,70.05 45.46,35.22 55.25,24.06 94.24,55.99 35.52,29.07 50.3,102.21 210.35,102.21 347.91,0 417.83,37.56 642.48,-187.99 129.38,-129.89 154.74,-178.46 154.74,-425.32 0,-226.45 -129.67,-120.78 -254.4,-341.65 -65.86,-116.62 -194.15,-184.01 -192.61,-443.54 2.32,-392.92 582.69,-885.35 1053.95,-418.56 330.59,327.47 264.42,624.64 -52.18,918.87 -43.94,40.84 -51.76,62.92 -85.72,97.41 -206.26,209.41 183.59,482.14 -384.86,934.86 -115.2,91.75 -250.31,271.93 -480.44,271.95zm1303.08 -1921.48l-113.26 -220.85c-52.47,-78.05 -94,-110.87 -158.05,-176.08 -258.73,-263.4 -691.28,-219.66 -935.86,25.08 -187.12,187.24 -229.56,324.59 -229.56,589.03 0,142.41 110.88,267.06 174.06,360.54 64.65,95.65 97.51,135.54 191.6,209.35 106.51,83.57 68.7,108.67 68.7,282.13 0,124.23 -257.71,350.84 -367.54,350.84 -509.73,0 -312.95,46.53 -684.79,-217.34 -497.37,-352.95 -1086.06,105.02 -1086.06,534.76 0,273.12 113.14,458.65 313.17,622.38 156.51,128.1 432.01,169.16 627.88,84.78 77.62,-33.44 125.32,-63.56 188.24,-112.47 59.36,-46.16 88.63,-91.09 135.12,-148.89 39.22,-48.76 86.2,-125.13 142.2,-158.5 206.33,-122.97 472.31,167.79 911.08,-258.37 272.66,-264.84 408.73,-281.56 405.19,-764.24 -1.56,-212.55 60.55,-252.86 196.54,-388.18 74.72,-74.35 142.15,-150.63 181.21,-253.14l29.63 -87.32c1.27,-3.19 4.1,-9.01 5.16,-11.54 1.06,-2.52 3.11,-7.82 5.35,-11.35 0,284 -0.43,568.02 0,852.02 0.69,441.47 -37.77,118.86 -458.06,393.95 -254.75,166.74 -465.66,470.52 -506.96,779.42 -9.27,69.28 -4.17,143.04 -3.72,213.46 0.62,96.83 -10.99,128.88 -16.93,200.25 -602.74,50.16 -640.42,-102.89 -1107.12,346.32 -63.21,60.84 -180.8,221.7 -279.49,221.7 -125.24,0 -191.03,-50.12 -317.42,-50.12 -610.14,0 -967.61,744.68 -513.9,1198.85 212.56,212.77 479.61,297.74 769.69,176.25 205.23,-85.95 390.55,-298.24 439.34,-529.61 61.54,-291.84 -107.09,-172.22 186.12,-465.42 79.13,-79.13 152.66,-174.8 244.98,-239.5 137.01,-96.02 331.97,-57.04 544.38,-57.04 83.8,0 47.46,172.89 49.55,251.16 6.34,238.07 102.15,353.1 220.97,530.81 201.54,301.43 534.88,406.78 882.2,487.7 8.54,102.52 5.66,491.61 37.96,563.46 56.04,124.7 169.08,251.39 290.22,311.2 78.42,38.72 120.2,68.48 195.15,105.56 41.69,20.64 61.06,30.63 97.85,52.51 39.95,23.76 59.6,29.99 99.55,50.81 92.84,48.35 330.4,142.65 381.88,219.54 -30.9,42.18 -161.93,103.36 -216.34,134.48 -249.34,142.67 -391.14,240.29 -633.39,419.1 -409.14,301.99 -720.7,807.5 -819.71,1301.99 -56.92,284.36 -112.69,248.21 -297.93,420.43 -239.25,222.42 -404.9,558.92 -404.9,1015.12l0 1202.84c0,320.92 59.45,427.52 149.81,668.8 1.48,3.95 2.69,8.59 4.17,12.54 10.01,26.81 7.76,27.25 25.67,57.86 86.67,148.14 349.22,360.98 499.56,435.99 298.92,149.15 587.51,127.89 924.6,127.89 59.1,0 103.34,-31.97 137.83,-62.63 158.2,-140.67 181.18,-155.99 179.69,-438.44 -2.16,-409.89 -17.05,-436.22 400.89,-434.42 149.09,0.65 231.98,-17.11 384.18,-16.77 139.25,0.31 278.69,-0.89 417.92,0.25 83.92,0.7 117.06,8.59 179.1,-21.36 89.71,-43.31 162.6,-119.96 211.41,-206.24 60.38,-106.77 7.33,-798.61 42.41,-993.37 41.49,-230.37 311.41,-165.87 669.44,-165.87 325.2,0 923.75,93.22 1103.27,-149.7 91.68,-124.04 83.16,-126.1 82.87,-334.77 -1.3,-979.74 -90.46,-818.61 835.31,-818.61 192.16,0 663.74,23.78 802.68,-15.93 292.57,-83.57 299.95,-253.26 299.92,-535.38 -0.08,-845.28 -102.55,-668.25 985.67,-668.25 213.35,0 659.63,20.4 823.69,-11.62 124.69,-24.33 200.68,-66.51 286.48,-131.18 271.33,-204.55 219.29,-438.94 -79.91,-586.74 -130.2,-64.31 -238.96,-124.19 -362,-189.29 51.68,-77.18 274.15,-156.84 372.9,-211.82 142.55,-79.37 460.89,-237.2 558.9,-343.24 312.61,-338.2 -29.9,-730.77 249.98,-802.52 317.85,-81.48 431.88,-131.73 677.03,-375.45 403.16,-400.83 219.78,-856.44 346.41,-856.44 498.91,0 410.31,-77.58 789.04,296.86 223.9,221.38 169.98,104.06 219.71,431.84 47.45,312.78 368.26,624.5 695.28,624.5 584.52,0 997.22,-732.86 522.56,-1207.51 -395.81,-395.8 -651.68,-162.4 -856.67,-162.4 -101.98,0 -139.52,-90.76 -205.44,-145.39 -240.41,-199.19 -327.33,-424.94 -713.29,-422.73 -127.8,0.74 -394.34,26.72 -484.59,-16.59 -87.33,-87.32 130.04,-478.27 -274.27,-995.4 -55.97,-71.57 -150.77,-158.07 -232.14,-202.22 -393.46,-213.46 -446.85,-19.38 -445.86,-406.15 0.74,-289.54 0.02,-579.19 0.02,-868.75 0,-430.22 24.31,-584.46 -193.08,-876.11 -330.33,-443.17 -950.32,-606.21 -1138.79,-799.14 -81.44,-83.38 -224.85,-78.9 -355.46,-78.9 -735.86,0 -5611.07,-26.22 -5915.79,14.91 -126.45,17.06 -149.8,94.45 -257.99,142.96 -329.67,147.82 -879.86,447.08 -1070.27,733.99 -134.12,202.08 -156.78,321.81 -156.78,645.11z"/>
  <path class="fil1" d="M2581.3 4379.32c5.5,-112.99 35.11,-104.65 33.9,-244.01 -3.42,-395.57 124.91,-777.82 489.41,-973.01 93.4,-50.02 343.6,-121.42 445.91,-138.88 64.3,-278.83 41.03,-468.2 40.78,-759.84l-0.9 -885.43c-0.23,-420.05 403.36,-658.31 674.14,-813.83 130.76,-75.11 581.25,-321.01 736.68,-365.76 150.03,-43.18 2531.84,-17.58 2583.67,-17.58l2639.57 -0.64c246.98,0 667.8,-48.52 830.39,82.59l597.54 321.87c808.59,486.76 674.73,753.98 674.05,1678.77l-0.64 568.83c3.44,72.31 26.26,115.2 43.84,192.53 55.84,7.82 294.56,75.2 353.21,99.5 395.65,163.9 531.86,512.86 532.43,960.12 0.15,113.86 17.81,198.13 38.88,305.01 254.56,30.71 100.12,33.99 421.9,34.71 297.82,0.68 390.61,-21.86 634.28,212.17 50.2,48.22 69.66,63.89 110.99,106.16 166.63,170.41 269.51,329.1 533.83,237.1 254.62,-88.63 416.44,-52.7 602.68,146.71 351.03,375.86 -61.89,999.56 -516.15,864.05 -491.26,-146.57 -367.55,-606.61 -484.63,-781.53 -63.18,-94.41 -129.54,-141.53 -204.47,-213.86 -399.21,-385.44 -388.02,-339.29 -910.42,-338.85 -64.43,0.09 -109.39,24.69 -191.44,38.06l-38.6 276.05c-51.64,842.15 -849.3,903.1 -990.7,981.95 -67.44,37.61 -88.14,43.22 -88.73,253.95 -1.53,542.98 3.8,506.39 -541.5,805.32 -119.4,65.47 -416.25,196.45 -502.33,283.09 -77.4,77.91 -58.21,65.35 -159.6,106.72 38.21,61.19 30.44,28.04 94.75,71.3 124.41,83.67 16.85,52.78 289.05,194.04 142.27,73.85 322.73,128.73 355.68,276.97 -46.55,95.52 -196.46,219.09 -348.25,218.8l-1520.27 0.06c-487.32,1.01 -400.2,489.33 -399.07,950.57 0.24,97.39 -35.17,184.19 -116.68,236.01 -98.98,62.94 -714.65,31.37 -870.85,31.39 -781.91,0.11 -950.09,-81.85 -948.35,634.73 0.61,248.46 54.71,520.9 -92.58,628.47 -94.98,69.36 -271.29,38.99 -395.8,39.17l-801.9 1.22c-632.42,2.34 -569.89,221.2 -569.86,801.28 0.01,172.46 51.46,436.85 -100.74,549.56 -87.29,64.63 -188.03,43.32 -298.35,43.83 -210.41,0.97 -914.53,-34.17 -1068.51,75.8 -366.58,261.8 87.85,876.25 -451.75,874.72 -459.26,-1.3 -766.11,-86.61 -998.37,-345.02 -321.32,-357.52 -275.97,-833.06 -276.12,-1349.23 -0.17,-563.29 -53.71,-1201.57 407.67,-1568.33 416.08,-330.75 189.58,-448.61 484.78,-1001.6 183.1,-342.99 440.02,-582.9 711.43,-776.1 216.71,-154.27 461.66,-275.95 685.59,-417.58 52.98,-33.51 51.32,-48.6 94.87,-87.97 53.88,-48.7 88.89,-27.66 109.51,-91.08 -196.39,-113.11 -110.34,-109.86 -395.47,-256.65 -206.34,-106.23 -729.06,-330.18 -795.33,-539.23 -47.04,-148.43 9.16,-332.28 -16.68,-486.44 -8.22,-49.07 -23.72,-61.04 -30.04,-136.25 -104.5,-22.44 -120.06,-46.24 -232.71,-68.22 -474.89,-92.69 -842.58,-426.35 -860.4,-936.18l-35.9 -272.74 -272.86 -40.39c-456.88,0.24 -462.85,-13.79 -715.84,232.73 -78.8,76.78 -163.37,151.96 -235.3,232.57 -121.38,136.06 -98.95,148.67 -116.02,367.22 -19.17,245.39 -225.8,463.17 -440.84,510.51 -280.45,61.77 -524.32,-190.91 -591.02,-366.48 -151.08,-397.67 281.96,-799.52 650.54,-681.45 149.14,47.78 209.87,72.13 356.73,-20.21 183.6,-115.44 295.86,-339.12 501.67,-450.33 232.65,-125.7 606.69,-11.32 865.65,-101.52zm-87.84 -73.24c-210.3,85.08 -544.53,-35.73 -756.82,61.89 -326.46,150.12 -501.96,540.98 -692.74,528.22 -170.41,-11.39 -516.77,-218.43 -854.09,246.7 -409,563.95 473.74,1385.38 1006.82,689.48 254.44,-332.15 59.22,-425.9 193.4,-608.27 51.74,-70.33 340.03,-357.35 410.99,-408.09 110.91,-79.31 173.35,-75.27 337.57,-74.65 527.86,1.99 333.17,25.54 396.1,417.91 45.04,280.85 286.91,566.38 522.46,696.15 221.06,121.8 279.75,102.57 464.39,154.05 301.26,83.99 -50.29,468.97 244.28,774.73 224.36,232.9 891.47,423.73 997.38,624.87 -124.11,230.49 -1114.8,458.04 -1555.72,1435.97 -95.65,212.14 -111.25,347.81 -175.27,577.13 -54.96,196.85 -239.64,264.76 -359.46,392.26 -331.31,352.58 -304.88,757.61 -306.46,1186.48 -1.8,491.7 -63.37,1107.27 120.52,1489.76 41.47,86.24 13.38,87.46 105.05,178.15 68.2,67.46 112.06,126.13 181.99,186.43 122.22,105.4 294.54,198.97 493.58,241.04 271.32,57.34 804.7,119.09 831.61,-257.08 30.78,-430.23 -127.81,-653.38 462.06,-651.92 233.81,0.58 473.34,-16.55 718.34,-16.3 150.54,0.16 228.39,14.06 322.81,-62.42 223.04,-180.7 110.82,-505.2 130.76,-990.71 11.4,-277.63 118.84,-346.55 398.1,-346.22 245.11,0.29 490.29,-0.14 735.41,-0.31 284.72,-0.21 521.35,43.8 655.48,-100.77 122.54,-132.08 80.78,-402.91 80.67,-672.01 -0.12,-263.32 -21.52,-481.32 226.7,-523.51 250.43,-42.57 1277.12,29.34 1472.85,-13.99 290.6,-64.34 226.02,-358.06 226.03,-498.29 0.09,-787.21 -5.1,-714.04 763.05,-714.28 250.59,-0.08 501.18,0 751.77,0 309.82,0 432.43,35.84 630.61,-125.31 357.7,-290.89 -84.88,-422.28 -298.04,-545.36 -126.09,-72.82 -135.48,-47.15 -204.79,-168.72 74.69,-116.27 371.39,-240.64 569.97,-355.08 178.85,-103.07 412.12,-169.86 503.78,-397.63 53.49,-132.91 -12.91,-435.39 33.49,-568.05 25.92,-74.1 103.65,-92.7 190.1,-110.81 92.1,-19.28 152.41,-37.26 230.08,-70.97 169.14,-73.41 241.55,-141.44 350.67,-250.49 158.01,-157.92 275.19,-375.61 286.1,-618.8 11.54,-256.72 10.26,-111.98 32.9,-265.03 602.77,-90.5 623.61,-39.53 949.21,281.72 278.66,274.94 184.04,97.94 262.24,506.36 49.06,256.31 271.22,459.42 508.7,526.84 480.96,136.52 1076.46,-616.64 514.25,-1082.43 -391.81,-324.61 -599.06,-68.23 -782.03,-88.33 -130.46,-14.34 -435.53,-386.08 -556.68,-477.32 -252.85,-190.44 -552.66,-58.74 -892.52,-126.48 -57.97,-320.75 -11.4,-369.01 -43.31,-575.51 -22.04,-142.65 -123.32,-321.64 -195.07,-405.55 -415.76,-486.21 -669.91,-221.66 -713.78,-487.89 -54.77,-332.35 75.71,-1409.32 -72.6,-1733.62 -159.3,-348.36 -693.58,-634.46 -1014.15,-806.18 -80.85,-43.32 -129.37,-52.64 -190.26,-110.83 -96.05,-91.78 -47.43,-67.83 -208.01,-91.91 -171.04,-25.65 -412.86,-10.94 -592.5,-10.98 -656.45,-0.13 -5139.31,-24.41 -5414.87,18.57 -105.04,16.39 -124.02,58.5 -192.1,106.59 -127.86,90.29 -669.02,297.07 -939.79,563.45 -301.61,296.69 -290.22,386.49 -289.9,933.58 0.1,186.75 22.09,1083.31 -16.21,1181.96 -24.44,62.93 -13.85,51.64 -74.6,77.14 -37.19,15.61 -75.26,19.71 -121.19,27.99 -292.14,52.75 -552.31,299.23 -663.94,538.65 -186.36,399.7 -44.98,538.85 -135.35,768.07z"/>
  <path class="fil0" d="M9907.05 6055.88c-286.37,0 -534.59,294.7 -534.59,501.18 0,403.24 251.38,438.38 334.12,551.3l-1422.05 382.22c-433.09,127.57 -569.94,-4.81 -1106.39,-159.23l-1484.8 -419.7c-127.93,-36.58 -246.15,-68.6 -374.42,-110.05 -178.95,-57.82 -211,-50.03 -235.83,-248.66 -31.99,-255.86 92.33,-454.36 -264.42,-687.83 -201.29,-131.73 -574.32,-242.93 -616.94,-352.01 -23.49,-60.15 -8.18,-1697.43 -8.18,-1913.03l16.71 0c0,120.72 75.03,248.83 117.51,333.55 49.99,99.68 53.14,239.4 73.48,377.58 54.49,369.88 67.5,576.85 258.91,877.12 354.03,555.35 1121.84,483.33 1705.19,483.33 421.4,0 851.47,-115.47 1095.93,-441.05 124.91,-166.33 164.55,-315.92 229.85,-538.63 30.81,-105.11 45.65,-203.74 65.42,-318.82 53.54,-311.71 22.15,-271.89 279.42,-271.89 83.12,0 82.69,205.43 98.56,285.69 50.62,255.98 154.99,663.99 306.15,846.57 412.66,498.45 986.39,438.13 1616.74,438.13 398.78,0 783.36,-74.25 1040.27,-329.64 147.63,-146.75 193.91,-242.27 267.89,-417.06 57.8,-136.59 104.15,-428.72 128.65,-573.01 58.98,-347.29 0.75,-250.49 150.55,-551.11l66.53 -167.35 0.24 1687.55c2.34,324.62 -149.03,283 -618.37,517.67 -122.78,61.39 -681.45,345.23 -780.11,355.93 -112.83,12.24 -247.19,-138.75 -406.02,-138.75zm-5624.11 -2489.22c-44.38,-229.3 129.93,-410.61 249.5,-479.57 251.85,-145.28 1052.7,-108.69 1381.84,-108.78 221.67,-0.05 538.18,-17.89 748.45,7.14 942.15,112.13 745.81,298.7 1113.41,373.02 521.73,105.48 529.35,-235.44 1122.1,-333.06 377.85,-62.22 1728.71,-74.82 2173.21,-21.84 548.8,65.42 672.7,396.41 455.9,830.7 -190.45,381.5 -53.55,1228.59 -672.95,1581.73 -343.71,195.97 -846.18,174.36 -1315.19,173.33 -505.28,-1.11 -844.64,-168.75 -1050.42,-437.42 -121.29,-158.36 -236.01,-599.65 -276.72,-825.67 -19.71,-109.37 -15.1,-241.88 -92.72,-291.79 -59.9,-38.51 -240.27,-39.85 -313.03,-12.83 -103.37,38.37 -99.98,148.17 -121.62,263.07 -120.17,638.16 -214.78,1118.12 -971.19,1267.4 -324.22,63.99 -1097.58,59.3 -1407.56,-24.15 -408.91,-110.08 -614.97,-353.54 -734.53,-751.91 -102.36,-341.05 -64.71,-697.61 -187.98,-931.31 -42.67,-80.91 -80.11,-172.85 -100.47,-278.08zm-89.4 -167.07c0,-276.31 -12.89,-245.81 207.72,-393.69 52.59,-35.25 116.24,-97.77 155.4,-145.32 58.92,-71.56 71.24,-120.72 71.24,-246.18 147.09,169.22 145.12,183.77 300.72,183.77 129.1,0 257.32,-225.56 314.69,-303.44 50.64,-68.71 104.93,-95.85 172.39,-145.02 65.23,-47.54 117.33,-90.46 164.87,-152.55 183.19,-239.3 62.49,-286.33 221.03,-413.8 83.36,-67.01 310.9,-153.4 424.53,-210.31 366.63,-183.61 314.59,-106.77 863.15,167.07 147.8,73.78 275.47,137.73 423.22,211.61 477.99,238.99 440.67,236.3 902.14,5.57l835.08 -434.59c182.7,-93.92 255.11,-45.28 456.87,55.91 66.69,33.46 133.22,67.49 200.22,100.48 281.15,138.48 243.95,64.31 311.27,323.57 76.8,295.75 358.45,360.58 446.46,505.79 191.75,316.38 352.89,430.48 597.29,140.92l15.14 -18.27c0,121.97 16.34,148.63 66.31,217.69 143.34,198.1 267.84,204.39 318.35,283.08 45.53,70.93 49.7,133.07 49.7,251.02l-16.71 0c0,-152.57 -112.45,-267.29 -200.06,-334.54 -123.37,-94.7 -213.98,-111.92 -403.91,-130.69 -574.03,-56.71 -1892.12,-83.38 -2440.36,77.17 -284.58,83.33 -423.26,293.96 -699.29,301.55 -399.25,10.96 -421.91,-414.68 -1585.65,-414.68 -462.38,0 -1320.58,-25.49 -1733.73,70.53 -152.12,35.36 -297.06,150.45 -371.07,280.47 -17.65,30.99 -22.47,42.53 -35.51,81.44 -1.61,4.81 -10.99,36.07 -11.78,38.34l-14.36 35.76c-1.07,2.53 -3.12,7.82 -5.35,11.35zm6882.95 -1637.21l-16.71 -16.7 16.71 16.7zm-6231.41 -16.7l-16.71 16.7 16.71 -16.7zm6214.7 0zm-6181.29 -16.71l6181.29 16.71zm-6181.29 -16.71l-33.41 16.71 33.41 -16.71zm6131.17 -16.7zm-6114.46 0l6114.46 0zm-6114.46 0l-16.71 16.7 16.71 -16.7zm6114.46 0l-16.7 -16.71 16.7 16.71zm-16.7 -16.71l-16.71 -16.71 16.71 16.71zm-16.71 -16.71l-16.71 -16.7 16.71 16.7zm-16.71 -16.7l-16.7 -16.71 16.7 16.71zm-6064.34 50.12l83.53 -83.54c-14.52,54.4 -29.14,69 -83.53,83.54zm6047.64 -66.83l-16.71 -16.71 16.71 16.71zm-33.42 -50.12l16.71 33.41 -16.71 -33.41zm-5930.69 33.41c11.42,-47.67 -2.54,-25.13 33.41,-50.12 -11.41,47.68 2.54,25.14 -33.41,50.12zm5930.69 -33.41zm-5897.28 -16.71l5897.28 16.71zm-5897.28 -16.71l9.19 -35.92 -9.19 35.92zm-668.25 -66.82c46.96,54.03 69.8,136.33 180.67,220.29 147.27,111.52 246.07,43.75 303.81,30.29 -32.62,48.71 -64.48,68.23 -104.43,112.74l-96.04 137.85c-28.23,-121.19 -72.01,-162.48 -135.91,-248.32 -57.33,-77.01 -145.48,-135.86 -148.09,-252.86zm6732.6 250.59c340,79.22 381.48,-132.09 484.48,-250.59 -17.39,208.86 -250.26,279.71 -267.31,484.48l-33.41 0c-14.69,-55.02 -42.61,-80.11 -75.95,-124.53 -48.75,-64.98 -75.13,-64.74 -107.81,-109.36zm-200.48 -217.18l4.99 4.98c-0.33,-0.32 -6.64,-3.32 -4.99,-4.98zm-5847.16 -50.12c-5.99,-31.62 21.03,-59.41 10.56,-10.57 -0.24,1.14 0.48,68.9 -10.56,10.57zm-684.96 16.71c-22.24,-35.07 -16.7,-93.81 -16.7,-133.65l16.7 133.65zm291.87 -330.23c133.35,-65.82 263.98,95.06 299.92,190 57.23,151.24 -102.83,289.85 -190.26,325.26 -165.54,67.04 -537.05,-304.32 -109.67,-515.26zm6515.47 0.14c123.74,-77.66 271.15,108.54 305.79,183.55 61.38,132.92 -91.53,284.64 -174.82,318.94 -154.19,63.49 -580.48,-220.4 -130.97,-502.5zm-6122.38 163.04c19.82,31.22 18.79,-37.31 13.78,33.41 -2.52,35.65 -2.06,14.93 -13.78,33.41l0 -66.82zm6515.41 -16.71l19.21 32.58 -19.21 -32.58zm-668.25 -16.71l4.99 4.98c-0.33,-0.32 -6.64,-3.31 -4.99,-4.98zm16.71 -33.41l4.99 4.98c-0.33,-0.32 -6.65,-3.32 -4.99,-4.98zm33.41 -33.41zm-5964.11 -16.71l5964.11 16.71zm-5964.11 -16.71c47.88,32.07 60.63,42.42 66.83,116.95l-34.86 -48.68c-16.45,-27.13 -21.75,-29.99 -31.97,-68.27zm5980.82 0l-16.71 16.71 16.71 -16.71zm16.7 -16.71l-16.7 16.71 16.7 -16.71zm-5997.52 16.71l-16.7 -16.71 16.7 16.71zm6014.23 -33.41l-16.71 16.7 16.71 -16.7zm16.71 -16.71l-16.71 16.71 16.71 -16.71zm-6047.64 33.41l-33.42 -33.41c54.69,10.11 23.3,-21.27 33.42,33.41zm6064.34 -50.12l-16.7 16.71 16.7 -16.71zm-6097.76 16.71l-16.7 -16.71 16.7 16.71zm6632.36 150.36l-70.69 -96.38c-34.64,-37.03 -51.68,-45.58 -79.67,-87.39 69.73,18.62 143.38,99.97 150.36,183.77zm-534.6 -167.07zm-6114.46 0l6114.46 0zm-6114.46 0l-16.71 -16.7 16.71 16.7zm6498.7 -16.7zm-6515.41 0l6515.41 0zm-6515.41 0zm-350.83 -16.71l350.83 16.71zm-350.83 -16.71c-66.38,99.13 -57.33,28.11 -156.47,194.36 -20.89,35.04 -5.62,14.58 -27.3,39.53 1.84,-82.68 17.42,-93.63 62.02,-138.47 40.18,-40.4 63.1,-79.76 121.76,-95.42zm6532.11 -16.7l4.99 4.97c-0.33,-0.31 -6.64,-3.31 -4.99,-4.97zm-6532.11 16.7zm5470.63 5947.54l-5470.63 -5947.54zm5470.63 5947.54c-330.46,-12.35 -668.28,-315.75 -487.86,-664.39 52.44,-101.33 205.22,-259.39 365,-269.96 183.26,-12.12 273.27,174.34 469.48,137.22 197.83,-37.43 884.52,-427.52 1084.28,-503.82 81.39,-31.09 153.13,-54.27 219.16,-97.8 182.28,-120.15 144.53,-211.24 144.61,-489.18l0.65 -1888.64c-2.29,-272.8 -161.62,-290.76 -258.48,-373.89 -156.6,-134.41 -176.5,-177.36 -176.35,-460.59 0.13,-225.86 -32.47,-399.99 70.2,-566.67 89.52,-145.33 200.1,-168.12 226.28,-407.99 69.81,-639.72 -941.26,-654.71 -875.7,3.28 42.46,426.2 433.44,182.9 431.85,837.85 -0.28,115.27 28.29,192.39 -21.48,263.21 -125.39,178.41 -234.11,168.5 -362.16,2.04 -47.57,-61.83 -79.73,-143.66 -125.78,-191.37 -122.1,-126.45 -216.93,-128.38 -336.53,-298.76 -127.52,-181.68 -18.01,-280.62 -220.76,-414.58 -57.5,-37.99 -148.1,-68.68 -214.49,-102.18 -525.64,-265.22 -498.06,-289.16 -1112.16,53.32 -131.65,73.41 -273.4,149.84 -414.18,220.12 -486.4,242.82 -414.86,227.32 -891.87,-10.84 -143.62,-71.7 -281.74,-139.54 -422.4,-211.98 -128.49,-66.19 -283.75,-158.35 -419.13,-215.68 -207.36,-87.81 -302.58,-20.58 -466.07,60.21 -126.33,62.43 -321.42,136.84 -427.55,207.02 -205.98,136.19 -112.56,224.09 -231.97,403.49 -117.96,177.23 -214.1,170.26 -337.56,297.61 -79.74,82.27 -177.96,323.57 -312.08,323.03 -71.63,-0.28 -156.39,-97.25 -178.96,-138.55 -35.42,-64.81 -22.24,-205.74 -22.5,-296.37 -1.7,-581.19 431.15,-364.7 435.57,-835.13 1.69,-179.6 -71.31,-310.81 -223.75,-395.34 -244.31,-135.45 -732.24,0.72 -654.09,488.15 24.1,150.29 175.65,272.49 247.37,386.77 70.31,112.05 75.12,754.58 -0.25,861.33 -173.52,245.7 -399.98,166.59 -400.43,546.03l0.73 1888.49c0.23,500.07 9.21,377.08 590.81,673.83 547.68,279.44 163.36,683.09 379.57,889.13 123.11,117.32 740.96,237.63 964.45,305.87 328.6,100.34 652.69,192.04 982.11,287.34 216.27,62.57 795.3,269.98 1001.26,260.88 166.68,-7.37 1275.05,-322.64 1510.93,-390.45l356.64 -110.41c26.21,-12.03 30.13,-13.96 55.61,-27.53l46.24 -26.69c2.77,-1.69 7.98,-4.79 11.78,-7.45z"/>
  <g>
   <path class="fil1" d="M10364.83 6797.44c127.92,-76.34 1107.15,-483.09 1250.21,-511.3 -53.72,95.52 -581.02,447.75 -660.8,499.53 -321.67,208.74 -1363.06,473.51 -589.41,11.77zm-424.55 311.79c-25.48,13.57 -29.4,15.49 -55.61,27.53l-356.64 110.41c-235.88,67.81 -1344.25,383.08 -1510.93,390.45 -205.96,9.1 -784.99,-198.31 -1001.26,-260.88 -329.42,-95.3 -653.51,-187 -982.11,-287.34 -223.49,-68.24 -841.34,-188.55 -964.45,-305.87 -216.21,-206.04 168.11,-609.69 -379.57,-889.13 -581.6,-296.75 -590.58,-173.76 -590.81,-673.83l-0.73 -1888.49c0.44,-379.44 226.91,-300.33 400.43,-546.03 75.37,-106.75 70.56,-749.28 0.25,-861.33 -71.72,-114.28 -223.27,-236.48 -247.37,-386.77 -78.15,-487.43 409.77,-623.6 654.09,-488.15 152.45,84.53 225.44,215.74 223.75,395.34 -4.42,470.43 -437.26,253.94 -435.57,835.13 0.26,90.63 -12.92,231.56 22.5,296.37 22.57,41.3 107.32,138.26 178.96,138.55 134.13,0.54 232.35,-240.76 312.08,-323.03 123.46,-127.35 219.6,-120.38 337.56,-297.61 119.41,-179.41 25.99,-267.31 231.97,-403.49 106.13,-70.18 301.23,-144.6 427.55,-207.02 163.49,-80.79 258.71,-148.03 466.07,-60.21 135.38,57.33 290.64,149.49 419.13,215.68 140.66,72.44 278.78,140.28 422.4,211.98 477.01,238.16 405.46,253.66 891.87,10.84 140.78,-70.28 282.54,-146.7 414.18,-220.12 614.1,-342.49 586.53,-318.54 1112.16,-53.32 66.39,33.5 156.99,64.19 214.49,102.18 202.75,133.95 93.24,232.9 220.76,414.58 119.59,170.38 214.42,172.3 336.53,298.76 46.05,47.71 78.21,129.54 125.78,191.37 128.05,166.46 236.78,176.37 362.16,-2.04 49.78,-70.82 21.2,-147.94 21.48,-263.21 1.6,-654.95 -389.39,-411.65 -431.85,-837.85 -65.56,-657.99 945.5,-643.01 875.7,-3.28 -26.18,239.87 -136.76,262.66 -226.28,407.99 -102.67,166.68 -70.07,340.81 -70.2,566.67 -0.15,283.23 19.75,326.18 176.35,460.59 96.86,83.13 256.18,101.08 258.48,373.89l-0.65 1888.64c-0.08,277.94 37.67,369.02 -144.61,489.18 -66.03,43.52 -137.76,66.71 -219.16,97.8 -199.76,76.3 -886.45,466.39 -1084.28,503.82 -196.2,37.12 -286.22,-149.34 -469.48,-137.22 -159.78,10.57 -312.55,168.64 -365,269.96 -180.42,348.64 122.94,614.58 453.4,626.93l-23.55 71.59zm1900.01 -1015.05c-58.66,12.62 -110.43,43.46 -175.67,62.02 -369.56,105.11 -876.1,351.07 -1232.76,506.38 -46.63,20.31 -89.27,43.85 -128.97,68.56 -214.41,133.48 -342.94,301.25 -548.94,178.5 -256.77,-152.99 -265.15,-442.08 -26.15,-615.23 296.91,-215.13 363.92,219.49 752.75,36.27l1012.27 -476.33c169.44,-76.9 371.4,-151.98 388.13,-349.35l1.45 -2223.07c-4.56,-380.75 -297.75,-340.85 -414.32,-573.68 -48.46,-96.8 -20.04,-334.86 -21.05,-461.46 -3.67,-456.73 237.75,-352.92 290.35,-693.06 105.66,-683.13 -750.79,-865.54 -1006.81,-337.95 -55.7,114.77 -61.74,305.71 -4.91,430.19 129.89,284.49 390.36,242.73 388.79,600.62 -0.88,200.1 27.04,303.43 -121.48,368.52 -113.6,-67.27 -174.56,-248 -295.26,-340.37 -66.76,-51.1 -127.7,-76.02 -185.51,-131.86 -180.19,-174.03 -104.33,-295.57 -195.2,-421.98 -86.49,-120.32 -457.92,-270.76 -602.42,-334.55 -168.56,-74.4 -287.84,-145.23 -499.82,-47.41 -241.02,111.22 -1105.43,613.18 -1260.86,605.61 -105.45,-5.15 -722.86,-333.96 -852.24,-399.47 -449.8,-227.73 -505.26,-344.32 -907.58,-155.39 -147.34,69.19 -283.7,127.87 -431.39,205.49 -62.66,32.94 -132.13,86.84 -172.46,143.95 -56.13,79.48 -46.16,129.47 -79.53,223.57 -84.82,239.24 -317.6,245.77 -459.79,490.2 -166.04,285.42 -266.29,96.82 -266.14,-71.65 0.43,-497.56 72.93,-314.3 336.06,-627.18 192.99,-229.48 115.52,-704.7 -252.83,-818.8 -380.16,-117.76 -707.04,133.98 -712.64,492.69 -3.82,244.84 91.88,311.22 191.16,448.47 135,186.6 101.98,260.41 100.78,520.8 -1.23,265.88 12.11,342.33 -166.77,471.12 -136.51,98.29 -253.39,151.7 -266.6,364.27 -25.19,405.29 -1.19,1383.04 0.2,1887.72 0.47,174.52 -42.39,435.34 69.55,544.78 189.27,185.01 625.6,266.19 771.51,480.91 219.85,323.55 -237.91,630.98 433.98,833.94 657.94,198.75 1307.78,363.97 1950.01,557.96 320.76,96.89 662.52,249.01 1018.43,145.62 329.99,-95.87 663.4,-169.2 996.03,-261.22 323.2,-89.4 666.98,-186.94 978.95,-276.97 352.07,-101.59 599.47,-157.58 885.08,-363.29l567.86 -384.3c73.73,-62.89 70.92,-88.5 162.09,-136.93l-7.3 -166.64z"/>
  </g>
  <path class="fil1" d="M12500.2 7786.72c-75.56,-55.71 -83.21,-127.96 -154.25,-193.56 -253.62,-234.15 -386.27,-301.35 76.91,-459.93l1522.6 -516.08c116.45,-38.07 161.27,-26.8 224.14,54.73 59.67,77.38 28.7,192.16 18.58,290.05 -42.66,412.78 -50.3,837.84 -82.94,1249.32 -12.94,163.02 11.1,517.22 -70.75,618.5 -155.74,192.73 -300.76,-191.81 -604.45,-318.76 -221.25,-92.47 -631.92,581.87 -926.7,725.73 -244.96,119.55 -1541.95,-39.54 -1919.27,85.57 -44.24,252.29 -29.24,508.34 -29.57,776.49 -0.43,358.81 -41.33,396.46 -396.86,396.19l-1202.85 -0.64c-346.95,-0.39 -179.89,17.62 -367.47,35.58 -6.72,95.74 -26.26,99.12 -33.66,170.75l-0.97 584.25c0.45,306.64 21.26,443.73 -332.93,441.1 -256.02,-1.91 -512.45,-0.13 -768.52,-0.3 -896.54,-0.6 -754.76,-106.31 -753.93,762.06 0.17,172.73 61.03,520.41 -184.51,560.95 -103.22,17.04 -897.48,2.06 -1116.43,1.35 -284.16,-0.92 -123.06,5.69 -333.85,38.93 -8.55,115.53 -34.67,123.17 -33.57,267.23 1.34,173.5 28.99,423.66 -55.34,513.41 -136.42,145.18 -506.88,120.84 -514.2,-161.29 -4.83,-186.05 0.43,-381.77 0.17,-569.04 -0.29,-214.6 -32.63,-413.35 68.88,-517.25 63.38,-64.87 101.11,-73.58 215.83,-73 272.27,1.38 1283.87,38.04 1370,-44.45l27.68 -73.47c13.25,-41.77 14.82,-39.15 19.31,-78.72l1.76 -599.72c-0.66,-210.82 -77.52,-536.17 268.32,-535.87l1203.66 0.71c332.05,0.53 182.72,-21.6 349.9,-34.63 30.23,-229.79 37.51,-23.5 37.24,-382.46 -0.11,-143.63 -26.75,-701.96 25.59,-790.9 61.48,-104.49 125.1,-123.83 271.76,-122.67 272.76,2.14 546.23,0.2 819.07,0.21 256.92,0.01 549.55,35.69 775.22,-46.87 13.24,-121.94 37.76,-106.99 36.53,-258.94l-0.5 -585.24c-2.98,-366.57 214.87,-309.15 558.65,-309.93 189.34,-0.42 378.67,-1.1 568.01,-1.84 575.38,-2.26 568.19,40.22 882.75,-275.47 217.2,-217.98 404.68,-367.97 540.96,-622.06zm-1106.3 806.29l-1236.26 1.51c-115.74,0.36 -173.83,65.32 -226.98,124.99 -86.68,97.37 -74.51,128.44 -73.87,293.32 0.54,137.84 20.06,631.01 -13.2,718.41 -21.61,38.58 -35.1,42.17 -81.24,55.9 -45.37,13.5 -82.59,10.99 -138.82,10.65 -213.26,-1.25 -1392.15,-11.87 -1464.47,7.4 -63.56,16.93 -129.34,74.06 -164.29,119.02 -95.02,122.2 -61.34,227.95 -61.27,475.28 0.07,247.35 31.74,532.03 -40.18,692.66 -281.19,92.34 -1438.84,-40.78 -1629.52,41.98 -266.59,115.72 -200.18,389.71 -200.08,635.25 0.06,139.2 -0.68,278.61 0.13,417.77 1.72,297.83 -50.1,266.85 -333.34,266.76l-1069.2 -0.11c-139.73,0 -287.24,152.57 -287.5,301.25l0.03 985.67c0.05,157.22 144.15,301 304.18,301.04 229.26,0.05 454.49,-10.53 451.89,-367.66 -0.86,-116.98 -1.49,-235.06 -1.04,-352 0.92,-241.35 138.71,-181.23 618.36,-181.14 46.31,0 38.39,10.58 84.73,11.65 55.81,1.29 50.71,-11.8 99.02,-11.79l467.78 0.16c135.05,4.93 170.46,29.49 267.09,-51.68 67.93,-57.06 120.44,-114.28 120.45,-250.71l-0.26 -868.72c0.02,-195.54 230.91,-149.76 431.33,-149.84l1185.3 -2.09c68.87,-9.94 153.42,-76.47 182.77,-117.26 87.65,-121.78 54.38,-324.88 54.37,-549.41 -0.01,-96.43 -38.55,-486.34 63.39,-536.8 121.24,-60.03 821.73,-29.66 1053.51,-29.43l551.3 0.27c295.12,0.03 351.62,-183.18 350.93,-419.7 -0.73,-248.98 -13.32,-523.09 17.06,-768.04 48.95,-11.41 84.28,-31.8 133.19,-31.82l1486.85 0.02c241.97,0.05 358.83,-110.49 476.52,-227.2 88.05,-87.31 454.8,-477.76 548.4,-522.67 203.53,-97.66 452.02,404.12 641.73,377.25 209.53,-29.68 216.48,-329.65 222.65,-480.8l103.17 -1671.15c4.83,-169.74 4.19,-200.58 -88.22,-283.89 -137.12,-123.6 -264.35,-37.42 -520.3,47.28l-1319.87 450.67c-109.82,21.14 -187.33,54.64 -255.55,112.22 -212.54,179.43 -13.45,307.76 98.85,417.83 277.03,271.57 203.74,245.52 -323.16,777.93 -134.32,135.74 -222.66,229.76 -486.34,229.76z"/>
  <path class="fil0" d="M12496.5 9545.03c292.54,-0.87 314.43,-91.34 489.96,-192.32 183.9,-105.8 345.54,-27.44 471.05,85.46 255.06,229.46 356.36,492.58 359.28,978.02l0.23 1303.08c-0.08,563.23 -146.55,990.27 -647.3,1274.37 -238.9,135.53 -517.87,125.52 -841.32,128.5 -214.3,1.97 -212.49,69.51 -211.39,267.51l0.13 2389.22c0,314.93 40.94,637.49 -123.15,850.37 -91.57,118.8 -336.36,274.85 -432.45,286.02l-6799.99 2.93c-289.76,-0.11 -374.92,-120.97 -562.4,-276.98 -96.66,-80.44 -125.01,-238.53 -125.01,-377.85l0.34 -1637.21c0,-158.05 132.82,-317.71 269.4,-317.68l902.14 -0.07c298.91,0.25 -32.26,-625.27 251.31,-851.27 130.79,-104.24 285.1,-70.35 483.76,-70.34 1245.35,0.02 1085.89,123.8 1085.77,-531.5 -0.05,-345.73 -56.02,-552.67 128.24,-690.44 102.06,-76.31 71.43,-46.08 189.05,-46.06l1052.76 -0.25c533.11,-0.11 562.36,51.17 560.73,-265.31 -0.81,-159.18 -27.27,-718.57 34.91,-824.89 45.29,-77.44 130.11,-165.93 256.37,-166.02l1219.55 -0.29c248.72,-0.11 320.78,32.6 364.7,-131.15 15.74,-58.67 38.55,-160.31 47.29,-219.25 30.4,-205.04 -66.03,-325.31 -37.57,-488.89 52.07,-299.46 282.1,-476.08 627.96,-476.98l985.66 -0.74zm-1704.03 537.03c0,142.45 123.73,387.99 -33.42,684.96 -272.38,0 -1427.99,-35.09 -1580.06,23.72 -26.03,10.07 -106.67,58.38 -126.99,73.49 -149.3,111 -147.54,287.81 -147.33,454.08l1.71 603.13c-1.15,87.05 -18.93,115.25 -101.93,115.25l-1303.08 0c-109.22,0 -349.3,-83.84 -496.77,221.6 -58.23,120.6 -16.51,710.93 -19.41,932.82 -1.08,81.87 -6.86,100.4 -70.97,112.8l-1151.08 2.79c-157.05,-1.22 -160.88,-26.81 -280.57,52.4 -413.83,273.9 -7.52,854.54 -284.92,867.82 -235.12,11.26 -513.57,-1.14 -753.53,-1.75 -175.05,-0.45 -206.67,-8.65 -304.92,79.31 -54.44,48.76 -146.12,145.4 -146.12,238.13 0,296.85 -27.27,1769.79 24.93,1946.38 46.67,157.85 14.49,151.52 256.18,345.26l252.52 148.43c54.02,22.49 278.7,32.45 368.51,32.45 679.82,0 6497.95,28.53 6729.01,-20.3 33.12,-7 116.45,-61.33 165.21,-85.37 315.76,-155.69 423.59,-406.74 423.09,-813.17 -1.09,-888.05 12.68,-1839.97 -0.57,-2723.68 -1.64,-109.17 -16.5,-153.72 84.62,-165.98 343.89,-41.68 568.8,95.64 1028.71,-207.54 64.6,-42.58 86.58,-69.38 140.31,-110.28 58.74,-44.72 187.75,-203.35 230.69,-270.48 69.29,-108.31 118.71,-208.27 153.99,-347.2 82.8,-326.04 49.56,-1478.03 49.56,-1871.64 0,-351.73 -32.82,-544.44 -167.8,-767.74 -95.54,-158.08 -344.83,-418.4 -517.15,-418.4 -166.35,0 -198.06,-3.59 -372.22,128.97 -414.32,315.36 -1373.68,-54.08 -1761.88,226.15 -170.96,123.41 -288.3,280.51 -288.3,513.59z"/>
  <path class="fil1" d="M12070.39 13064.74c-46.45,288.77 -38.22,55.01 -38.27,425.39l-0.01 2405.69c-0.48,434.44 16.26,773.61 -437.96,889.19 -73.83,18.79 -29.01,12.09 -79.86,31.02 -85.94,31.98 -1292.15,13.98 -1440.17,14.09l-4828.09 -0.33c-160.16,0.01 -326.38,4.47 -485.73,0.61 -82.42,-2 -284.8,-73.98 -357.68,-124.75 -238.3,-165.99 -241.14,-326.28 -240.88,-709.59 0.1,-144.57 -17.84,-1361.48 10.88,-1442.09 48.37,-135.8 154.6,-155.41 321.51,-154.7l719.46 0.88c106.57,-2.3 106.37,-27.7 219.37,-36.21 5.52,-141.61 34.52,-62.21 33.15,-289 -1.35,-224.51 -38.99,-453.74 93.47,-555.05 82.82,-63.35 157.99,-45.8 287.86,-45.84 217.19,-0.08 434.37,-0.03 651.55,0.04 111.37,0.03 222.84,-0.47 334.19,0.2 156.97,0.95 157.78,-10.78 293.91,-41.93 104.08,-382.43 -18.34,-962.47 80.04,-1105.98 71.9,-104.86 138.79,-111.63 294.14,-110.45l1384.02 -2.39c52.66,-6.69 85.3,-24.94 159.9,-35.26 25.63,-199.87 37.39,-9.1 37.1,-358.75 -0.11,-133.66 -0.07,-267.31 -0.09,-400.95 -0.1,-572.22 5.88,-470.44 1142.25,-470.81 133.64,-0.05 267.39,-0.84 401.01,-0.32 339.97,1.33 319.54,-10.74 383.19,-418.36 25.43,-162.86 -5.09,-224.73 -30.8,-367.62 -42.77,-237.64 129.36,-437.88 299.4,-494.05 327.68,-108.24 1255.2,55.06 1523.81,-82.75 190.74,-97.86 295.62,-300.23 546.06,-119.31 143.24,103.48 265.3,259.18 326.59,475.74 87.3,308.45 46.16,1181.34 46.2,1561.02 0.06,573.64 -2.84,910.84 -363.13,1244.41 -418.76,387.69 -837.98,247.48 -1124.99,283.77 -57.79,7.3 -74.64,25.96 -161.4,34.47zm426.11 -3519.71l-985.66 0.74c-345.86,0.89 -575.89,177.51 -627.96,476.98 -28.45,163.59 67.98,283.85 37.57,488.89 -8.74,58.94 -31.55,160.58 -47.29,219.25 -43.93,163.75 -115.98,131.04 -364.7,131.15l-1219.55 0.29c-126.26,0.09 -211.08,88.58 -256.37,166.02 -62.18,106.32 -35.72,665.71 -34.91,824.89 1.63,316.47 -27.62,265.2 -560.73,265.31l-1052.76 0.25c-117.62,-0.02 -86.99,-30.24 -189.05,46.06 -184.26,137.76 -128.29,344.71 -128.24,690.44 0.12,655.29 159.58,531.52 -1085.77,531.5 -198.65,-0.01 -352.97,-33.9 -483.76,70.34 -283.57,226.01 47.6,851.53 -251.31,851.27l-902.14 0.07c-136.59,-0.03 -269.4,159.63 -269.4,317.68l-0.34 1637.21c0,139.32 28.35,297.41 125.01,377.85 187.47,156.01 272.64,276.87 562.4,276.98l6799.99 -2.93c96.09,-11.16 340.89,-167.21 432.45,-286.02 164.09,-212.88 123.15,-535.45 123.15,-850.37l-0.13 -2389.22c-1.1,-198 -2.9,-265.54 211.39,-267.51 323.44,-2.98 602.41,7.03 841.32,-128.5 500.75,-284.09 647.22,-711.14 647.3,-1274.37l-0.23 -1303.08c-2.92,-485.44 -104.23,-748.57 -359.28,-978.02 -125.5,-112.9 -287.14,-191.26 -471.05,-85.46 -175.54,100.98 -197.42,191.45 -489.96,192.32z"/>
  <path class="fil0" d="M11393.9 8593.01c263.68,0 352.01,-94.03 486.34,-229.76 526.9,-532.41 600.19,-506.36 323.16,-777.93 -112.29,-110.07 -311.39,-238.4 -98.85,-417.83 68.21,-57.59 145.72,-91.09 255.55,-112.22l1319.87 -450.67c255.96,-84.7 383.19,-170.88 520.3,-47.28 92.42,83.31 93.05,114.15 88.22,283.89l-103.17 1671.15c-6.16,151.15 -13.11,451.12 -222.65,480.8 -189.71,26.87 -438.21,-474.91 -641.73,-377.25 -93.6,44.91 -460.35,435.35 -548.4,522.67 -117.68,116.71 -234.54,227.25 -476.52,227.2l-1486.85 -0.02c-48.9,0.02 -84.23,20.41 -133.19,31.82 -30.38,244.95 -17.79,519.06 -17.06,768.04 0.69,236.52 -55.81,419.73 -350.93,419.7l-551.3 -0.27c-231.78,-0.23 -932.26,-30.6 -1053.51,29.43 -101.94,50.46 -63.4,440.37 -63.39,536.8 0.01,224.53 33.28,427.63 -54.37,549.41 -29.35,40.79 -113.9,107.32 -182.77,117.26l-1185.3 2.09c-200.42,0.08 -431.31,-45.7 -431.33,149.84l0.26 868.72c-0.01,136.43 -52.52,193.66 -120.45,250.71 -96.63,81.17 -132.04,56.61 -267.09,51.68l-467.78 -0.16c-48.32,-0.01 -43.21,13.08 -99.02,11.79 -46.35,-1.07 -38.43,-11.65 -84.73,-11.65 -479.65,-0.09 -617.44,-60.21 -618.36,181.14 -0.45,116.94 0.18,235.02 1.04,352 2.61,357.14 -222.63,367.71 -451.89,367.66 -160.02,-0.04 -304.13,-143.82 -304.18,-301.04l-0.03 -985.67c0.26,-148.67 147.77,-301.25 287.5,-301.25l1069.2 0.11c283.24,0.09 335.07,31.08 333.34,-266.76 -0.8,-139.17 -0.07,-278.58 -0.13,-417.77 -0.11,-245.54 -66.52,-519.53 200.08,-635.25 190.69,-82.76 1348.33,50.35 1629.52,-41.98 71.93,-160.63 40.25,-445.31 40.18,-692.66 -0.07,-247.33 -33.75,-353.08 61.27,-475.28 34.96,-44.95 100.74,-102.09 164.29,-119.02 72.32,-19.27 1251.21,-8.65 1464.47,-7.4 56.23,0.33 93.46,2.85 138.82,-10.65 46.14,-13.73 59.63,-17.32 81.24,-55.9 33.26,-87.4 13.74,-580.57 13.2,-718.41 -0.65,-164.87 -12.82,-195.95 73.87,-293.32 53.15,-59.67 111.23,-124.63 226.98,-124.99l1236.26 -1.51zm534.59 -1300.88c0,198.7 19.2,163.43 163.18,304.6 79.31,77.77 126.07,121.34 187.66,213.31 -95.61,110 -9.13,34.18 -196.3,221.35 -121.81,121.81 -315.77,331.44 -447.8,420.92 -81.41,55.16 -252.45,60.3 -374.76,59.61 -283.93,-1.63 -568.26,-0.23 -852.23,-0.23 -127.79,0 -318.79,-24.78 -405.51,28.85 -348.16,215.32 -219.96,474.21 -227.61,1058.76 -1.98,150.22 -70.48,115.26 -319.12,115.23 -273.42,-0.02 -1156.09,-18.52 -1301.64,1.45 -101.07,13.87 -204.89,111.12 -251.59,182.77 -106.79,163.85 -50.57,135.8 -50.57,350.38 0,187.18 20.01,610.89 -16.7,768.48 -384.25,31.98 -1490.28,-0.51 -1580.28,23.52 -84.77,22.64 -178.17,114.79 -221.38,179.57 -75.39,113.06 -52.75,173.94 -52.74,348.21 0.03,235.43 29.9,585.17 -16.7,785.2 -198.02,46.13 -986.07,14.66 -1303.99,15.79 -211.55,0.75 -383.33,198.18 -383.33,418.57l0 918.84c0,224.45 198.24,417.66 334.13,417.66l284.01 0c117.81,0 283.15,-171.31 310.6,-274.12 20.6,-77.15 6.81,-482.79 6.81,-594.61 164.46,-78.91 471.46,-0.49 737.49,-30.95 279.08,-31.96 599.06,76.78 761.65,-57 115.33,-94.9 171.48,-176.9 171.48,-379.82 0,-111.11 -15.4,-802.62 0,-868.72 407.03,-33.87 1057.41,-14.27 1487.76,-15.8 111.96,-0.39 156.07,-31.48 219.25,-81.46 198.79,-157.29 130.67,-331.13 130.67,-454.04 0,-101.63 -14.07,-589.56 25.04,-659.92 40.35,-72.59 466.5,-41.74 609.8,-41.74 284.01,0 568.01,-0.03 852.01,0 185.26,0.02 237.56,23.94 358.22,-59.44 72.89,-50.36 167.59,-154.02 176.44,-257.92 11.48,-134.78 -21.52,-801.15 7.72,-861.01 36.62,-74.95 276.09,-41.19 376.46,-41.19 334.33,0 1030.74,18.18 1285.94,-0.43 367.47,-26.8 821.58,-751.35 969.39,-751.35 57.55,0 94.64,55.78 129.78,87.41l250.58 217.2c174.13,155.29 353.3,61.94 448.79,-93.59 30.31,-49.38 54.52,-281.7 56.83,-360.82 4.32,-148.14 2.53,-256.43 20.84,-396.82l78.74 -1190.94c5.32,-123.5 35.76,-262.84 -16.45,-367.54 -57.03,-114.35 -184.2,-183.65 -317.55,-183.65 -84.53,0 -979.85,316.56 -1119.2,367.66l-558.76 193.01c-116.18,25.84 -143.33,15.97 -267.3,100.24 -59.37,40.36 -159.73,137.88 -159.73,224.52z"/>
  <path class="fil1" d="M11527.48 3583.37c-42.91,202.53 -145.76,270.38 -178.62,535.28 -70.88,571.18 -184.68,1217.97 -843.13,1332.82 -358.39,62.52 -1007.12,68.86 -1364.02,0.75 -873.5,-166.66 -741.59,-1092.98 -905.96,-1432.08 -38.55,-79.52 -7.18,-52.73 -103.82,-80.69 -98.21,-28.41 -374.81,-43.21 -445.93,45.94 -2.35,2.96 -57.35,102.54 -63.14,120.78 -50.97,160.58 -56.33,548.87 -222.18,879.09 -173.91,346.29 -462.53,456.27 -936.02,504.29 -366.08,37.13 -1050.62,14.33 -1334.53,-120.02 -605.78,-286.63 -493.8,-1175.13 -639.39,-1515.41 -72.43,-169.27 -194.27,-355.32 -51.37,-559.2 116.63,-166.41 260.83,-189.84 505.9,-208.88 488.66,-37.98 1698.29,-52.01 2093.27,44.45 471.38,115.12 586.97,424.61 1078.41,320.21 201.54,-42.82 306.98,-160.84 481.7,-240.3 475.23,-216.1 1490.43,-150.47 2027.28,-143.37 152.67,2.02 526.42,20.54 653.02,63.48 157.11,53.28 294.72,234.9 248.53,452.84zm-7244.54 -16.71c20.37,105.23 57.8,197.16 100.47,278.08 123.27,233.7 85.63,590.26 187.98,931.31 119.57,398.37 325.62,641.83 734.53,751.91 309.99,83.45 1083.35,88.14 1407.56,24.15 756.42,-149.28 851.02,-629.24 971.19,-1267.4 21.64,-114.9 18.25,-224.7 121.62,-263.07 72.77,-27.02 253.13,-25.68 313.03,12.83 77.62,49.9 73.01,182.42 92.72,291.79 40.71,226.02 155.43,667.31 276.72,825.67 205.78,268.67 545.14,436.31 1050.42,437.42 469.01,1.03 971.48,22.64 1315.19,-173.33 619.4,-353.14 482.49,-1200.23 672.95,-1581.73 216.8,-434.3 92.91,-765.28 -455.9,-830.7 -444.5,-52.98 -1795.36,-40.39 -2173.21,21.84 -592.75,97.62 -600.36,438.54 -1122.1,333.06 -367.59,-74.33 -171.25,-260.9 -1113.41,-373.02 -210.27,-25.03 -526.78,-7.19 -748.45,-7.14 -329.14,0.1 -1129.99,-36.5 -1381.84,108.78 -119.57,68.97 -293.88,250.27 -249.5,479.57z"/>
  <path class="fil0" d="M15212.57 3416.31c-125.85,361.95 -676.73,188.77 -551.72,-193.03 33.34,-101.84 181.35,-231.52 363.78,-177.28 140.68,41.83 240.15,220.17 187.94,370.31zm-2267.5 -1737.45c-0.33,-165.21 122.87,-291.35 286.51,-291.59 284.87,-0.42 384.36,332.65 200.09,508.42 -187.31,178.67 -486.08,42.26 -486.59,-216.82zm245.82 -530.97c-466.65,90.94 -667.37,559.31 -319.83,908.16 212.63,213.41 214.99,178.54 216.02,575.81 0.66,250.82 169.1,378.62 285.4,493.13 162.44,159.95 217.25,241.37 544.02,241.16 355.2,-0.24 400.4,-53.52 573.67,211.04 298.9,456.36 805.05,285.53 950.15,-89.65 159.44,-412.25 -360.35,-849.15 -753.05,-620.03 -171.35,99.97 -226.89,279.55 -502.76,279.14 -336.6,-0.5 -424.85,33.58 -631.73,-151.65 -173.28,-155.12 -242.98,-223.35 -239.76,-548.4 1.83,-185.02 48.82,-190.92 124.4,-261.29 69.88,-65.05 142.56,-110.24 210.7,-189.97 329.56,-385.68 -101.97,-916.66 -457.22,-847.43z"/>
  <path class="fil0" d="M685.73 3399.6c-73.08,-428.27 505.37,-467.83 571.65,-150.15 38.04,182.31 -79.07,325.28 -205.18,352.43 -180.36,38.84 -343.99,-70.58 -366.47,-202.28zm2290.03 -1704.03c0,243.33 -298.56,376.48 -486.42,200.9 -193.59,-180.94 -70.94,-510 183.93,-510.39 181.62,-0.26 302.49,120.78 302.49,309.49zm-387.24 735.07c-0.27,273.24 -6.62,329.12 -163.77,486.55 -275,275.49 -336.31,228.67 -753.85,228.58 -303.52,-0.07 -482.22,-543.84 -936.26,-281.02 -640.53,370.79 -83.21,1205.37 448.36,930.85 165.87,-85.67 232.93,-213.43 340.7,-342.81 116.19,-139.46 397.37,-70.63 597.84,-86.59 230.59,-18.35 670.38,-428 694.68,-654.11 35.37,-329.06 -79.26,-331.48 128.2,-561.52 101.23,-112.24 242.53,-186.84 275.68,-406.19 79.25,-524.46 -771.42,-907.96 -1037.62,-223.75 -84.01,215.94 13.81,393.96 123.86,508.5 61.82,64.34 114.92,101.02 173.22,160.76 68.48,70.15 109.11,96.34 108.96,240.74z"/>
  <path class="fil0" d="M9108.58 4635.86c10.62,58.9 84.6,138.35 133.94,163.21 70.2,35.35 187.68,20.91 280.28,20.92 200.42,0.03 401.13,-0.18 601.53,0.65 122.57,0.51 175.67,8.59 247.69,-54.08 58.99,-51.31 84.44,-109.3 84.2,-213.33 -0.31,-134.61 16.06,-489.44 -4.21,-598.4 -12.2,-65.57 -73.46,-133.41 -133.19,-162.93 -80.14,-39.61 -759.09,-18.68 -879.68,-19.52 -165.46,-1.16 -331.08,21.55 -331.69,261.06 -0.33,126.34 -16.54,504.35 1.15,602.42z"/>
  <path class="fil0" d="M5456.98 4001.02l0.07 551.3c0.11,340.69 314.26,267.45 707.82,267.69 637.38,0.35 579.15,44.04 578.83,-752.16 -0.15,-380.35 -283.29,-294.92 -762.6,-295.12 -192.54,-0.08 -524.13,-51.15 -524.12,228.29z"/>
  <path class="fil0" d="M7818.78 6603.19c97.26,-46.95 153.61,-68.22 267.3,-97.4 24.64,16.18 111.6,88.35 138.13,113.52 109.25,103.61 215.85,407.8 408.09,317.54 61.1,-28.69 106.78,-67.55 138.69,-113.64 57.52,-83.09 31.29,-113.65 -17.5,-181.98 -181.06,-253.56 -55.06,-81.6 -181.14,-334.76 166.12,-95.92 83.43,-69.74 169.76,-129.37 73.38,-50.68 133.92,-54.36 141.39,-154.64 -16.41,-79.55 -866.17,-544.54 -984.76,-614.48 -276.7,-163.19 -204.35,381.29 -204.35,514.24 0.01,133.65 0.63,267.42 -0.01,401.05 -0.79,166.91 -9.7,226.53 124.41,279.91z"/>
  <path class="fil1" d="M11431.27 11013.64c-85.21,-47.2 -136.05,-169.7 -81.32,-290.22 54.08,-119.08 170.04,-106.95 327.95,-106.62 139.21,0.29 278.45,-0.13 417.66,-0.06 148.13,0.08 274.73,26.19 359.64,-58.02 100.3,-99.47 90.66,-168.22 -21.78,-246.45 -142.25,-98.97 -594.44,-50.83 -806.15,-49.95 -385.7,1.63 -385.18,-298.3 -123.55,-355.23 138.48,-30.14 656.23,-7.98 842.43,-8.05 308.63,-0.12 535.61,-36.94 729.81,121.3 176.51,143.83 205.45,346.38 205.22,646.44 -0.22,278.43 0,556.87 0,835.31 0,387.36 27.95,742.09 -501.59,767.63 -234.33,11.31 -138.21,-74.09 -199.42,-217.24 -30.5,-71.33 -147.08,-190.97 -233.22,-195.34 -382.66,-19.4 -949.53,130.63 -1012.65,-212.15 -17.53,-95.22 -8.72,-204.6 88.39,-231.03 80.73,-21.96 406.06,-10.28 505.8,-10.27 253.89,0.05 411.14,43.89 565.96,-87.74 30.22,-25.71 66.19,-75.99 40.93,-135.36 -77.73,-182.56 -481.6,-131.68 -723.83,-131.68 -128.94,0 -285.2,17.4 -380.29,-35.27zm995.28 221.15c-89.15,119.58 -311.81,80.58 -548.17,80.34 -205.06,-0.2 -430.02,-21.71 -592.11,46.32 -96.95,237.58 -44.82,477.36 157,559.24 329.82,133.81 900.37,-111.84 1034.86,167.7 22.7,47.18 25.39,104.66 39.04,159.97 23.9,96.91 4.58,81.12 104.58,100.94 254.16,50.41 480.77,-40.49 612.23,-176.59 171.98,-178.07 140.13,-367.12 140.35,-653.91 0.23,-267.31 0.1,-534.6 -0.15,-801.9 -0.24,-272.56 9.33,-476.57 -136.14,-658.21 -119.86,-149.63 -282.88,-257.99 -557.19,-259.36 -267.23,-1.32 -535.14,0.62 -802.48,0.37 -271.52,-0.25 -534.99,-33.87 -623.04,176.74 -57.93,138.58 9.81,240.21 77.45,300.51 122.1,108.85 495.86,71.03 729.36,70.95 125.07,-0.05 276.44,-21.99 344.44,59.62 74.36,89.21 -120.02,119.66 -227.15,118.79 -158.45,-1.29 -661.96,-25.99 -776.74,31.92 -76.58,38.64 -160.08,123.04 -165.97,241.46 -32.18,646.23 1105.27,129.57 1189.83,435.09z"/>
  <path class="fil1" d="M3668.52 9790.22c120.83,-25.98 693.83,-14 859.87,-8.93 133.49,4.07 250.58,39.82 314.92,119.13 71.99,88.73 78.16,225.51 -11.79,301.74 -117.81,99.86 -601.23,60.64 -805.24,59.52 -157.31,-0.87 -251.6,40.23 -298.22,141.98 -56.04,122.32 130.74,201.87 167.71,209.2 291.18,57.75 1116.4,-167.34 1003.35,275.6 -76.49,299.66 -855.03,49.78 -1083.26,202.7 -126.63,84.85 -140.41,141.93 -26.01,246.87 101,92.67 185.81,65.78 353.57,65.74 144.79,-0.02 289.57,0.04 434.36,0.01 214.1,-0.04 300.6,-26.47 326.01,107.16 69.59,366.06 -313.13,341.48 -493.08,341.6 -380.08,0.27 -485.99,-44.88 -677.99,191.48 -134.27,165.27 -27.81,201.01 -211.08,222.49 -131.92,15.47 -253.48,-6.27 -361.48,-48.38 -86.02,-33.55 -187.02,-130.05 -217.75,-216.59 -44.05,-124.09 -34.54,-254.02 -34.53,-399.2 0.01,-284.02 0.32,-568.05 -0.08,-852.06 -0.39,-285.15 61.48,-503.57 202.54,-665.28 157.04,-180.03 264.58,-231.65 558.17,-294.78zm148.09 642.68c164.25,-212.04 846.43,40.42 1076.65,-168.92 120.99,-110.01 143.74,-293.47 4.96,-435.5 -127.8,-130.8 -236.17,-143.6 -470.74,-143.64 -407.71,-0.08 -820.7,-50.01 -1123.53,124.76 -255.32,147.35 -431.85,375.05 -478.69,763.74l-7.66 1246.98c9.88,373.05 313.83,581.59 724.6,541.3 252.14,-24.73 143.18,-162.57 317.19,-324.9 233,-217.38 779.48,56.18 1035.93,-200.36 59.89,-59.91 94.24,-116.46 104.97,-216.46 14.31,-133.45 -19.67,-149.71 -38.48,-266.1 -80.03,-7.61 -85.06,-22.22 -137.64,-32.82l-446.88 -5.77c-159.76,-0.03 -524.06,38.36 -540.96,-80.4 25.38,-125.42 167.91,-98.17 307.08,-98.08 401,0.23 852.93,72.2 847.2,-319.84 -8.11,-555.41 -1061.03,-106.2 -1174,-383.97z"/>
  <path class="fil0" d="M11410.61 10048.66c58.72,-39.33 64.33,-66.82 200.48,-66.82l1069.19 0c202.32,0 286.86,55.62 389.18,162.12 83.56,86.98 128.71,272.47 128.71,439.3l0 1152.72c0,303.19 -161.55,436.08 -421.59,450.58 -137.53,7.67 -51.88,-78.81 -142.45,-220.67 -26.97,-42.25 -46.89,-68.79 -84.6,-99.17 -173.02,-139.39 -281.36,-97.34 -604.32,-97.34 -108.69,0 -245.64,7.46 -350.81,-0.02 -126.52,-9 -183.79,-103.94 -183.79,-183.75 0,-126.37 158.18,-100.42 284,-100.24 150.97,0.2 651.13,25.65 751.77,-33.42 121.54,-71.36 183.78,-100.46 183.78,-250.58 0,-93.58 -109.05,-170.05 -177.35,-206.9 -197.98,-106.83 -1024.25,113.73 -1037.9,-162.51 -6.75,-136.59 106.72,-132.82 246.18,-131.9 133.6,0.89 267.44,0.12 401.07,0.12 118.32,0 291.41,22.5 380.15,-20.8 247.84,-120.9 283.44,-516.06 -296.57,-513.86 -223.26,0.85 -507.86,28.51 -701.71,-16.65 -17.02,-35.47 -19.92,-70.05 -33.41,-100.24zm93.1 -141.56c-261.62,56.93 -262.15,356.85 123.55,355.23 211.71,-0.88 663.9,-49.02 806.15,49.95 112.44,78.23 122.07,146.98 21.78,246.45 -84.9,84.21 -211.5,58.1 -359.64,58.02 -139.21,-0.07 -278.45,0.35 -417.66,0.06 -157.91,-0.33 -273.87,-12.47 -327.95,106.62 -54.73,120.52 -3.89,243.02 81.32,290.22 95.08,52.67 251.34,35.27 380.29,35.27 242.23,0 646.1,-50.88 723.83,131.68 25.27,59.37 -10.7,109.66 -40.93,135.36 -154.83,131.63 -312.07,87.79 -565.96,87.74 -99.74,-0.01 -425.07,-11.69 -505.8,10.27 -97.11,26.42 -105.92,135.8 -88.39,231.03 63.11,342.78 629.99,192.75 1012.65,212.15 86.14,4.37 202.72,124.01 233.22,195.34 61.21,143.14 -34.91,228.55 199.42,217.24 529.54,-25.54 501.59,-380.27 501.59,-767.63 0,-278.44 -0.22,-556.88 0,-835.31 0.23,-300.06 -28.72,-502.6 -205.22,-646.44 -194.2,-158.24 -421.17,-121.42 -729.81,-121.3 -186.21,0.07 -703.95,-22.09 -842.43,8.05z"/>
  <path class="fil0" d="M3625.53 10449.61c0,109.96 85.1,169.67 166.83,217.41 99.72,58.22 585.29,33.55 735.32,33.15 46.54,-0.12 139.39,-4.99 180.5,3.25 103.91,20.87 103.48,89.13 103.48,147.12 0,210.89 -849.13,57.78 -1008.8,143.94 -158.97,85.77 -239.37,206.93 -125.72,355.74 215.85,282.63 651.16,39.26 1134.52,151.87 10.33,124.12 32.37,239.94 -219.18,265.31 -360,36.3 -674.11,-89.21 -878.68,157.11 -43.56,52.47 -80.36,93.4 -110.46,156.84 -43.34,91.37 -58.46,105.7 -178.31,105.7 -281.12,0 -434.35,-154.45 -434.35,-434.35l0 -1052.5c0,-320.09 160.02,-638.93 460.2,-759.35 291.23,-116.83 662.65,-75.96 1026.65,-75.96 386.08,0 393.89,257.71 246.68,296.8 -132.12,35.08 -761.82,-49.38 -931.53,54.14 -68.93,42.04 -167.17,125.85 -167.17,233.79zm42.99 -659.39c-293.59,63.12 -401.13,114.74 -558.17,294.78 -141.06,161.71 -202.93,380.13 -202.54,665.28 0.4,284.01 0.09,568.04 0.08,852.06 -0.01,145.18 -9.53,275.11 34.53,399.2 30.72,86.54 131.73,183.04 217.75,216.59 108,42.11 229.56,63.86 361.48,48.38 183.27,-21.48 76.82,-57.21 211.08,-222.49 192,-236.36 297.91,-191.21 677.99,-191.48 179.95,-0.13 562.67,24.45 493.08,-341.6 -25.41,-133.63 -111.91,-107.2 -326.01,-107.16 -144.79,0.03 -289.57,-0.03 -434.36,-0.01 -167.76,0.04 -252.57,26.93 -353.57,-65.74 -114.4,-104.94 -100.62,-162.02 26.01,-246.87 228.23,-152.93 1006.77,96.96 1083.26,-202.7 113.06,-442.94 -712.17,-217.84 -1003.35,-275.6 -36.98,-7.33 -223.75,-86.88 -167.71,-209.2 46.62,-101.75 140.91,-142.85 298.22,-141.98 204.02,1.12 687.43,40.34 805.24,-59.52 89.95,-76.23 83.78,-213 11.79,-301.74 -64.34,-79.31 -181.43,-115.07 -314.92,-119.13 -166.04,-5.08 -739.04,-17.05 -859.87,8.93z"/>
  <path class="fil0" d="M13138.73 1060.27c381.35,-117.39 1107.13,532.4 487.69,1080.49 -60.21,53.28 -184.87,129.04 -204.75,212.03 -22.97,95.87 -15.7,307.88 22.84,382.7 36.05,69.97 132.29,168.13 196.78,220.79 87.19,71.2 162.01,105.23 307.94,104.98 126.23,-0.22 280.97,20.53 384.12,-29.64 174.3,-84.79 248.42,-287.39 518.73,-317.84 438.05,-49.35 882.86,448.04 639.71,874.73 -239.17,419.7 -726.95,499.88 -1038.89,93.15 -207.8,-270.93 -93.57,-213.69 -620.44,-214.59 -287.38,-0.49 -396.42,-173.06 -536.8,-298.95 -139.82,-125.42 -300.99,-258.92 -300.25,-536.67 1.22,-455.93 -38.55,-322.39 -251.81,-581.26 -301.47,-365.93 -124.2,-830.06 395.13,-989.92zm-625.51 518.35c0,268.31 -0.98,327.88 181.25,553.83 101.58,125.95 219.26,145.04 220.48,364.23 1.46,263.18 -15.17,317.38 93.73,490.98 107.5,171.37 198.18,214.66 294.25,307.18 455.52,438.77 554.5,174.07 911.24,258.19 127,29.94 364.54,691.25 996.24,422.06 222.33,-94.74 443.57,-373.22 443.57,-642.33 0,-421.11 -615.99,-1055.13 -1223.76,-488.69 -179.89,167.64 -171.02,121.15 -563.8,121.15 -110.28,0 -367.54,-211.12 -367.54,-384.24 0,-384.13 58.01,-195.52 265.2,-453.16 174.18,-216.6 185.86,-260.1 185.86,-532.51 0,-251.3 -349.06,-634.83 -701.66,-634.83 -448.18,0 -735.07,441.78 -735.07,618.12z"/>
  <path class="fil1" d="M2588.52 2430.64c0.15,-144.4 -40.49,-170.59 -108.96,-240.74 -58.3,-59.73 -111.4,-96.42 -173.22,-160.76 -110.05,-114.55 -207.87,-292.56 -123.86,-508.5 266.2,-684.21 1116.86,-300.71 1037.62,223.75 -33.14,219.34 -174.45,293.94 -275.68,406.19 -207.46,230.05 -92.83,232.47 -128.2,561.52 -24.31,226.11 -464.09,635.76 -694.68,654.11 -200.48,15.96 -481.65,-52.87 -597.84,86.59 -107.78,129.38 -174.83,257.14 -340.7,342.81 -531.56,274.52 -1088.88,-560.06 -448.36,-930.85 454.04,-262.83 632.74,280.95 936.26,281.02 417.54,0.09 478.85,46.9 753.85,-228.58 157.16,-157.43 163.5,-213.32 163.77,-486.55zm-483.26 1036.05c230.12,-0.02 365.23,-180.2 480.44,-271.95 568.45,-452.72 178.6,-725.46 384.86,-934.86 33.97,-34.49 41.79,-56.57 85.72,-97.41 316.59,-294.23 382.76,-591.4 52.18,-918.87 -471.25,-466.79 -1051.62,25.64 -1053.95,418.56 -1.54,259.52 126.75,326.91 192.61,443.54 124.73,220.87 254.4,115.2 254.4,341.65 0,246.86 -25.36,295.42 -154.74,425.32 -224.65,225.56 -294.56,187.99 -642.48,187.99 -160.05,0 -174.83,-73.14 -210.35,-102.21 -38.99,-31.93 -48.78,-20.77 -94.24,-55.99 -30.74,-23.82 -47.23,-44.87 -80.85,-70.05 -503.07,-376.87 -1023.23,179.72 -965.33,564.32 40.28,267.56 326.22,573.55 643.39,548.6 471.67,-37.11 485.19,-478.28 724.09,-478.53l384.24 -0.1z"/>
  <path class="fil1" d="M13190.89 1147.89c355.25,-69.23 786.78,461.76 457.22,847.43 -68.14,79.74 -140.82,124.93 -210.7,189.97 -75.58,70.37 -122.56,76.27 -124.4,261.29 -3.22,325.05 66.48,393.28 239.76,548.4 206.89,185.23 295.14,151.15 631.73,151.65 275.87,0.41 331.41,-179.16 502.76,-279.14 392.7,-229.11 912.5,207.78 753.05,620.03 -145.1,375.18 -651.25,546.01 -950.15,89.65 -173.27,-264.56 -218.47,-211.28 -573.67,-211.04 -326.78,0.22 -381.58,-81.21 -544.02,-241.16 -116.3,-114.51 -284.74,-242.31 -285.4,-493.13 -1.03,-397.27 -3.39,-362.4 -216.02,-575.81 -347.54,-348.85 -146.82,-817.22 319.83,-908.16zm-52.17 -87.63c-519.33,159.86 -696.6,623.99 -395.13,989.92 213.27,258.87 253.03,125.33 251.81,581.26 -0.74,277.75 160.42,411.25 300.25,536.67 140.38,125.9 249.42,298.46 536.8,298.95 526.87,0.9 412.65,-56.34 620.44,214.59 311.95,406.73 799.72,326.55 1038.89,-93.15 243.15,-426.69 -201.66,-924.08 -639.71,-874.73 -270.31,30.45 -344.43,233.04 -518.73,317.84 -103.15,50.17 -257.89,29.42 -384.12,29.64 -145.93,0.25 -220.74,-33.78 -307.94,-104.98 -64.5,-52.67 -160.74,-150.83 -196.78,-220.79 -38.55,-74.82 -45.82,-286.83 -22.84,-382.7 19.89,-82.99 144.54,-158.76 204.75,-212.03 619.44,-548.09 -106.33,-1197.87 -487.69,-1080.49z"/>
  <path class="fil0" d="M10525.18 4869.74zm-1505.4 -885.42l1505.4 885.42zm-1505.4 -885.42c0,-151.09 117.31,-274.12 238.55,-297.57l1063 0.81c95.94,22.34 222.04,158.14 222.13,296.76l0.14 634.83c0.03,107.61 -73.67,182.05 -128.58,224.39 -94.91,73.17 -146.53,63.61 -290.79,63.73 -151.86,0.07 -814.83,9.65 -882.14,-7.17 -89.97,-22.49 -222.34,-153.11 -222.31,-280.95l0.01 -634.83zm1505.4 885.42c129.2,-192.93 100.31,-128.78 100.24,-400.94 -0.12,-437.44 73.72,-649.78 -202.53,-833.26 -93.4,-62.04 -355.1,-35.46 -482.44,-35.46 -172.62,0 -345.27,0.23 -517.89,-0.01 -240.74,-0.31 -261.58,2.14 -388.78,129.12 -129.71,129.49 -95.7,184.38 -95.69,422.19 0,172.63 0,345.26 0,517.89 -2.32,-3.33 -5.41,-12.86 -6.22,-10.49l-16.37 -33.74c-72.89,-195.59 -113.44,-508.35 -111.78,-724.98 0.98,-129.95 15.53,-166.12 87.36,-230.05 117.31,-104.42 309.06,-66.26 512.35,-89.09 121.63,-13.65 746.77,-27.03 894.91,-4.61 147.99,22.39 600.53,-82.26 540.29,369.47 -38.66,289.87 -62.55,865.5 -313.45,923.95zm-1330.83 -1373.53c-361.36,52 -475.03,74.25 -473.1,471.4 1.16,239.87 58.94,613.88 149.04,785.64 45.17,86.12 161.08,178.39 252.4,215.79 157.9,64.67 220.66,50.79 416.81,50.75 827.96,-0.19 1176.8,132.29 1317.51,-553.16 208.85,-1017.39 -45.36,-979.86 -749.51,-981.28 -256.46,-0.52 -679.56,-22.75 -913.16,10.87z"/>
  <path class="fil0" d="M5362.97 4853.04zm1472.22 -852.02l-1472.22 852.02zm1472.22 -852.02c-0.42,1039.91 100.83,905.92 -937.62,905.79 -239.86,-0.02 -353.81,32.01 -502.23,-153.09 -65.4,-81.57 -31.53,-333.02 -34.41,-351.75 -35.25,-229.2 -74.84,-653.38 222.19,-714.85 62.65,-12.97 996.49,-11.18 1057.35,5.86 67.01,18.76 121.83,65.68 155.05,111.66 56.04,77.53 45.04,85.61 39.67,196.38zm-1472.22 852.02c-191.86,-51.23 -230.96,-472.4 -255.53,-663.31 -82.33,-639.54 -41.14,-623.06 873.65,-623.06 207.6,0 672.21,8.6 870.99,47.85 324.82,64.11 243.12,364.27 201.19,673.5 -14.78,109.03 -72.91,422.55 -153.34,481.49 20.45,-245.85 8.34,-674.11 19.26,-766.17 13.03,-109.83 36.53,-112.9 -25.45,-213.3 -84.52,-136.91 -179.54,-191.1 -344.01,-190.6 -169.41,0.51 -952.45,-24.72 -1048.7,21.75 -96.78,46.74 -227.81,172.28 -238.36,296.24 -14.11,165.69 15.51,379.31 5.84,509.56 -7.13,96.01 8.61,145.59 10.43,242.77 2.56,137.02 30.59,103.47 84.03,183.28zm5.67 -1356.83c-320.78,46.23 -412.95,130.9 -362.87,544.34 31.1,256.64 48.59,585.41 168.45,767.28 142.66,216.47 388.03,211.64 723.34,211.74 761.76,0.25 1096.51,109.75 1227.89,-625.6 152.41,-853.01 -6.44,-898.34 -843.65,-907.7 -252.61,-2.82 -682.77,-23.27 -913.16,9.94z"/>
  <path class="fil1" d="M9194.35 3496.21c233.6,-33.62 656.71,-11.39 913.16,-10.87 704.15,1.41 958.35,-36.11 749.51,981.28 -140.7,685.45 -489.55,552.98 -1317.51,553.16 -196.16,0.04 -258.91,13.93 -416.81,-50.75 -91.32,-37.4 -207.23,-129.67 -252.4,-215.79 -90.1,-171.76 -147.89,-545.77 -149.04,-785.64 -1.93,-397.15 111.73,-419.4 473.1,-471.4zm1808.95 554.93c91.22,-791.9 -519.3,-665.9 -1363.55,-662.77 -878.91,3.26 -1143.91,62.03 -966.25,1014.03 26.34,141.18 59.59,276 118.78,395.3 46.58,93.92 187.6,221.9 258.67,258.68 182.21,94.31 712.85,64.35 956.33,64.46 844.03,0.37 896.91,-209.33 996.02,-1069.7z"/>
  <path class="fil1" d="M5368.65 3496.21c230.4,-33.2 660.56,-12.76 913.16,-9.94 837.21,9.36 996.06,54.7 843.65,907.7 -131.38,735.34 -466.14,625.84 -1227.89,625.6 -335.31,-0.1 -580.67,4.73 -723.34,-211.74 -119.86,-181.88 -137.35,-510.64 -168.45,-767.28 -50.08,-413.44 42.09,-498.12 362.87,-544.34zm153.73 -91.98c-159,13.09 -311.5,-9.59 -434.63,70.06 -107.58,69.61 -175.82,165.23 -179.26,342.25 -5.61,287.61 34.62,666.87 121.7,901.78 100.93,272.28 269.55,376.45 618.99,397.49 237.8,14.31 788.44,22.19 1001.37,-11.75 306.26,-48.82 442.05,-217.13 519,-501.89 54.46,-201.56 145.74,-672.06 68.79,-890.98 -91.55,-260.39 -395.66,-300.95 -705.64,-307.54 -334.85,-7.12 -682.8,-26.4 -1010.32,0.57z"/>
  <path class="fil0" d="M8798.14 6249.61c-41.76,32.52 -51.59,56.54 -97.7,86.38 45.61,135.43 52.47,156.37 130.72,261.12 67.36,90.17 110.35,142.69 28.5,265.66 -49.07,73.71 -125.24,125.08 -215.08,169.1 -197.89,96.94 -351.94,-174.53 -430.47,-285.26 -223.82,-315.57 -320.37,70.79 -516.14,-85.66 -98.1,-78.39 -88.4,-107.66 -87.16,-254.25l-0.16 -835.3c-0.19,-169.93 -11.46,-187.27 100.2,-275.74 94.97,-75.26 175.93,4.04 253.62,46.97 161.73,89.35 318.87,196.09 484.32,284.11 130.25,69.29 399.2,199.18 481.87,286.38 185.55,195.72 -114.06,322.11 -132.52,336.49zm-1280.08 -811.87l0 1102.61c0,96.5 150.32,250.59 250.6,250.59 282.35,0 186.55,-237.33 422.24,78.94 40.4,54.21 84.77,125.04 135.5,165.22 187.27,148.29 330.12,142.53 515.68,-22.75 123.41,-109.92 146.13,-167.2 146.13,-304.94 0,-116.81 -142.14,-172.09 -183.77,-350.84l162.78 -104.51c159.85,-127.69 141.73,-345.33 -57.02,-469.02 -41.34,-25.73 -42.63,-28.79 -79.84,-53.79l-504.95 -280.24c-135.77,-74.79 -437.37,-278.57 -540.04,-278.57 -107.45,0 -267.31,159.85 -267.31,267.3z"/>
  <path class="fil1" d="M7818.78 6603.19c-134.11,-53.38 -125.2,-113 -124.41,-279.91 0.64,-133.63 0.02,-267.4 0.01,-401.05 0,-132.94 -72.35,-677.42 204.35,-514.24 118.58,69.94 968.35,534.93 984.76,614.48 -7.47,100.28 -68.01,103.96 -141.39,154.64 -86.33,59.63 -3.65,33.45 -169.76,129.37 126.08,253.16 0.08,81.21 181.14,334.76 48.8,68.34 75.02,98.9 17.5,181.98 -31.91,46.08 -77.59,84.95 -138.69,113.64 -192.24,90.25 -298.84,-213.93 -408.09,-317.54 -26.53,-25.17 -113.49,-97.34 -138.13,-113.52 -113.68,29.18 -170.04,50.44 -267.3,97.4zm-208.12 -1031.79l0.16 835.3c-1.24,146.59 -10.95,175.86 87.16,254.25 195.77,156.44 292.32,-229.92 516.14,85.66 78.53,110.73 232.58,382.2 430.47,285.26 89.84,-44.01 166.01,-95.39 215.08,-169.1 81.85,-122.97 38.86,-175.49 -28.5,-265.66 -78.25,-104.76 -85.11,-125.69 -130.72,-261.12 46.11,-29.84 55.94,-53.86 97.7,-86.38 18.46,-14.38 318.07,-140.76 132.52,-336.49 -82.67,-87.19 -351.62,-217.09 -481.87,-286.38 -165.45,-88.03 -322.59,-194.76 -484.32,-284.11 -77.7,-42.94 -158.66,-122.23 -253.62,-46.97 -111.66,88.48 -100.39,105.82 -100.2,275.74z"/>
  <path class="fil1" d="M5456.98 4001.02c-0.01,-279.44 331.58,-228.37 524.12,-228.29 479.31,0.2 762.45,-85.23 762.6,295.12 0.31,796.21 58.55,752.51 -578.83,752.16 -393.56,-0.24 -707.71,73 -707.82,-267.69l-0.07 -551.3zm1378.21 0c5.37,-110.77 16.37,-118.85 -39.67,-196.38 -33.22,-45.97 -88.05,-92.9 -155.05,-111.66 -60.86,-17.04 -994.69,-18.83 -1057.35,-5.86 -297.03,61.47 -257.45,485.65 -222.19,714.85 2.88,18.73 -30.99,270.18 34.41,351.75 148.42,185.1 262.38,153.07 502.23,153.09 1038.45,0.13 937.2,134.12 937.62,-905.79z"/>
  <path class="fil1" d="M12396.33 5304.03c-18.95,-84.47 -32.6,-82.46 -33.7,-182.8l0.56 -1170.34c0,-180.8 -15.48,-272.83 36.18,-431.26 377.25,-4.97 295.07,471 294.63,882.33 -0.25,235.17 29.61,664.95 -96.91,802.22 -67.93,73.71 -74.1,84.14 -200.76,99.84zm-83.6 112.04c547.71,-7.52 468.38,-518.7 470.32,-997.4 1.73,-427.02 75.14,-739.02 -170.31,-934.53 -91.71,-73.04 -167.94,-57.49 -300.01,-47.64 -91.45,176.47 -49.71,749.72 -49.92,998.88 -0.23,271.24 -40.28,769.67 49.92,980.69z"/>
  <path class="fil1" d="M3499.8 5308.06c-188.86,-17.33 -261.97,-131.69 -286.59,-325.92l-0.47 -1177.5c25.25,-180.27 109.68,-278.66 292.36,-284.6 32.24,286.81 38.99,1232.9 33.61,1601.28 -1.29,88.29 -18.2,110.51 -38.9,186.75zm75.61 -1876.7c-152.26,-3.83 -210.85,-6.85 -300.37,68.68 -229.73,193.82 -157.29,538.88 -157.02,935.34 0.23,323.34 -101.72,1050.42 474.1,969.39 61.88,-145.2 34.31,-787.63 33.92,-1002.8 -0.46,-251.75 39.19,-789.41 -50.63,-970.61z"/>
  <path class="fil1" d="M9108.58 4635.86c-17.69,-98.07 -1.48,-476.08 -1.15,-602.42 0.62,-239.51 166.23,-262.22 331.69,-261.06 120.59,0.84 799.55,-20.09 879.68,19.52 59.72,29.52 120.99,97.36 133.19,162.93 20.28,108.96 3.9,463.79 4.21,598.4 0.25,104.02 -25.21,162.02 -84.2,213.33 -72.01,62.66 -125.11,54.59 -247.69,54.08 -200.4,-0.82 -401.11,-0.62 -601.53,-0.65 -92.6,-0.01 -210.08,14.43 -280.28,-20.92 -49.35,-24.85 -123.32,-104.31 -133.94,-163.21zm-88.8 -651.54l-0.01 634.83c-0.03,127.84 132.34,258.46 222.31,280.95 67.32,16.83 730.29,7.24 882.14,7.17 144.26,-0.12 195.88,9.44 290.79,-63.73 54.91,-42.34 128.61,-116.78 128.58,-224.39l-0.14 -634.83c-0.09,-138.62 -126.19,-274.41 -222.13,-296.76l-1063 -0.81c-121.24,23.45 -238.55,146.48 -238.55,297.57z"/>
  <path class="fil0" d="M12613.45 4702.68c0,508.21 -167.07,544.58 -167.07,451.06l0 -1486.85c0,-99.93 167.07,-102.39 167.07,350.84 0,217 5.9,296.23 -14.94,504.29 -8.86,88.53 14.94,91.83 14.94,180.66zm-217.12 601.35c126.66,-15.7 132.83,-26.13 200.76,-99.84 126.51,-137.27 96.65,-567.05 96.91,-802.22 0.44,-411.33 82.62,-887.3 -294.63,-882.33 -51.67,158.42 -36.18,250.46 -36.18,431.26l-0.56 1170.34c1.11,100.34 14.75,98.33 33.7,182.8z"/>
  <path class="fil0" d="M3291.4 4869.74c0,-237.29 -37.46,-1038.16 47.42,-1172.4 164.64,-260.36 102.93,290.7 102.93,487.46 0,339.68 0,679.38 0,1019.07 -109.92,-29.34 -150.36,-191.2 -150.36,-334.13zm208.4 438.32c20.7,-76.24 37.6,-98.45 38.9,-186.75 5.38,-368.38 -1.36,-1314.47 -33.61,-1601.28 -182.68,5.95 -267.11,104.34 -292.36,284.6l0.47 1177.5c24.63,194.23 97.73,308.6 286.59,325.92z"/>
  <path class="fil1" d="M7728.12 12805.71c204.19,-37.32 477.54,-17.1 692.08,-17.1 37.19,0 69.45,13.75 115.63,17.9 6.43,88.09 33.32,78.68 33.3,132.33 -0.41,497.21 -8.62,364.62 -616.73,367.49 -218.26,1.03 -210.39,7.26 -242.92,-58.4 -52.11,-105.19 -23,-332.64 18.65,-442.2zm-85.07 -75.88c-71.92,297.87 -52.76,371.27 -1.98,653.47 187.14,10.8 78.32,24.97 411.59,25.94 265.12,0.77 342.95,24.15 580.75,-37.23 6.16,-91.11 60.17,-279.57 31.11,-496.63 -21.22,-158.41 -67.92,-187.9 -277.73,-188l-612.29 6.39c-56.83,11.99 -61.34,26.73 -131.44,36.06z"/>
  <path class="fil1" d="M5874.52 15187.63c149.62,-48.67 516.88,-26.75 691.29,-26.75 39.59,0 68.96,14.61 114.83,18.68 11.56,135.54 27.79,44.94 31.23,315.31 1.5,117.4 -22.77,127.55 -29.78,216.52 -49.49,12.04 -83.88,33.74 -132.99,33.74l-551.3 0c-48.88,0 -83.38,-21.52 -132.53,-34.2 -8.65,-144.32 -48.19,-346.76 9.25,-523.3zm-84.73 -85.13c-24.37,205.64 -36.35,31.71 -36.63,375.67 -0.32,404 7.28,360.66 578.77,360.99 88.13,0.04 347.63,13.17 414.68,-44.37 2.47,-3.53 4.87,-13.97 5.66,-11.6l27.19 -75.06c34.01,-111.78 18.65,-294.35 18.78,-413.73 0.11,-59.93 -25.28,-115.17 -38.42,-193.02 -155.98,-16.61 -62.3,-35.48 -310.96,-35.69l-418.44 -0.74c-102.63,-0.31 -143.37,21.72 -240.64,37.56z"/>
  <path class="fil1" d="M5873.47 14766.8c-33.14,-112.71 -25.61,-207.63 -25.97,-341.57 -0.43,-155.14 -10.5,-228.85 135.76,-246.36 43.49,-5.2 569.66,-10.16 637.36,8.18 116.92,31.68 93.02,180.38 91.84,372.98 -0.35,56.09 -1.73,113.98 -17.35,160.62 -9.07,27.1 4.96,64.53 -117.03,83.53 -144.08,22.45 -586.47,17.67 -704.61,-37.38zm-85.53 -636.23c-9.43,155.41 -34.84,9.26 -34.72,361.94 0.06,158.96 -0.96,225.36 40.81,351.75l170.11 52.2c147.29,12.42 588.5,20.11 739.41,-28.24l53.62 -17.94c67.38,-215.64 49.73,-506.01 2.37,-717.03 -188.81,-74.16 -505.05,-44.38 -711.98,-45.5 -118.25,-0.64 -152.45,15.75 -259.61,42.84z"/>
  <path class="fil1" d="M9623.5 12421.39c152.47,-16.99 583.29,-47.36 721.41,-3.95 114.34,35.94 91.87,147.5 91.51,270.69 -0.17,57.56 3.51,126.42 -0.18,182.47 -4.14,62.9 -13.5,106.01 -48.54,131.39 -58.29,42.2 -611.46,48.15 -698.19,21.14 -74.96,-23.34 -67.91,-20.1 -87.82,-96.18l-10.23 -356.44c2.6,-86.46 14.87,-76.38 32.05,-149.12zm-78.72 -79.37c-52.8,252.98 -39.89,76.92 -40.32,379.63 -0.18,58.21 -5.21,144.69 1.36,199.68 5.73,47.85 25.13,94.78 39.09,161.59 199.44,26.48 15.79,37.65 312.01,37.33 98.89,-0.1 558.4,20.09 620.84,-45.6 50.94,-53.6 61.74,-524.03 27.21,-634.14l-22.66 -61.5c-48.28,-111.33 -641.92,-74.25 -759.03,-74.4 -49.74,-0.1 -125.15,23.62 -178.49,37.41z"/>
  <path class="fil1" d="M4645.33 15711.32c-6.93,-119.96 -17.19,-215.33 -17.73,-350.55 -0.52,-134.22 -13.29,-210.36 120.9,-228.62 116.04,-15.79 598.56,-12.55 648.06,45.62 50.02,58.79 32,237.91 32.58,334.32 0.72,117.94 1.22,207.22 -119.68,229.29 -148.4,27.1 -523.19,4.55 -664.12,-30.06zm-80.42 -631.93c-13.89,166.6 -34.74,107.95 -35.03,382.07 -0.24,219.22 -5.94,110.94 39.11,342.39 190.59,17.16 11.47,35.3 393.03,35.06l364.05 -1.75c44.57,-6.06 87.77,-23.55 159.34,-35.81 33.44,-287.91 36.39,-120.79 35,-490.94 -0.45,-121.14 -27.11,-121.5 -36.08,-237.47 -100.72,-3.58 -109.75,-28.55 -203.87,-31.94l-519.76 -1.54c-72.71,3.69 -110.77,24.71 -195.8,39.95z"/>
  <path class="fil1" d="M9591.94 13523.54c0.01,-75.81 17.76,-132.77 100.81,-146.96 101.5,-17.36 622.49,3.94 713.19,15.62 8.56,60.98 29.82,78.98 29.84,131.34 0.08,108.28 18.59,363.46 -39.65,422.07 -21.38,21.52 -88.07,41.1 -121.53,41.09 -777.57,-0.12 -682.67,63.36 -682.65,-463.17zm-50.12 -214.28c-12.87,84.19 -37.8,129.44 -37.83,197.58l-0.22 334.13c-0.04,67.35 25.05,113.78 37.98,196.58 165.65,14.38 58.02,34.49 348.59,34.62l384.24 0.61c84.92,0.03 116.93,-22.99 208.93,-39.05 15.98,-125.46 37.18,-79.21 37.54,-242.87 1.32,-597.65 49.18,-512.42 -764.36,-514.05 -109.93,-0.15 -105.65,26.2 -214.87,32.47z"/>
  <path class="fil1" d="M8527.63 15034.62c-146.46,49.57 -366.2,24.18 -541.81,25.11 -258.7,1.37 -297.77,19.56 -297.88,-249.82 -0.13,-275.06 49.36,-250.05 314.58,-249.29 170.42,0.49 382.67,-22.01 524.97,24.61 47.26,132.62 65.38,307.78 0.14,449.4zm-890.98 -526c-13.45,170.77 -34.82,49.69 -35.43,418.24 -0.01,61.54 25.57,117.15 39.58,194.41 92.82,8.69 101.79,29.98 177.94,35.11 118.85,8.03 715.27,19.34 788.12,-42.92 53.31,-79.15 58.85,-164.82 58.96,-286.71 0.15,-163.63 -12.65,-174.78 -34.52,-312.41 -242.22,-74.23 -526.48,-43.59 -779.12,-44.25 -89.15,-0.23 -119.79,23.11 -215.53,38.52z"/>
  <path class="fil1" d="M7813.1 13666.12c96.2,-21.32 637.06,-20.81 696.71,17.86 97.53,63.23 63.49,404.98 39.61,469.41 -22.49,60.7 -34.89,69.55 -101.73,78.86 -104.23,14.52 -640.85,12.15 -696.96,-21.63 -41.78,-25.15 -14.46,18.03 -45.06,-56.6 -10.14,-24.74 -13.05,-42.85 -15.62,-65.17 -8.02,-69.48 -8.71,-284.49 14.57,-344.33 26.76,-68.8 28.3,-60.64 108.47,-78.4zm-176.52 -58.19c-6.95,98.33 -35.4,114.6 -35.36,199.61 0.18,322.55 -18.2,191.56 39.78,477.36 150.67,8.27 42.51,34.9 428.36,34.17l350.84 0.29c87.92,-0.07 123.05,-25.08 208.35,-37.3 51.65,-232.07 38.42,-222.85 38.19,-474.53 -0.66,-95.46 -26.57,-96.72 -31.86,-198.1 -328.69,-50.8 -117.19,-38.31 -498.68,-38.37 -89.12,-0.01 -179.14,-1.63 -268.06,-0.91 -111.24,0.9 -121.29,24.94 -231.54,37.76z"/>
  <path class="fil1" d="M10810.24 13390.95c108.05,-7.71 667.56,-91.89 737.37,29.59 2.53,4.39 12.52,30.76 14.14,35.84 10.36,32.44 14,30.76 14,67.16 0,268.26 46.1,462.89 -148.45,462.9 -116.73,0 -535.09,21.3 -598.5,-31.18 -69.38,-57.4 -50.07,-199.98 -50.03,-281.37 0.13,-291.97 13.8,-151.58 31.46,-282.95zm-121.69 466.72l47.55 174.39c212.15,66.09 451.67,40.38 707.92,40.42 74.81,0.01 87.46,-27.75 182.71,-32.81 42.99,-230.02 46.87,-300.12 39.1,-549.53 -4.13,-66.62 -28.76,-107.81 -39.5,-182.44 -181.27,-14.61 -22.22,-32.74 -399.49,-32.09 -152.37,0.26 -309.71,-18.7 -439.95,24.6 -70.91,23.58 -37.44,-17.82 -69.12,67.16 -47.83,128.3 -29.18,327.16 -29.22,490.3z"/>
  <path class="fil1" d="M9633.22 11511.61c142.19,-41.66 624.24,-44.07 763.98,0.99 47.26,119.27 61.62,397.44 13.96,476.6 -81.82,135.95 -726.78,52.8 -777.67,37.84 -62.19,-163.43 -61.05,-351.89 -0.26,-515.43zm-95.88 -79.64c-3.24,103.23 -32.88,93.86 -32.73,354.13 0.17,280.33 26.19,184.91 34.91,318.99 99.43,12.74 120.39,36.93 217.18,37.11l517.89 0.09c94.7,-0.01 106.46,-24.85 205.97,-33.95 53.65,-216.69 41.59,-268.87 41.5,-489.31 0.01,-74.29 -28.69,-85.49 -34.31,-182.51 -307.75,-58.36 -229.96,-40.18 -547.28,-40.08 -355.76,0.11 -226.36,22.07 -403.12,35.54z"/>
  <path class="fil0" d="M11043.06 6607.18c-90.3,123.26 -548.4,304.67 -701.65,317.43 88.56,-76.97 210.45,-119.55 331.91,-169.27 115.73,-47.38 238.7,-117.61 369.74,-148.15zm0 0zm33.42 -33.41l-33.42 33.41zm33.42 -33.41l4.98 4.98c-0.32,-0.32 -6.64,-3.32 -4.98,-4.98zm-1601.82 632.63c291.72,-13.11 1286.06,-295.16 1479.57,-420.73 79.79,-51.78 607.09,-404 660.8,-499.53 -143.06,28.21 -1122.28,434.96 -1250.21,511.3 -85.92,51.28 -196.65,112.38 -257.37,184.67 -35.11,25.41 -73.63,45.91 -119.56,49.67l-90.5 4.79 -422.74 169.83z"/>
  <path class="fil0" d="M9673.16 12838.59c0,-437.41 -85.11,-350.83 551.3,-350.83 57.6,0 64.69,12.36 116.95,16.7 0,77.95 -0.4,156.01 0.06,233.95 1.48,253.09 96.87,200.42 -601.48,200.42 -51.35,0 -66.83,-48.94 -66.83,-100.24zm-49.66 -417.19c-17.18,72.74 -29.45,62.66 -32.05,149.12l10.23 356.44c19.91,76.08 12.86,72.84 87.82,96.18 86.73,27.01 639.9,21.06 698.19,-21.14 35.05,-25.38 44.41,-68.5 48.54,-131.39 3.68,-56.06 0.01,-124.92 0.18,-182.47 0.36,-123.19 22.83,-234.75 -91.51,-270.69 -138.12,-43.41 -568.93,-13.04 -721.41,3.95z"/>
  <path class="fil0" d="M5930.97 14592.73l16.71 -317.41c151.86,-35.38 402.43,-16.71 568.01,-16.71 140.42,0 100.24,93.33 100.24,400.94 0,51.35 -48.94,66.83 -100.24,66.83 -165.58,0 -416.15,18.67 -568.01,-16.71 -4.34,-52.26 -16.71,-59.35 -16.71,-116.95zm-57.5 174.07c118.14,55.05 560.53,59.83 704.61,37.38 121.99,-19 107.96,-56.43 117.03,-83.53 15.61,-46.64 16.99,-104.53 17.35,-160.62 1.18,-192.61 25.08,-341.3 -91.84,-372.98 -67.7,-18.35 -593.87,-13.39 -637.36,-8.18 -146.25,17.51 -136.19,91.22 -135.76,246.36 0.36,133.94 -7.16,228.86 25.97,341.57z"/>
  <path class="fil0" d="M8420.2 14141.67l-584.71 0c-81.11,0 -50.12,-121.54 -50.12,-334.13 0,-51.35 48.93,-66.82 100.24,-66.82 167.64,0 432.04,-18.87 584.71,16.7 17.87,76.71 52.85,384.24 -50.12,384.24zm-607.1 -475.56c-80.17,17.76 -81.71,9.6 -108.47,78.4 -23.29,59.84 -22.59,274.85 -14.57,344.33 2.57,22.33 5.48,40.44 15.62,65.17 30.61,74.63 3.28,31.45 45.06,56.6 56.11,33.78 592.73,36.15 696.96,21.63 66.84,-9.31 79.24,-18.16 101.73,-78.86 23.87,-64.43 57.92,-406.18 -39.61,-469.41 -59.66,-38.66 -600.51,-39.17 -696.71,-17.86z"/>
  <path class="fil0" d="M9673.16 13790.85c0,-422.04 -91.96,-334.13 618.13,-334.13 84.84,0 50.12,153.45 50.12,384.24 0,38.49 -11.62,50.12 -50.12,50.12l-551.3 0c-51.35,0 -66.83,-48.94 -66.83,-100.24zm-81.23 -267.31c-0.02,526.53 -94.93,463.05 682.65,463.17 33.47,0.01 100.15,-19.57 121.53,-41.09 58.24,-58.62 39.73,-313.79 39.65,-422.07 -0.02,-52.35 -21.29,-70.36 -29.84,-131.34 -90.69,-11.68 -611.68,-32.98 -713.19,-15.62 -83.05,14.19 -100.8,71.15 -100.81,146.96z"/>
  <path class="fil0" d="M10859.3 13790.85c0,-147.12 -12.02,-194.11 16.71,-317.43 75.55,-1.68 66.4,-16.7 150.36,-16.7 538.31,0 493.83,-79.53 451.06,434.36 -116.94,0 -233.89,-0.09 -350.84,0 -143.09,0.1 -267.3,41.53 -267.3,-100.24zm-49.06 -399.9c-17.66,131.36 -31.33,-9.03 -31.46,282.95 -0.04,81.39 -19.35,223.97 50.03,281.37 63.41,52.47 481.77,31.18 598.5,31.18 194.55,-0.01 148.45,-194.65 148.45,-462.9 0,-36.4 -3.65,-34.72 -14,-67.16 -1.62,-5.08 -11.61,-31.45 -14.14,-35.84 -69.81,-121.48 -629.32,-37.3 -737.37,-29.59z"/>
  <path class="fil0" d="M5930.97 15561.69c0,-145.57 -11.69,-178.78 16.71,-300.71 153.28,-35.7 431.86,-16.71 601.42,-16.71 110.24,0 66.42,330.99 50.12,400.95 -127.66,29.74 -523.88,29.74 -651.54,0 -8.72,-37.47 -16.71,-38.42 -16.71,-83.54zm-56.45 -374.06c-57.44,176.54 -17.91,378.98 -9.25,523.3 49.15,12.68 83.65,34.2 132.53,34.2l551.3 0c49.11,0 83.5,-21.7 132.99,-33.74 7.02,-88.97 31.28,-99.12 29.78,-216.52 -3.44,-270.36 -19.67,-179.77 -31.23,-315.31 -45.88,-4.07 -75.24,-18.68 -114.83,-18.68 -174.41,0 -541.67,-21.92 -691.29,26.75z"/>
  <path class="fil0" d="M8436.91 13239.54l-334.13 -16.71c-378.71,0.23 -317.42,70.22 -317.42,-300.72 0,-38.49 11.62,-50.12 50.12,-50.12l568 0c104.51,0 83.54,179.63 83.54,250.6 0,60.78 -25.48,81.49 -50.12,116.95zm-708.79 -433.83c-41.65,109.57 -70.76,337.02 -18.65,442.2 32.54,65.66 24.66,59.43 242.92,58.4 608.11,-2.86 616.32,129.73 616.73,-367.49 0.02,-53.65 -26.87,-44.24 -33.3,-132.33 -46.18,-4.15 -78.43,-17.9 -115.63,-17.9 -214.53,0 -487.88,-20.22 -692.08,17.1z"/>
  <path class="fil0" d="M9673.16 11852.92c0,-339.89 -52.12,-284.01 568.01,-284.01 135.03,0 100.24,80.65 100.24,334.13 0,110.01 -349.2,66.83 -551.31,66.83 -77.98,0 -116.94,-38.96 -116.94,-116.95zm-39.95 -341.31c-60.78,163.54 -61.93,352 0.26,515.43 50.89,14.97 695.85,98.11 777.67,-37.84 47.66,-79.17 33.3,-357.33 -13.96,-476.6 -139.74,-45.06 -621.79,-42.65 -763.98,-0.99z"/>
  <path class="fil0" d="M4711.43 15561.69c0,-148.56 -12.31,-209.57 16.7,-334.12 195.83,-45.62 402.78,0 601.42,0 28.31,121.5 28.31,296.16 0,417.65 -126.99,29.59 -474.42,29.59 -601.42,0 -8.72,-37.47 -16.7,-38.42 -16.7,-83.54zm-66.1 149.63c140.94,34.61 515.73,57.16 664.12,30.06 120.9,-22.07 120.4,-111.35 119.68,-229.29 -0.58,-96.41 17.44,-275.53 -32.58,-334.32 -49.5,-58.18 -532.03,-61.41 -648.06,-45.62 -134.19,18.27 -121.42,94.41 -120.9,228.62 0.54,135.22 10.8,230.59 17.73,350.55z"/>
  <path class="fil0" d="M8470.32 14960.27c-128.67,29.98 -556.28,29.98 -684.95,0l0 -300.71c52.26,-4.35 59.34,-16.71 116.94,-16.71 715.09,0 568.01,-54.96 568.01,317.42zm57.31 74.35c65.24,-141.62 47.12,-316.78 -0.14,-449.4 -142.3,-46.62 -354.55,-24.12 -524.97,-24.61 -265.22,-0.75 -314.71,-25.77 -314.58,249.29 0.12,269.38 39.18,251.19 297.88,249.82 175.6,-0.93 395.35,24.46 541.81,-25.11z"/>
  <path class="fil1" d="M15166.2 5279.75c267.18,-51.06 305.68,343.54 68.99,374.02 -291.01,37.47 -314.5,-327.11 -68.99,-374.02zm300.98 308.1c157.23,-294.5 -329.68,-597.43 -529.33,-247.86 -183.21,320.78 341.5,599.71 529.33,247.86z"/>
  <path class="fil1" d="M14878.3 3141.09c269.73,-76.85 352.62,320.92 109.8,378.09 -261.62,61.6 -356.47,-307.81 -109.8,-378.09zm334.27 275.22c52.21,-150.14 -47.26,-328.48 -187.94,-370.31 -182.43,-54.25 -330.44,75.44 -363.78,177.28 -125,381.79 425.88,554.98 551.72,193.03z"/>
  <path class="fil1" d="M912.59 3141.29c119.82,-33.45 238.77,46.46 255.4,126.37 25.85,124.28 -41.48,222.76 -136.3,244.33 -284.61,64.73 -359.47,-303.59 -119.09,-370.7zm-226.86 258.31c22.47,131.7 186.11,241.12 366.47,202.28 126.11,-27.16 243.22,-170.13 205.18,-352.43 -66.28,-317.68 -644.73,-278.12 -571.65,150.15z"/>
  <path class="fil1" d="M2887.95 1695.57c0,242.5 -403.55,249.14 -399.48,-16.58 4.65,-303.59 399.48,-236.68 399.48,-16.83l0 33.41zm87.82 0c0,-188.71 -120.87,-309.75 -302.49,-309.49 -254.87,0.38 -377.52,329.44 -183.93,510.39 187.86,175.58 486.42,42.44 486.42,-200.9z"/>
  <path class="fil1" d="M13033.55 1678.86c-0.52,-262.16 397.94,-278.78 398.08,0.03 0.14,273.61 -397.58,252.31 -398.05,16.68l-0.03 -16.71zm-88.48 0c0.51,259.08 299.28,395.5 486.59,216.82 184.28,-175.77 84.78,-508.84 -200.09,-508.42 -163.64,0.25 -286.84,126.39 -286.51,291.59z"/>
  <path class="fil1" d="M665.23 5279.75c271.87,-57.16 324.58,339.21 85.13,373.51 -287.07,41.12 -320.6,-324.01 -85.13,-373.51zm-242.11 258.24c23.54,125.45 177.73,240.34 361.76,203.09 329.71,-66.73 261.8,-644.67 -160.23,-546.09 -127.82,29.86 -233.96,170.29 -201.54,342.99z"/>
  <path class="fil1" d="M4653.77 1284.37c98.63,-62.81 340.7,167.29 87.19,308.05 -84.45,46.89 -182.07,-60.43 -203.8,-110.27 -43.53,-99.86 62.85,-163.54 116.61,-197.77zm-18.02 -102.81c-427.39,210.93 -55.87,582.3 109.67,515.26 87.43,-35.41 247.49,-174.02 190.26,-325.26 -35.94,-94.94 -166.57,-255.82 -299.92,-190z"/>
  <path class="fil1" d="M11176.32 1277.91c126.14,-63.85 319.79,216.6 68.68,318.59 -97.42,39.56 -344.31,-179.07 -68.68,-318.59zm-25.1 -96.21c-449.51,282.1 -23.22,565.98 130.97,502.5 83.29,-34.3 236.2,-186.02 174.82,-318.94 -34.64,-75.01 -182.05,-261.21 -305.79,-183.55z"/>
  <path class="fil0" d="M2689.98 1795.81c-135.49,0 -181.39,-233.89 16.71,-233.89 52.79,0 100.24,97.38 100.24,100.24 0,71.49 -51.5,133.65 -116.95,133.65zm197.97 -100.24l0 -33.41c0,-219.85 -394.84,-286.76 -399.48,16.83 -4.07,265.72 399.48,259.08 399.48,16.58z"/>
  <path class="fil0" d="M14818.66 3299.36c166.53,-248.68 356.07,133.66 100.24,133.66 -78.25,0 -79.55,-87.37 -100.24,-133.66zm59.64 -158.27c-246.67,70.28 -151.82,439.69 109.8,378.09 242.81,-57.17 159.92,-454.94 -109.8,-378.09z"/>
  <path class="fil0" d="M13214.87 1561.92c187.88,0 155.21,233.89 16.7,233.89 -163.34,0 -119.81,-233.89 -16.7,-233.89zm-181.33 116.94l0.03 16.71c0.47,235.63 398.19,256.93 398.05,-16.68 -0.15,-278.81 -398.6,-262.19 -398.08,-0.03z"/>
  <path class="fil0" d="M852.3 3349.48c0,-182.08 233.89,-161.78 233.89,-16.7 0,42.86 -46.41,100.24 -133.66,100.24 -36.08,0 -100.23,-67.1 -100.23,-83.54zm60.29 -208.19c-240.37,67.11 -165.52,435.43 119.09,370.7 94.83,-21.57 162.16,-120.06 136.3,-244.33 -16.63,-79.9 -135.58,-159.82 -255.4,-126.37z"/>
  <path class="fil0" d="M718.65 5571.41c-151.5,0 -175.88,-200.48 16.7,-200.48 117.87,0 97.38,200.48 -16.7,200.48zm-53.42 -291.66c-235.47,49.5 -201.95,414.64 85.13,373.51 239.45,-34.3 186.75,-430.67 -85.13,-373.51z"/>
  <path class="fil0" d="M15085.96 5487.87c0,-155.93 217.19,-166.02 217.19,0 0,109.78 -217.19,108.59 -217.19,0zm80.24 -208.12c-245.5,46.91 -222.02,411.49 68.99,374.02 236.69,-30.48 198.18,-425.08 -68.99,-374.02z"/>
  <path class="fil0" d="M4653.77 1284.37c-53.76,34.23 -160.14,97.92 -116.61,197.77 21.73,49.84 119.35,157.16 203.8,110.27 253.51,-140.75 11.44,-370.86 -87.19,-308.05z"/>
  <path class="fil0" d="M11176.32 1277.91c-275.63,139.52 -28.73,358.16 68.68,318.59 251.11,-101.99 57.46,-382.44 -68.68,-318.59z"/>
 </g>
</svg>
