<?xml version="1.0" encoding="UTF-8"?>
<!DOCTYPE svg PUBLIC "-//W3C//DTD SVG 1.1//EN" "http://www.w3.org/Graphics/SVG/1.1/DTD/svg11.dtd">
<!-- Creator: CorelDRAW 2026 -->
<svg xmlns="http://www.w3.org/2000/svg" xml:space="preserve" width="127.073mm" height="138.981mm" version="1.1" style="shape-rendering:geometricPrecision; text-rendering:geometricPrecision; image-rendering:optimizeQuality; fill-rule:evenodd; clip-rule:evenodd"
viewBox="0 0 10526.77 11513.2"
 xmlns:xlink="http://www.w3.org/1999/xlink"
 xmlns:xodm="http://www.corel.com/coreldraw/odm/2003">
 <defs>
  <style type="text/css">
   <![CDATA[
    .fil13 {fill:#0CADD0}
    .fil10 {fill:#1693B3}
    .fil0 {fill:#192533}
    .fil12 {fill:#31B1D0}
    .fil11 {fill:#33C5E6}
    .fil8 {fill:#4DB6D3}
    .fil6 {fill:#52CBE9}
    .fil18 {fill:#5B97AC}
    .fil9 {fill:#6FD3EE}
    .fil14 {fill:#797E85}
    .fil3 {fill:#8DD9F1}
    .fil15 {fill:#8E97A1}
    .fil16 {fill:#8EA9B6}
    .fil19 {fill:#A6AAB2}
    .fil2 {fill:#ABDDF1}
    .fil17 {fill:#BCC0C3}
    .fil7 {fill:#CADAE2}
    .fil5 {fill:#CFEDF8}
    .fil20 {fill:#E2E5E9}
    .fil4 {fill:#EAF5F9}
    .fil1 {fill:#FDFDFD}
   ]]>
  </style>
 </defs>
 <g id="Слой_x0020_1">
  <metadata id="CorelCorpID_0Corel-Layer"/>
  <g>
   <path class="fil0" d="M5711.34 10393.42l-295.83 158.94c-68.68,36.66 -75.8,62.54 -148.48,24.16 -48.11,-25.4 -96.45,-51.08 -144.96,-75.49l1.13 -394.54c0.36,-43.79 -7.3,-32.21 12.62,-52.5 7.6,-28.85 250.34,-11.34 296.28,-11.25 66.62,0.13 271.24,-10.76 319.28,3.46l0.34 334.9 -40.36 12.33zm-1402.58 -346.21l613.36 -6.4 -0.88 354.4c-42.8,0.82 -310.44,-140.13 -333.9,-160.07 -45.97,-17.45 -112.82,-58.29 -149.47,-78.18 -22.69,-12.32 -49.68,-29.42 -71.69,-41.42 -59.98,-32.67 -61.62,-12.62 -57.42,-68.32zm1649.96 233.15l0.02 -238.82 453.83 -3.11c-26.33,51.6 -163.58,97.58 -215.17,124.13 -55.15,28.38 -192.26,110.25 -238.68,117.8zm-2.76 -611.64l4.32 -44.08 596.51 -0.65c20.38,8.83 26.08,-18.34 23.99,78.29l-1.61 258.22 -551.44 3.91c-80.72,-0.81 -55.72,-6 -68.44,-19.85l-3.33 -275.85zm-809.83 -44.95c59.33,-9.35 553.9,-10.09 589.67,2.12 31.89,15.67 16.82,73.89 17.18,155.35 0.26,57.76 2.92,117.69 -0.41,175.09 -64.18,18.9 -387.15,6.99 -477.93,6.66 -136.82,-0.51 -159.85,79.1 -148.63,-283.71 1.65,-53.15 -7.33,-32.51 20.13,-55.51zm-822.83 -0.53l601.87 -3.88 3.78 47.09 -3.65 291.97c-90.69,9.73 -210.17,2.78 -302.96,3.34 -52.5,0.31 -104.96,0.21 -157.45,-0.51 -183.06,-2.49 -153.36,21.88 -154.76,-168.75l-1.52 -135.21c7.44,-49.68 -1.92,-15.77 14.7,-34.04zm-808.27 10.93c37.43,-20.74 97.18,-13.26 140.1,-13.29 48.77,-0.03 97.43,0.09 146.21,-0.57 91.38,-1.24 216.8,-8.91 304.34,2.53l-1.71 349.19c-48.25,-1.81 -446.58,-194.18 -481.94,-235.71 -39.57,-0.67 -89.6,-32.76 -113.66,-56.3l6.66 -45.85zm3272.85 209.65l5.46 -228.53c77.17,-7.18 179.66,-2.45 258.26,-3.9l201.06 -17.69c20.76,1.96 13.42,2.9 22.28,7.6 -36.58,26.05 -76.4,38.36 -117.82,59.65 -94.98,48.81 -284.44,163.58 -369.24,182.88zm-831.74 -602.47l5.59 -51.32c98.59,-6.64 539.85,-13.4 612.04,3.58 21.5,56.92 8.81,262.63 3.8,339.22l-616.64 2.51 -4.8 -293.99zm-808.87 -36.87c4.9,-30.02 67.76,-18.26 138.61,-18.63 95.25,-0.5 409.5,-7 464.46,7.26l2.84 334.26c-51.86,14.7 -565.89,14.82 -618.64,0.87l-1.34 -298.39c4.56,-29.2 -3.54,-15.48 14.07,-25.37zm-825.16 -3.11l606.76 -1.61 0.5 327.05c-64.86,18.05 -514.63,9.32 -611.67,6.25 -8.71,-61.64 -11.69,-277.15 4.42,-331.7zm-822.13 -1.47c74.76,-13.34 550.01,-17.73 610.21,1.53l1.58 328.36c-51.82,18.99 -554.29,17.89 -609.27,-0.12 -8.03,-60.64 -18.79,-281.24 -2.53,-329.78zm3293.28 333.53l0.46 -342.97 625.95 -4.43c9.87,67.63 0.95,165.81 0.95,235.38 0,125.16 5.13,104.95 -132.61,111.45 -127.96,6.03 -373.37,13.59 -494.76,0.57zm-3494.4 -307.43l1.91 325.84c-54.48,8.26 -430.75,-194.24 -501.87,-229.96 -24.36,-12.23 -112.61,-59.91 -49.02,-95.2l548.99 -0.69zm4329.79 171.35l-2.63 -242.73 488.87 -10.79c-33.92,50.6 -181.54,112.65 -235.28,138.68 -55.16,26.72 -210.15,114.08 -250.97,114.83zm-1670.51 -643.71c38.34,-13.79 582.01,-14.54 626.71,-1.3l-1.59 347.24c-53.05,12.87 -573.75,12.87 -626.88,-0.65l1.76 -345.29zm-207.57 0.99c16.7,47.35 12.51,289.67 2.1,346.15 -64.34,18.8 -557.38,20.43 -618.41,-0.08 -11.64,-66.98 -2.3,-169.69 -3.58,-241.69 -2.63,-149.17 -8.61,-112.36 132.72,-106.84 135.2,5.27 368.11,-18.06 487.18,2.46zm1064.79 3.56l596.12 -4.22 12.01 15.67c-0.53,30.23 5.86,304.07 -13.91,323.49 -22.15,21.76 -595.92,10.67 -612.46,8.88l-4.31 -310.76c7.88,-35.05 -5.82,-14.17 22.55,-33.07zm1410.5 271.57l-5.97 9.27c-16.7,34.35 -45.65,21.77 -133.61,22.96 -98.36,1.33 -400.96,12.63 -460.7,0.9 -5.99,-74.59 -19.62,-284.54 3.1,-345.72l592.41 -6.28 4.78 318.87zm-1425.71 -358.47c-13.93,-46.57 -13.25,-296.61 0.13,-345.99l615.5 1.33c16.7,46.16 14.12,295.04 0.12,348.74l-615.74 -4.08zm-1660.87 -331.85c13.08,-23.47 -4.06,-29.02 67.49,-27.29l394.01 -0.95c27.07,0.02 132.78,-6.83 151.27,16.21 19.03,52.38 18.41,285.63 3.6,349.28 -50.98,12.82 -440.76,6.44 -549,4.54 -53.65,-0.94 -52.95,9.46 -64.93,-24.59l-2.44 -317.2zm1667.83 -433.75c11.71,-18.07 -5.11,-11.14 29.96,-17.89l270.76 -0.07c101.98,-1.01 218.87,-7.22 319.04,0.89 8.49,63.98 10.21,304.21 -5.82,364.51l-628.43 -11.63 -1.4 -271.53c0.16,-82 5.25,-60.07 15.91,-64.29zm-471.46 -272.59l-4.18 250.4c-49.4,34.23 -297.43,24.44 -367.22,14.99 -21.86,-56.18 -24.45,-262.07 2.05,-314.88 72.54,-9.76 302.99,-20.87 353.13,5.79l23.03 -12.48c4.95,-40.02 3.5,-82.18 3.64,-123.72 0.11,-33.45 -10.79,-97.19 17.54,-107.99 12.59,-19.04 292.1,-17.82 335.08,-9.82 13.93,13.99 20.52,-5.54 18.92,72.66 -0.46,22.76 -1,44.8 -1.09,67.66 -0.46,119.15 2.97,134.83 -46.69,143.84l-315.56 -12.91c-0.12,53.67 3.79,5.34 -18.65,26.46zm425.97 -536.57c27.83,-32.47 295.56,-21.6 326.35,-14.53l2.15 265 -345.35 -3.73c-4.5,-46.57 -0.76,-90.5 0.27,-137.48 3.36,-152.65 -5.63,-101.35 16.58,-109.26zm387.88 -33.78c-24.14,-58.83 -19.84,-205.99 -1.71,-279.5l341.2 -2.54 -3.86 285.87c-75.27,13.06 -278.18,20.8 -335.63,-3.83zm-4882.45 -160.62c0.62,-200.66 -5.02,-172.9 50.96,-212.54 62.46,-44.23 134.95,-162.77 190.71,-212.24l72.57 19.91c1.27,61.91 -10.26,128.07 10.7,185.66 39.96,109.79 159.11,172.73 -3.5,401.51 -53.11,74.73 -58.32,110.67 -145.37,225.6 -33.16,43.77 -47.7,64.01 -84.34,106.76 -19.81,23.11 -25.51,27.81 -40.75,49.5 -31.48,44.8 -8.91,29.11 -48.96,45.37l-2.02 -609.52zm5993.38 634.37c-97.13,-37.28 -287.63,-305.13 -344.24,-419.64 -31.54,-63.8 -33.78,-67.37 -39.71,-147.7 -6.16,-83.39 -28.72,-70.94 56.56,-97.06 80.74,-24.72 207.36,-75.38 288.19,-85.79 51.31,72.92 36.85,284.03 36.15,363.24 -1.13,127.77 -3.69,259.56 3.06,386.94zm860.51 735.03c-136.6,-0.24 -218.96,20.75 -303.71,-53.56 -74.85,-65.62 -54.44,-265.03 -39.6,-308.23 106.9,-8.96 243.95,-1.31 354.56,-1.92 233.79,-1.28 306.56,28.76 275,-76.77 -162.37,-22.98 -467.85,-5.3 -646.14,-6.7 -220.7,-1.75 -282.38,22.21 -280.22,-202.47 0.2,-20.93 -1.05,-58.92 1.73,-78.12 6.19,-42.75 9.2,-32.37 32.24,-47.08 74.61,-42.46 782.66,22.86 927.45,-18.66l-11.83 -65.46c-66.87,-21.71 -405.25,-8.47 -500.66,-8.29 -532.85,1.03 -450.73,61.16 -444.99,-318.81 60.15,-57.03 62.17,-35.29 208.81,-34.72 82.55,0.32 164.75,-1.51 247.42,-0.55l371.14 -0.05c64.16,0.22 165.86,15.79 112.18,-80.53 -52.65,-22.27 -612.85,-8.64 -719.5,-8.96 -147.5,-0.45 -221.63,7.73 -221.85,-148.35 -0.51,-359.05 412.95,-261.55 829.17,-261.72 144.64,-0.06 444.99,-36.84 496.16,229.37 11.46,59.61 3.83,946.81 3.96,1089.38 0.12,132.59 18.52,206.93 -64.38,300.21 -29.74,33.47 -62.68,53.12 -111.35,79.08 -82.56,44.05 -410.36,23.09 -515.6,22.91zm-8413.07 -1436.88c-0.93,-419.48 337.68,-355.87 675.45,-355.53 349.21,0.35 678.89,-73.77 672.03,288.36 -2.29,121.2 -31.49,136.15 -154.68,135.59 -94.36,-0.41 -732.59,-12.49 -791.71,4.96 -23.73,113.09 24.34,85.14 128.15,85.23l438.62 0.25c399.8,-1.11 374.38,-34.75 374.27,133.55 -0.1,177.03 24.48,231.17 -81.23,235.61 -261.61,10.98 -580.21,-5.3 -863.79,6.2l2.45 83.99 197.16 0.48c82.73,0.11 707.75,-14.95 734.09,21.29 31.33,65.24 23.87,238.14 -19.71,288.27 -55.92,64.32 -140.24,43.14 -275.77,41.93 -96.37,-0.86 -576.94,-17.65 -628.49,8.27 -16.88,92.33 38.21,71.62 111.15,71.5l536.24 3.04c6.11,137.47 27.73,285.57 -116.39,344.81 -42.67,17.55 -333.57,11.15 -419.85,10.89 -169.29,-0.54 -309.02,19.48 -414.24,-61 -45.08,-34.49 -103.02,-112.05 -103.25,-200.53l-0.51 -1147.15zm8097.1 -460.57c5.01,-29.13 39.85,-109.07 56.59,-124.99 42.51,-40.43 470.92,-18.18 523.65,-15.77l13.66 138.57 -593.9 2.2zm-2401.44 38.22c3.79,-8.47 3.74,5.93 8.84,-27.47 0.81,-5.29 1.14,-26.94 1.22,-33.25 0.25,-22.09 -0.7,-45.65 -0.75,-68.02l2.69 -400.9c68.43,-17.19 1115.92,-10.11 1270.61,-7.78 3.18,84.7 12.53,372.56 -5.05,438.91l-888.89 4.5 -2.39 524.54c-153.15,11.9 -839.5,-17.31 -908.61,12.87l-7.99 15.52c-14.62,52.28 0.96,442.06 -7.89,544.89l-908.73 1.4 -2.48 607.43 -1035.34 -2.07 -2.58 547.05c-82.33,21.39 -247.87,43.17 -328.48,53.97 -115.32,15.45 -226.97,23.24 -348.7,28.46 -38.58,17.43 -73.74,149.55 -407.22,203.48 -177.69,28.75 -359.49,42.27 -537.9,66.18 -87.16,11.68 -200.08,46.89 -271.73,6.3 -65.87,-37.31 -134.61,-70.78 -198.78,-104.08 -62.76,-32.57 -126.93,-69.42 -194.8,-108.14 -34.6,-19.73 -67.59,-40.24 -101.96,-57.28 -126.12,-62.5 -72.44,-15.53 -86.66,-56.29 126.38,-4.22 241.44,-11.37 358.99,-17.65 116.49,-6.21 238.07,-29.52 348.79,-33.59 213.49,-7.86 504.64,-23.24 692.69,-78.67 10.62,-66.74 26.74,-185.49 55.44,-232.17 119.74,-18.15 530.5,-10.27 600.83,-44.74l11.38 -146.45c0.08,-52.48 0.53,-104.97 0.61,-157.45 0.13,-85.5 -9.79,-220.99 3.55,-299.78 187.04,-11.08 551.49,0.25 772.7,-0.08 18.31,-0.02 238.04,5.54 244.21,-7.32 1.77,-3.72 5.96,-2.69 12.6,-4.13l5.24 -598.83 929.34 -2.93 6.35 -554.83c180.33,-21.67 818.21,27.13 920.87,-11.61zm-3491.16 -290.5c36.01,-7.57 88.76,-0.5 104,-10.9 40.39,-27.57 -19.19,-74.4 -125.56,-63.68l10.79 -166.29c29.86,-16.71 308.27,-23.2 322.84,1.42 8.07,13.63 2.75,149.28 3.22,176.28 10.2,575.14 -1892.98,139.23 -315.29,63.17zm687.72 -4426.83c115.28,-63.67 285.63,-141.01 405.64,-185.8 85.14,-31.78 140.32,13.35 223.73,48.41l1011.29 457.84 1036.7 -454c227.39,-102.08 167.58,-80.86 597.2,139.25 -12.28,217.54 -13.23,417.47 211.94,555.3 50.31,30.8 149.44,80 223.06,87.69 170.74,17.85 223.5,-24.81 277.86,-23.77l2.2 151.08c2.22,250 -35.19,238.99 87.11,353.21 49.85,46.56 120.45,123.09 185.36,164.15l-3.95 1674.54c-177.69,84.77 -358.18,182.37 -531.71,264.67 -35.21,16.7 -254.43,114.75 -268.25,137 -36.36,58.54 -75.78,223.33 -96.71,272.69 -1.04,2.47 -4.49,11.13 -5.32,9.34 -0.85,-1.84 -3.76,6.4 -5.88,9.44 -38.72,24.62 -153.44,53.66 -211.58,75.2l-658.9 218.67c-151.08,47.05 -297.48,91.07 -450.64,133.05 -172.69,47.34 -334.24,131.68 -465.3,92.81 -304.95,-90.48 -612.22,-161.47 -909.95,-260.17l-869.92 -287.26c-7.46,-63.21 -31.9,-275.64 -59.55,-311.48 -35.6,-46.15 -622.04,-307.93 -720.08,-357.4l0.25 -1659.87c58.75,-43.65 88.2,-72.62 139.12,-124.09 179.52,-181.49 136.5,-28.35 143.53,-553.37 54.62,-1.62 162.45,46.94 302,9.07 496.95,-134.83 391.73,-516.96 410.76,-636.21zm6123.06 3562.72c-10.59,95.33 -120.23,690.97 -152.34,731.48l-213.69 -493.09c-60.22,19.38 -528.01,493.38 -579.31,545.6 -32.13,32.7 -515.14,530.12 -570,550.03 -14.15,23.79 -8.59,18.57 -31.84,40.25 -15.97,14.88 -20.61,16.65 -37.6,29.87 -21.61,16.81 -48.18,43.56 -69.69,54.91 -49.9,26.34 -165.7,34.97 -217.26,12.13l-15.78 8.46 1.6 7.4c-19.35,32.12 21.64,10.32 -31.76,24.89 -0.46,0.12 -30.29,0.6 -33.63,0.59 -25.8,-0.06 -53.03,-1.44 -79.21,-1.67 -51.09,-0.42 -104.34,4.77 -156.13,-5.99l5.16 -259.33c46.76,-16.98 174.3,-21.1 224.41,-13.41l41.78 2.42c49.9,-67.8 -15.59,-19.12 142.73,-175.61l771.03 -792.37c58.93,-60.32 274.48,-275.63 291.76,-340.81l-496.16 110.82 -160.98 36.81c-23.11,19.3 -324.08,91.34 -375.13,90.9 15.91,-41.67 7.35,-27.15 49.84,-48.53l399.36 -218.38c170.54,-100.13 267.23,-172.08 442.79,-255.27 124.93,-59.21 900.46,-417.62 975.14,-422.11l-125.08 780.03zm-8667.32 -233.74c-34.11,-38.44 -127.85,-139.42 -121.1,-202.12 6.59,-61.31 165.24,-602.03 195.07,-769.15l399.71 0.1c22.23,35.76 133.09,460.55 144.06,500.76 86.67,317.82 109.43,288.59 -26.38,442.35 -45.42,51.43 -23.33,515.38 -23.81,612.89 -1.02,208.95 3.21,423.02 -2.76,633.16l-192.8 -2.61c-14.42,-239.86 -1.97,-521.28 -1.44,-765.51 0.28,-127.47 0.8,-254.9 0.71,-382.38 -0.04,-55.52 -9.9,-140.27 15.11,-176.7 21.04,-30.64 62.58,-67.15 92.73,-93.22 -1.38,-43.53 -55.46,-219.44 -73.45,-282.98 -21.57,-76.21 -48.92,-230.06 -72.25,-285.19 -33.64,-12.85 -74.01,-12.82 -118.73,-6.56 -23.52,203.35 -118.38,453.48 -126.46,580.21 129.92,102.46 100.17,171.42 100.15,275.7 -0.04,305.61 13.85,883.3 -2.71,1131.03 -52.01,17.35 -129.56,9.11 -187.17,7.22l1.51 -1216.98zm942 -1526.32c12.48,-56.17 79.81,-74.45 137.96,-105.65 51.45,-27.61 105.68,-55.35 174.94,-69.62l0.67 37.41 0.58 1064.78c-80.58,-13.07 -165.93,-61 -224.11,-105.75 -69.64,-53.56 -108.63,-80.6 -110.46,-205.71 -1.53,-104.82 -3.72,-210.26 -3.93,-315.02 -0.12,-59.63 -28.09,-277.28 24.34,-300.45zm7784.61 -534.35c30.21,49.94 11.1,990.54 10.98,991.19 -20.25,116.51 -157.62,218.55 -311.34,178.53 -118.83,-30.93 -217.64,-217.96 -112.08,-312.11 30.96,-79.58 122.16,-91.31 233.61,-101.89l-2.05 -379.54 -463.81 172.58c-28.93,78.87 -8.4,367.78 -8.85,477.24 -0.72,173.58 -19.78,270.23 -156.48,324.05 -142.69,56.17 -270.28,-50.65 -289.14,-168.39 -32.61,-203.6 168.73,-221.27 242.64,-237.28 7.46,-133.3 -17.44,-544.07 11.21,-629.54 14.43,-23.58 178.53,-77.65 206.84,-88.07 137.4,-50.55 547.58,-218.08 638.45,-226.76zm-8697.95 -41.5c441.03,-116.59 612.52,532.92 171.03,635.6 -209.83,48.81 -381.16,-82.76 -423.17,-241.89 -54.25,-205.46 94.65,-352.07 252.14,-393.71zm7060.9 312.53c29.98,11.71 289.83,64.37 305.16,97.33 25.56,54.98 14.31,116.15 18.08,180.34 -12.04,196.18 7.07,420.95 -2.14,624.2 -7.48,165.27 -265,283.29 -323.33,288.66l2.68 -1107c58.1,-6.08 -16.87,7.54 -0.06,23.73l-0.41 -107.25zm221.85 -424.26c-1.18,-78.86 -52.34,-139.2 -6.46,-222.54 41.31,-75.05 76,-65.09 139.7,-116.53l-2.62 -412.98c-132.93,-54.53 -278.58,-150.72 -416.15,-221.88l-409.07 -216.28c5.11,35.79 31.31,49.7 47.03,91.19 110.53,291.66 -182.23,561.15 -483.49,418.77 -285.48,-134.93 -237.03,-605.6 182.48,-630.25 -12.87,-30.09 -192.1,-117.4 -250.68,-156.75 -53.68,-36.07 -97.01,-18.7 -155.87,-46.38 -44.6,-20.98 -81.93,-44.81 -131.44,-72.07 -323.15,-177.97 -739.81,-375.98 -1069.71,-549.99 -161.14,-84.99 -378.66,-201.67 -547.58,-269.31 -52.75,-6.6 -714,342.98 -846.71,409.24 -86.72,43.31 -174.72,88.32 -266.59,137.32 -194.33,103.67 -369.86,183.83 -544.07,278 -168.39,91.03 -80.68,62.54 -219.83,92 -24.52,5.19 -46.71,21.24 -70.77,35.27 -41.66,24.3 -235.12,115.85 -254.8,145.41 176.49,23.25 293.76,84.89 339.34,235.05 53.03,174.69 -36.08,322 -152.22,381.5 -195.52,100.18 -513.25,16.58 -511.43,-277.63 0.79,-127.23 27.85,-131.86 63.2,-213.79 -37.56,5.13 -166.11,83.56 -214.86,110.09l-627.06 339.22c-1.01,517.18 -22.68,351.72 84.01,444.31 133.34,115.72 73.51,201.28 39.32,298.59 51.15,59.53 181.66,135.32 245.42,191.18l-1.47 143.74c-113.76,9.82 -275.43,-183.33 -356.72,-260.19 -161.61,8.09 -273.63,7.9 -332.94,-124.83 -71.04,-158.99 61.43,-238.46 142.39,-287.4l0.81 -295.5c-45.85,2.24 -143.41,68.53 -184.13,89.55 -55.55,28.69 -109.4,60.03 -166.84,93.23l-684.74 372.35c-105.76,55.43 -230.85,125.94 -339.52,179.42l2 5398.01c43.35,40.38 224.9,133.51 306.77,176.91l602.37 341.75c105.3,57.02 194.27,106.31 302.58,170.72 364.93,216.98 832.42,470.52 1205.38,682.44 580.42,329.8 1257.84,683.86 1829.93,1016.46 105.98,61.61 204.09,111.71 305.21,166.79 101.05,55.05 206.05,116.23 305.97,167.46l3651.71 -2039.46c212.59,-118.76 387.19,-217.39 604.58,-340.42l453.05 -254.68c49.17,-30.95 107.05,-62.12 147.76,-90.6l-0.99 -5384.46c-44.78,-40.28 -615.72,-337.57 -712.35,-387.51 -85.87,-44.37 -676.43,-375.09 -721.68,-375.82l1.03 313.47c66.54,36.67 85.71,47.81 119.25,100.99 36.63,58.09 35.79,131.55 5.44,184.63 -106.3,185.97 -275.35,105.56 -320.04,126.13l-123.9 -83.93z"/>
  </g>
  <path class="fil1" d="M8569.87 2763.09c-99.48,-49.02 -96.82,-154.42 53.2,-129.21l30.91 31.89c7.18,70.82 -23.29,89.08 -84.11,97.32zm-6768.76 -33.44c-10.58,-49.44 -2.1,-64.48 24.78,-95.57 62.01,-11.69 84.01,-3.04 118.49,27.06 11.32,108.74 -79.97,121.6 -143.27,68.52zm1216.63 -1011.06c147.68,-81.73 289.2,156.6 114.86,240.66 -105.9,51.07 -243.87,-61.87 -187.73,-176.86 20.32,-41.62 36.86,-43.86 72.87,-63.8zm4330.28 0.9c145.24,-79.7 281.89,163.3 107.75,244.75 -136.55,63.88 -298.6,-140.04 -107.75,-244.75zm804.66 1257.63c-18.63,41.75 -20.49,105.24 -5.36,150.36 24.22,28.56 92.13,1.26 112.47,-5.89l231.35 -227.62c44.68,-20.57 213.74,59.84 320.04,-126.13 30.34,-53.08 31.19,-126.54 -5.44,-184.63 -33.54,-53.18 -52.71,-64.33 -119.25,-100.99l-1.03 -313.47c45.25,0.73 635.81,331.45 721.68,375.82 96.63,49.94 667.58,347.23 712.35,387.51l0.99 5384.46c-40.71,28.48 -98.59,59.65 -147.76,90.6l-453.05 254.68c-217.39,123.03 -391.98,221.66 -604.58,340.42l-3651.71 2039.46c-99.92,-51.23 -204.92,-112.41 -305.97,-167.46 -101.12,-55.08 -199.23,-105.18 -305.21,-166.79 -572.09,-332.6 -1249.51,-686.66 -1829.93,-1016.46 -372.96,-211.92 -840.45,-465.46 -1205.38,-682.44 -108.31,-64.41 -197.28,-113.7 -302.58,-170.72l-602.37 -341.75c-81.86,-43.4 -263.42,-136.53 -306.77,-176.91l-2 -5398.01c108.67,-53.47 233.76,-123.99 339.52,-179.42l684.74 -372.35c57.44,-33.2 111.29,-64.54 166.84,-93.23 40.72,-21.02 138.28,-87.31 184.13,-89.55l-0.81 295.5c-80.95,48.93 -213.42,128.41 -142.39,287.4 59.31,132.74 171.32,132.92 332.94,124.83 81.29,76.85 242.96,270 356.72,260.19l1.47 -143.74c-63.76,-55.86 -194.28,-131.65 -245.42,-191.18 34.2,-97.31 94.02,-182.87 -39.32,-298.59 -106.69,-92.58 -85.02,72.87 -84.01,-444.31l627.06 -339.22c48.75,-26.53 177.3,-104.96 214.86,-110.09 -35.35,81.94 -62.41,86.56 -63.2,213.79 -1.81,294.22 315.91,377.81 511.43,277.63 116.14,-59.5 205.25,-206.81 152.22,-381.5 -45.58,-150.16 -162.85,-211.8 -339.34,-235.05 19.68,-29.56 213.14,-121.11 254.8,-145.41 24.07,-14.03 46.25,-30.08 70.77,-35.27 139.15,-29.46 51.44,-0.98 219.83,-92 174.21,-94.16 349.74,-174.33 544.07,-278 91.87,-49.01 179.87,-94.02 266.59,-137.32 132.71,-66.26 793.96,-415.84 846.71,-409.24 168.92,67.65 386.44,184.33 547.58,269.31 329.9,174.01 746.56,372.01 1069.71,549.99 49.51,27.26 86.84,51.1 131.44,72.07 58.87,27.69 102.19,10.31 155.87,46.38 58.58,39.35 237.8,126.66 250.68,156.75 -419.51,24.65 -467.97,495.32 -182.48,630.25 301.26,142.39 594.02,-127.11 483.49,-418.77 -15.72,-41.49 -41.92,-55.4 -47.03,-91.19l409.07 216.28c137.57,71.16 283.22,167.35 416.15,221.88l2.62 412.98c-63.7,51.44 -98.39,41.48 -139.7,116.53 -45.88,83.35 5.29,143.68 6.46,222.54 -29.33,28.32 -171.28,166.45 -214.56,167.08zm-8152.69 -247.48l0 5814.46 329.73 176.37c16.17,9.42 22.23,14.24 35.44,20.8l133.37 69.06c31.19,18.09 48.88,32.67 76.81,46.9l1815.75 1029.63c29.86,17.16 57.19,32.06 85.38,49.57l820.78 461.32c54.67,30.51 99.33,68.26 159.07,99.61l286.47 163.38c16.73,9.49 23.71,14.26 43.42,24.07 253.42,126.14 527.12,304.27 785.32,440.56 23.33,12.31 21.6,10.15 44.3,23.17l616.34 350.86c29.57,18.27 3.16,12.67 53.69,13.79 17.98,-49.67 106.35,-75.46 150.11,-97.31l200.83 -114.09c17.88,-10.14 27.28,-13.49 44.53,-22.94l166.7 -91.97c28.92,-16.73 48.35,-34.6 82.53,-52.44l892.44 -502.13c35.17,-18.46 47.79,-29.72 86.24,-48.73 70.16,-34.67 127.82,-81.63 200.63,-114.27l85.89 -49.07c17.45,-9.78 26.3,-12.34 44.77,-22.71l1138.35 -649.85c112.1,-65.39 243.19,-149.05 361.13,-201.2 29.3,-12.96 19.33,-8.2 43.57,-23.92l1104.43 -627.53c18.76,-10.64 26.97,-12.83 44.73,-22.76l121.31 -69.88c20.31,-11.54 18.71,-11.18 43.54,-23.93l206.41 -119.74c23.19,-12.98 22.38,-9.74 46.29,-21.18l165.24 -93.44c0,-93.07 11.24,-140.95 11.24,-236.18l-11.56 -5466.17c0.23,-21.5 1.82,-34.14 3.61,-54.28 7.22,-81.21 -100.31,-106.94 -188.69,-153.62l-1602.43 -838.06c-17.4,-9.89 -18.29,-11.22 -35.94,-20.3l-43.55 -23.93c-28.62,-16.27 -60.09,-30.63 -89.59,-45.36l-860.18 -444.42c-16.1,-8.61 -29.15,-14.46 -45.11,-22.36l-2303.78 -1193.9c-140.83,-70 -64.29,-59.69 -251.05,33.73l-1231.7 635.23c-28.69,15.34 -48.31,27.13 -80.52,43.19 -32.04,15.98 -51,24.5 -82.48,41.23l-79.94 43.77c-28.48,15.75 -58.1,27.85 -83.2,40.51l-692.99 364.19c-256.48,145.58 -527.15,262.04 -782.97,409.16l-2040.18 1063.88c-20.8,9.26 15.49,-1.47 -24.52,9.22z"/>
  <path class="fil1" d="M5494.85 4956.47c40.21,65.41 171.94,188.47 227.59,247.42 -16.63,22.34 -151.53,121.86 -189.13,133.42 -74.42,-61.66 -190.56,-237.01 -247.43,-279.18 -42.29,23.17 -176.09,160.03 -222.09,167.05l1.75 -814.1c40.74,1.69 494.07,252.03 585.67,304.39 32.87,18.79 64.56,36.08 93.61,52.04 39.86,21.89 76.01,35.56 95.09,65.25 -41.74,31.33 -98.67,50.71 -162.45,67.76l-182.61 55.95zm-2644.95 -1500.7c-123.17,-47.09 -123.6,-73.09 -119.12,-287.61 1.81,-86.72 2.08,-105.63 66.94,-137.66 134.16,-66.26 679.13,-105.91 852.67,-126.03 224.99,-26.07 883.89,4.64 1102.36,63.94 66.4,18.03 96.37,30.93 143.11,61.43 28.83,18.82 81.22,59.78 115.88,75.14 85.23,37.78 272.66,44.18 365.86,18.13 180.04,-50.32 158.6,-175.26 594.5,-194.38 75.02,-3.3 101.55,-17.02 180.03,-20.3 385.37,-16.11 1343.58,-13.72 1580.56,162.52 35.59,498.89 -68.66,313.3 -124.91,412.18 -33.14,58.26 -80.93,658.84 -219.69,831.38 -146.09,181.64 -577.24,179.83 -876.34,179.67 -886.97,-0.45 -899.83,-89.32 -1003.67,-581.78 -29.29,-138.89 -68.25,-274.6 -103.8,-423.94 -63.03,-9.15 -329.99,-29.09 -354.95,24.69l-43.47 196.13c-50.07,190.96 -89.09,499.45 -191.49,606.87 -115.28,120.92 -190.78,118.62 -379.96,149.68 -219.83,36.09 -794.3,43.36 -1008.36,1.29 -194.08,-38.13 -264.24,-33.28 -361.24,-168.73 -125.15,-174.74 -151.94,-604.97 -214.9,-842.68zm750.19 -1760.8c-19.03,119.26 86.2,501.38 -410.76,636.21 -139.55,37.87 -247.38,-10.69 -302,-9.07 -7.02,525.02 35.99,371.88 -143.53,553.37 -50.92,51.48 -80.37,80.45 -139.12,124.09l-0.25 1659.87c98.04,49.47 684.49,311.25 720.08,357.4 27.64,35.84 52.08,248.27 59.55,311.48l869.92 287.26c297.74,98.7 605,169.69 909.95,260.17 131.05,38.88 292.61,-45.47 465.3,-92.81 153.16,-41.98 299.57,-86 450.64,-133.05l658.9 -218.67c58.15,-21.54 172.86,-50.58 211.58,-75.2 2.12,-3.04 5.03,-11.27 5.88,-9.44 0.83,1.78 4.27,-6.88 5.32,-9.34 20.93,-49.36 60.35,-214.14 96.71,-272.69 13.82,-22.25 233.04,-120.3 268.25,-137 173.53,-82.29 354.02,-179.9 531.71,-264.67l3.95 -1674.54c-64.91,-41.06 -135.5,-117.59 -185.36,-164.15 -122.3,-114.21 -84.89,-103.21 -87.11,-353.21l-2.2 -151.08c-54.36,-1.04 -107.12,41.62 -277.86,23.77 -73.63,-7.7 -172.76,-56.89 -223.06,-87.69 -225.17,-137.84 -224.22,-337.77 -211.94,-555.3 -429.62,-220.11 -369.81,-241.32 -597.2,-139.25l-1036.7 454 -1011.29 -457.84c-83.41,-35.07 -138.59,-80.19 -223.73,-48.41 -120.01,44.79 -290.36,122.13 -405.64,185.8z"/>
  <path class="fil1" d="M6403.54 6412.3c-102.66,38.74 -740.54,-10.07 -920.87,11.61l-6.35 554.83 -929.34 2.93 -5.24 598.83c-6.64,1.44 -10.83,0.41 -12.6,4.13 -6.16,12.87 -225.9,7.3 -244.21,7.32 -221.21,0.33 -585.67,-10.99 -772.7,0.08 -13.35,78.79 -3.42,214.28 -3.55,299.78 -0.08,52.48 -0.53,104.97 -0.61,157.45l-11.38 146.45c-70.32,34.47 -481.09,26.59 -600.83,44.74 -28.7,46.68 -44.82,165.42 -55.44,232.17 -188.05,55.43 -479.2,70.8 -692.69,78.67 -110.72,4.08 -232.3,27.38 -348.79,33.59 -117.55,6.27 -232.61,13.42 -358.99,17.65 14.22,40.76 -39.47,-6.21 86.66,56.29 34.37,17.03 67.36,37.54 101.96,57.28 67.87,38.72 132.04,75.57 194.8,108.14 64.18,33.3 132.92,66.77 198.78,104.08 71.65,40.58 184.58,5.38 271.73,-6.3 178.41,-23.91 360.21,-37.44 537.9,-66.18 333.47,-53.93 368.64,-186.05 407.22,-203.48 121.73,-5.23 233.38,-13.01 348.7,-28.46 80.61,-10.8 246.15,-32.58 328.48,-53.97l2.58 -547.05 1035.34 2.07 2.48 -607.43 908.73 -1.4c8.86,-102.83 -6.73,-492.61 7.89,-544.89l7.99 -15.52c69.11,-30.18 755.46,-0.98 908.61,-12.87l2.39 -524.54 888.89 -4.5c17.59,-66.35 8.23,-354.21 5.05,-438.91 -154.69,-2.33 -1202.17,-9.41 -1270.61,7.78l-2.69 400.9c0.05,22.38 1,45.93 0.75,68.02 -0.07,6.31 -0.41,27.97 -1.22,33.25 -5.09,33.4 -5.05,19 -8.84,27.47z"/>
  <path class="fil0" d="M5697.76 3471.92c-41.67,-253.18 135.78,-293.92 364.12,-302.72 203.8,-7.86 792.24,-18.65 991.79,17.31 119.12,21.46 191.95,3.1 244.79,95.08 58.69,102.17 -5,485.18 -31.14,600.26 -52.26,230.09 -73.14,310.44 -322.52,350.03 -167.55,26.6 -485.69,9.92 -669.23,10.08 -482.03,0.44 -451.81,-87.03 -527.3,-492.19 -16.88,-90.58 -35.99,-189.65 -50.52,-277.85zm-940.81 11.25c-25.22,168.87 -52.4,415.29 -106.44,567.32 -69.59,195.84 -263.08,187.4 -489.29,189.92 -194.31,2.16 -489.98,18.18 -665.65,-10.98 -265.69,-44.1 -244.19,-135.34 -303.66,-374.64 -29.16,-117.33 -96.49,-486.17 -22.96,-586.66 84.64,-115.66 393.12,-102.02 576.15,-104.14 225.52,-2.61 449.56,-3.45 674.92,6.06 229.37,9.69 374.93,58.7 336.94,313.1zm-1907.04 -27.4c62.97,237.71 89.76,667.93 214.9,842.68 97.01,135.45 167.16,130.6 361.24,168.73 214.06,42.07 788.52,34.8 1008.36,-1.29 189.17,-31.07 264.68,-28.76 379.96,-149.68 102.41,-107.42 141.43,-415.92 191.49,-606.87l43.47 -196.13c24.95,-53.78 291.91,-33.84 354.95,-24.69 35.55,149.34 74.51,285.05 103.8,423.94 103.84,492.46 116.7,581.33 1003.67,581.78 299.1,0.16 730.25,1.97 876.34,-179.67 138.77,-172.54 186.56,-773.12 219.69,-831.38 56.25,-98.88 160.5,86.71 124.91,-412.18 -236.98,-176.24 -1195.2,-178.64 -1580.56,-162.52 -78.47,3.28 -105.01,17 -180.03,20.3 -435.91,19.12 -414.47,144.06 -594.5,194.38 -93.2,26.05 -280.64,19.64 -365.86,-18.13 -34.66,-15.37 -87.05,-56.32 -115.88,-75.14 -46.74,-30.5 -76.71,-43.4 -143.11,-61.43 -218.47,-59.31 -877.36,-90.01 -1102.36,-63.94 -173.53,20.11 -718.51,59.76 -852.67,126.03 -64.86,32.03 -65.12,50.94 -66.94,137.66 -4.48,214.52 -4.05,240.52 119.12,287.61z"/>
  <path class="fil1" d="M707.88 6834.64l0.51 1147.15c0.23,88.48 58.17,166.05 103.25,200.53 105.22,80.49 244.94,60.47 414.24,61 86.28,0.27 377.18,6.66 419.85,-10.89 144.12,-59.25 122.5,-207.35 116.39,-344.81l-536.24 -3.04c-72.94,0.12 -128.03,20.83 -111.15,-71.5 51.55,-25.92 532.13,-9.13 628.49,-8.27 135.53,1.2 219.85,22.38 275.77,-41.93 43.58,-50.13 51.04,-223.03 19.71,-288.27 -26.34,-36.24 -651.36,-21.18 -734.09,-21.29l-197.16 -0.48 -2.45 -83.99c283.58,-11.5 602.18,4.78 863.79,-6.2 105.7,-4.43 81.13,-58.58 81.23,-235.61 0.11,-168.3 25.53,-134.66 -374.27,-133.55l-438.62 -0.25c-103.82,-0.08 -151.88,27.87 -128.15,-85.23 59.12,-17.45 697.36,-5.38 791.71,-4.96 123.19,0.56 152.38,-14.39 154.68,-135.59 6.86,-362.13 -322.83,-288.01 -672.03,-288.36 -337.77,-0.35 -676.38,-63.95 -675.45,355.53z"/>
  <path class="fil1" d="M9424.33 6969.6c53.68,96.32 -48.02,80.75 -112.18,80.53l-371.14 0.05c-82.67,-0.96 -164.87,0.87 -247.42,0.55 -146.64,-0.57 -148.66,-22.31 -208.81,34.72 -5.75,379.97 -87.87,319.84 444.99,318.81 95.42,-0.18 433.79,-13.42 500.66,8.29l11.83 65.46c-144.79,41.53 -852.84,-23.8 -927.45,18.66 -23.04,14.71 -26.05,4.32 -32.24,47.08 -2.78,19.19 -1.53,57.18 -1.73,78.12 -2.15,224.68 59.53,200.72 280.22,202.47 178.29,1.4 483.77,-16.28 646.14,6.7 31.56,105.53 -41.2,75.48 -275,76.77 -110.61,0.61 -247.66,-7.03 -354.56,1.92 -14.85,43.2 -35.26,242.61 39.6,308.23 84.75,74.31 167.11,53.32 303.71,53.56 105.24,0.18 433.04,21.14 515.6,-22.91 48.67,-25.96 81.61,-45.61 111.35,-79.08 82.9,-93.29 64.5,-167.63 64.38,-300.21 -0.13,-142.58 7.5,-1029.77 -3.96,-1089.38 -51.18,-266.21 -351.53,-229.43 -496.16,-229.37 -416.22,0.17 -829.68,-97.33 -829.17,261.72 0.22,156.08 74.36,147.9 221.85,148.35 106.66,0.32 666.85,-13.3 719.5,8.96z"/>
  <path class="fil2" d="M8494.82 5151.75l-5.32 30.87c76.61,4.59 -3.31,19.28 -20.73,66.25 30.38,21.99 25.08,9.98 69.08,21.66 -60.42,2.64 2.39,-7.84 -20.63,23.69l496.16 -110.82c-17.28,65.18 -232.82,280.49 -291.76,340.81l-771.03 792.37c-158.32,156.49 -92.83,107.82 -142.73,175.61 51.87,6.96 18.93,-0.07 31.45,16.28l-3.68 228.83 15.78 -8.46c3.48,-50.98 3.77,-101.39 7.25,-152.92 4.88,-72.15 -5.48,-69.09 13.91,-127.34 9.72,13.29 10.49,23.36 17.97,41.59 64.47,-11.59 24.36,-13.22 53.96,2.88 70.91,38.6 59.41,2.11 139.53,30.49 34.61,12.27 32.1,20.3 69.7,0.65 37.29,74.27 36.11,29.29 18.73,79.97l35.34 -12.51c54.86,-19.91 537.87,-517.33 570,-550.03 51.3,-52.21 519.09,-526.22 579.31,-545.6l213.69 493.09c32.12,-40.51 141.76,-636.15 152.34,-731.48 -12.16,9.08 -30.71,-25.44 -22,31.79l105.03 -750.61c-47.73,2.83 -282.7,109.76 -348.2,137.91 -224.85,96.64 -439.24,186.49 -664.23,302.73 -66.59,34.4 -256.71,165.88 -298.93,172.24z"/>
  <path class="fil1" d="M4455.76 4047.89c-72.12,40.18 -681.83,15.89 -811.99,17.83 -129.65,1.93 -92.17,26.83 -95.26,-312.63 -1.14,-126.37 -8.9,-286.64 1.49,-409.64 74.29,-20.53 864.56,-15.89 901.28,6.06 14.07,13.11 11.95,32.03 11.96,32.09 7.69,60.18 6.46,634.94 -7.48,666.29zm301.19 -564.72c37.99,-254.4 -107.57,-303.41 -336.94,-313.1 -225.36,-9.52 -449.39,-8.67 -674.92,-6.06 -183.03,2.12 -491.51,-11.52 -576.15,104.14 -73.53,100.49 -6.2,469.33 22.96,586.66 59.47,239.3 37.97,330.53 303.66,374.64 175.67,29.16 471.34,13.14 665.65,10.98 226.2,-2.52 419.69,5.92 489.29,-189.92 54.04,-152.04 81.22,-398.45 106.44,-567.32z"/>
  <path class="fil1" d="M5995.48 4067.27c-12.76,-67.51 -14.31,-666.1 -1.71,-732.61 98.91,-17.56 357.75,-3.49 473,-2.45 78.84,0.7 157.41,-0.87 236.18,-0.5 46.42,0.22 181.1,-15.52 211.33,19.86 26.14,38.4 26.16,664.3 0.06,702.13 -13.57,15.08 -18.24,14.85 -53.1,16.98 -17.02,1.04 -39.46,0.26 -57.06,0.38 -157.84,1.14 -739.76,10.02 -808.7,-3.79zm-297.71 -595.36c14.52,88.19 33.63,187.27 50.52,277.85 75.48,405.16 45.26,492.63 527.3,492.19 183.54,-0.17 501.67,16.52 669.23,-10.08 249.38,-39.58 270.27,-119.94 322.52,-350.03 26.14,-115.08 89.83,-498.09 31.14,-600.26 -52.84,-91.99 -125.67,-73.63 -244.79,-95.08 -199.55,-35.95 -787.99,-25.17 -991.79,-17.31 -228.33,8.81 -405.79,49.55 -364.12,302.72z"/>
  <path class="fil1" d="M1055.84 5023.94l-1.51 1216.98c57.61,1.89 135.16,10.12 187.17,-7.22 16.56,-247.73 2.67,-825.41 2.71,-1131.03 0.02,-104.28 29.76,-173.24 -100.15,-275.7 8.09,-126.73 102.95,-376.86 126.46,-580.21 44.72,-6.25 85.09,-6.29 118.73,6.56 23.33,55.14 50.67,208.98 72.25,285.19 17.99,63.54 72.07,239.45 73.45,282.98 -30.15,26.07 -71.69,62.58 -92.73,93.22 -25.01,36.42 -15.15,121.18 -15.11,176.7 0.09,127.48 -0.43,254.91 -0.71,382.38 -0.53,244.23 -12.98,525.65 1.44,765.51l192.8 2.61c5.97,-210.14 1.74,-424.21 2.76,-633.16 0.48,-97.51 -21.61,-561.46 23.81,-612.89 135.82,-153.76 113.05,-124.53 26.38,-442.35 -10.97,-40.21 -121.83,-465 -144.06,-500.76l-399.71 -0.1c-29.83,167.12 -188.48,707.84 -195.07,769.15 -6.75,62.7 86.99,163.68 121.1,202.12z"/>
  <path class="fil0" d="M4455.76 4047.89c13.94,-31.35 15.17,-606.11 7.48,-666.29 -0.01,-0.06 2.1,-18.98 -11.96,-32.09 -36.72,-21.95 -826.99,-26.59 -901.28,-6.06 -10.39,122.99 -2.63,283.26 -1.49,409.64 3.09,339.46 -34.4,314.56 95.26,312.63 130.17,-1.94 739.87,22.35 811.99,-17.83z"/>
  <path class="fil0" d="M6001.17 4061.29c139.6,-8.5 844.57,17.57 902.21,-19.43l3.93 -679c-51.55,-26.46 -382.4,-11.69 -440.53,-12.43 -142.18,-1.82 -330.23,8.74 -466.05,-8.88l0.45 719.73z"/>
  <path class="fil3" d="M9370.01 3820.88c2.29,35.86 -9.24,8.66 9.61,26.17 57.22,-51.97 109.92,-82.77 202.44,-82.77l11.25 -27.33c30.03,-1.81 26.59,-3.57 48.78,3.16 1.08,0.33 78.51,26.38 91.99,-4.34l6.86 -15.64c5.9,-14.37 0.44,-5.22 7.56,-21.37 0.82,38.92 -2.6,70.04 11.74,97.68 39.04,-83.07 10.12,-684.43 22.22,-833.15 -90.87,8.68 -501.05,176.21 -638.45,226.76 -28.31,10.41 -192.41,64.49 -206.84,88.07 -28.65,85.47 -3.75,496.24 -11.21,629.54 -73.91,16.01 -275.25,33.68 -242.64,237.28 18.85,117.74 146.45,224.56 289.14,168.39 136.69,-53.81 155.76,-150.46 156.48,-324.05 0.45,-109.46 -20.08,-398.36 8.85,-477.24l463.81 -172.58 2.05 379.54c-111.45,10.59 -202.65,22.31 -233.61,101.89z"/>
  <path class="fil0" d="M5677.46 4900.52c63.78,-17.05 120.71,-36.43 162.45,-67.76 -19.09,-29.68 -55.23,-43.36 -95.09,-65.25 -29.05,-15.96 -60.74,-33.25 -93.61,-52.04 -91.6,-52.36 -544.92,-302.7 -585.67,-304.39l-1.75 814.1c45.99,-7.02 179.8,-143.88 222.09,-167.05 56.87,42.17 173,217.52 247.43,279.18 37.6,-11.56 172.51,-111.08 189.13,-133.42 -55.65,-58.95 -187.38,-182.01 -227.59,-247.42l182.61 -55.95z"/>
  <path class="fil1" d="M1033.59 3269.48c-31.84,-172.18 240.16,-236.09 277.01,-41.05 31.16,164.94 -243.86,220.35 -277.01,41.05zm50.91 -347.71c-157.5,41.64 -306.39,188.25 -252.14,393.71 42.02,159.14 213.34,290.7 423.17,241.89 441.49,-102.68 269.99,-752.19 -171.03,-635.6z"/>
  <path class="fil1" d="M2267.06 6902.11l2.02 609.52c40.05,-16.26 17.48,-0.57 48.96,-45.37 15.23,-21.69 20.94,-26.38 40.75,-49.5 36.64,-42.75 51.18,-62.98 84.34,-106.76 87.05,-114.92 92.26,-150.87 145.37,-225.6 162.61,-228.78 43.46,-291.72 3.5,-401.51 -20.96,-57.59 -9.44,-123.76 -10.7,-185.66l-72.57 -19.91c-55.76,49.46 -128.25,168.01 -190.71,212.24 -55.98,39.64 -50.33,11.89 -50.96,212.54z"/>
  <path class="fil4" d="M5956.38 9098.91c53.13,13.53 573.83,13.53 626.88,0.65l1.59 -347.24c-44.7,-13.24 -588.37,-12.49 -626.71,1.3l-1.76 345.29z"/>
  <path class="fil4" d="M6800.15 8671.28l615.74 4.08c14,-53.71 16.58,-302.58 -0.12,-348.74l-615.5 -1.33c-13.38,49.38 -14.07,299.42 -0.13,345.99z"/>
  <path class="fil4" d="M4322.12 9201.36c-16.1,54.55 -13.13,270.06 -4.42,331.7 97.04,3.07 546.81,11.8 611.67,-6.25l-0.5 -327.05 -606.76 1.61z"/>
  <path class="fil5" d="M5142.75 9096.47c118.98,-8.98 522.83,13.81 593.35,-10.5 13.5,-68.99 17.84,-264.21 -0.36,-323.69l-596.02 -3.07 3.02 337.26z"/>
  <polygon class="fil1" points="6807.11,7905.68 6804.69,8230.73 7414.91,8236.13 7414.5,7902.53 "/>
  <path class="fil1" d="M5141.72 8656.63l603.14 6.48 -22.13 -329.66c-6.34,-1.33 -12.13,-2.2 -20.11,-2.95l-259.28 1.09c-81.23,0.79 -234.91,-12.87 -304.06,7.83l2.44 317.2z"/>
  <path class="fil1" d="M8260.44 7536.48c-6.75,-127.38 -4.18,-259.17 -3.06,-386.94 0.7,-79.21 15.16,-290.32 -36.15,-363.24 -80.83,10.41 -207.44,61.07 -288.19,85.79 -85.28,26.11 -62.73,13.67 -56.56,97.06 5.93,80.32 8.18,83.9 39.71,147.7 56.61,114.51 247.11,382.36 344.24,419.64z"/>
  <path class="fil6" d="M9370.01 3820.88c-105.56,94.15 -6.74,281.18 112.08,312.11 153.72,40.02 291.09,-62.02 311.34,-178.53 0.12,-0.65 19.23,-941.25 -10.98,-991.19 -12.09,148.72 16.82,750.08 -22.22,833.15 -14.34,-27.64 -10.92,-58.76 -11.74,-97.68 -7.12,16.15 -1.66,7 -7.56,21.37l-6.86 15.64c-13.49,30.73 -90.92,4.67 -91.99,4.34 -22.18,-6.73 -18.75,-4.96 -48.78,-3.16l-11.25 27.33c-92.52,0 -145.22,30.8 -202.44,82.77 -18.85,-17.51 -7.31,9.69 -9.61,-26.17z"/>
  <path class="fil7" d="M1997.84 3497.62c-52.43,23.17 -24.45,240.82 -24.34,300.45 0.21,104.76 2.39,210.2 3.93,315.02 1.83,125.11 40.82,152.15 110.46,205.71 58.18,44.74 143.53,92.67 224.11,105.75l-0.58 -1064.78c-19.12,15.47 -12.36,2.87 -20.97,33.05l-6.91 555.46 -45.5 -25.42c-12.4,-1.44 -51.97,0.8 -67.41,0.88 -137.06,0.74 -146.64,-16.12 -174.66,28.17 -10.88,-127.28 -14.31,-332.75 1.86,-454.29z"/>
  <path class="fil1" d="M1997.84 3497.62c-16.17,121.54 -12.74,327.01 -1.86,454.29 28.02,-44.29 37.6,-27.44 174.66,-28.17 15.43,-0.08 55.01,-2.32 67.41,-0.88l45.5 25.42 6.91 -555.46c8.61,-30.19 1.85,-17.59 20.97,-33.05l-0.67 -37.41c-69.26,14.27 -123.49,42.01 -174.94,69.62 -58.15,31.21 -125.48,49.49 -137.96,105.65z"/>
  <path class="fil1" d="M8164.59 3939.51c20.21,-21.84 10,-13.34 22.91,-38.61l236.18 -0.35 15.49 34.19 7.06 -24.15 3.68 -398.62c-9.93,-34.94 7.02,-10.53 -25.65,-40.94 -11.47,-10.66 -26.43,-21.65 -37.05,-29.36 -33.29,-24.17 -56.54,-26.14 -80.1,-63.18 -22.8,-0.6 -17.22,2.39 -46.18,-12.53 -2.99,-1.54 -18.49,-10.97 -21.12,-12.96 -16.75,-12.62 -8.8,-7.22 -20.83,-21.09l-41.46 -1.13 -15.11 6.8 2.2 601.92z"/>
  <path class="fil7" d="M8468.64 3511.97l-18.75 0 -3.68 398.62 -18.71 42.58 -262.52 13.54 -0.4 -27.2 -2.2 -601.92 15.11 -6.8c-16.81,-16.19 26.47,-19.05 -31.64,-12.96l-2.68 1107c58.33,-5.37 315.85,-123.38 323.33,-288.66 9.2,-203.26 -9.91,-428.02 2.14,-624.2z"/>
  <path class="fil3" d="M5147.27 9204.47c160.93,-37.35 455.76,18.01 601.02,-17.92l-7.44 156.06 -31.29 4.77c-104.19,36.91 -341.39,-2.76 -476.13,15.37 -18.21,2.45 -15.42,14.82 -58,-6.65l-15.71 27.12c-3.09,-40.65 -10.44,-70.36 -15.1,-108.45 -7.42,-60.66 6.11,-17.34 2.63,-70.3zm0 0c-17.6,9.88 -9.51,-3.84 -14.07,25.37l1.34 298.39c52.74,13.95 566.78,13.83 618.64,-0.87l-2.84 -334.26c-54.96,-14.26 -369.21,-7.75 -464.46,-7.26 -70.85,0.37 -133.71,-11.39 -138.61,18.63z"/>
  <path class="fil3" d="M7423.49 8769.64c-38.6,65.85 -8.06,82.91 -28.19,183.68l-17.55 -40.42c-42.22,19.23 -510.57,24.55 -544.21,11.04l-15.41 35.91c-1.76,-36.29 -4.05,-71.42 -5.1,-107.42 -1.54,-52.4 -12.81,-49.31 2.34,-94.26 -28.36,18.9 -14.67,-1.98 -22.55,33.07l4.31 310.76c16.54,1.79 590.31,12.88 612.46,-8.88 19.77,-19.43 13.38,-293.26 13.91,-323.49z"/>
  <path class="fil8" d="M2749.87 9226.68c-63.59,35.29 24.67,82.97 49.02,95.2 71.12,35.71 447.39,238.22 501.87,229.96l-1.91 -325.84 -548.99 0.69z"/>
  <path class="fil6" d="M5735.8 9625.88c13.68,68.94 2.82,106.63 -0.59,183.76 -1.92,-3.07 -4.01,-7.02 -5.13,-9.59l-15.71 -49.72c-42.65,21.8 -95.13,4.2 -146.46,11.03 -21.37,2.84 -33.25,15.19 -117.43,28.12 -80.84,12.42 -182.53,26.7 -264.75,27.63 -17.42,40 3.68,-11.15 -11.94,20l-7.3 15.37c-8.23,20.67 -3.34,20.53 -12.87,41.65 -3.08,-45.4 -6.4,-89.74 -10.1,-134.92 -8.66,-106.2 -21.31,-82.94 2.62,-135.44 -27.46,23 -18.48,2.36 -20.13,55.51 -11.22,362.81 11.81,283.2 148.63,283.71 90.78,0.33 413.75,12.24 477.93,-6.66 3.34,-57.4 0.67,-117.34 0.41,-175.09 -0.36,-81.46 14.7,-139.68 -17.18,-155.35z"/>
  <path class="fil3" d="M5956.14 9241.35l7.6 179.85c30.55,-27.85 28.49,44 30.62,-56.14 -5.13,7.76 -30.88,-14.61 -1.13,13.59 21.23,20.12 75.87,19.67 103.83,17.18 70.92,-6.34 143.45,-1.24 195.35,-22.7 48.37,-20 52.64,-3.91 97.04,-9.91l77.31 -26.34c26.02,-8.88 18.4,-2.89 33.87,-39.8 44.07,-4.99 36.25,-7.32 57.38,12.33 1.41,1.32 3.4,5.17 5.39,7.54l10.37 -123.34c-72.2,-16.98 -513.45,-10.22 -612.04,-3.58l-5.59 51.32z"/>
  <path class="fil4" d="M8356.25 5331.04l16.38 -27.16 -56.45 -10.02c10.5,-48.58 132.21,-119.02 178.65,-142.1 42.22,-6.36 232.34,-137.84 298.93,-172.24 224.99,-116.24 439.38,-206.09 664.23,-302.73 65.5,-28.16 300.47,-135.08 348.2,-137.91l-105.03 750.61c-8.71,-57.23 9.84,-22.71 22,-31.79l125.08 -780.03c-74.68,4.49 -850.21,362.91 -975.14,422.11 -175.56,83.19 -272.25,155.14 -442.79,255.27l-399.36 218.38c-42.49,21.38 -33.92,6.86 -49.84,48.53 51.05,0.44 352.01,-71.6 375.13,-90.9z"/>
  <path class="fil6" d="M5137.37 10095.42l14.4 124.29c78.78,41.86 159.45,19.37 267.47,14.34 51.66,-2.4 122.01,-7.65 168.07,8.36 88.09,30.63 38.29,3.89 103.51,-11.31l9.42 -78.92c40.77,31.6 22.93,-8.19 36.19,42.08 5.87,22.28 -1.3,11.13 -11.87,14.35 0.59,-65.26 11.46,-106.17 22.38,-165.56 -104.19,6.53 -209.72,7.42 -314.84,7.99 -65.37,0.36 -251.88,-18.67 -296.28,2.94l1.57 41.45z"/>
  <path class="fil9" d="M5956.14 9241.35l4.8 293.99 616.64 -2.51c5.01,-76.59 17.69,-282.3 -3.8,-339.22l-10.37 123.34c-1.99,-2.37 -3.98,-6.22 -5.39,-7.54 -21.13,-19.66 -13.31,-17.32 -57.38,-12.33 -15.47,36.91 -7.84,30.92 -33.87,39.8l-77.31 26.34c-44.4,6 -48.67,-10.09 -97.04,9.91 -51.89,21.46 -124.43,16.36 -195.35,22.7 -27.97,2.49 -82.6,2.94 -103.83,-17.18 -29.76,-28.2 -4,-5.82 1.13,-13.59 -2.13,100.14 -0.07,28.29 -30.62,56.14l-7.6 -179.85z"/>
  <path class="fil1" d="M6331.47 7883.48l4.18 -250.4c-7,-39.58 4.22,-21.65 -16.22,-43.69 -77.44,27.59 -252.37,8.84 -344.81,10.02 -20.63,88.63 -1.13,192.9 -7.81,285.97l364.66 -1.9z"/>
  <path class="fil3" d="M5735.8 9625.88c-35.76,-12.21 -530.34,-11.47 -589.67,-2.12 -23.92,52.5 -11.27,29.23 -2.62,135.44 3.69,45.18 7.02,89.53 10.1,134.92 9.53,-21.12 4.64,-20.98 12.87,-41.65l7.3 -15.37c15.62,-31.15 -5.48,20 11.94,-20 82.22,-0.93 183.91,-15.21 264.75,-27.63 84.18,-12.93 96.06,-25.28 117.43,-28.12 51.33,-6.83 103.81,10.77 146.46,-11.03l15.71 49.72c1.12,2.57 3.21,6.52 5.13,9.59 3.4,-77.12 14.27,-114.82 0.59,-183.76z"/>
  <path class="fil5" d="M7423.49 8769.64l-12.01 -15.67 -596.12 4.22c-15.14,44.95 -3.88,41.85 -2.34,94.26 1.05,36 3.35,71.13 5.1,107.42l15.41 -35.91c33.64,13.51 502,8.18 544.21,-11.04l17.55 40.42c20.13,-100.77 -10.4,-117.83 28.19,-183.68z"/>
  <path class="fil1" d="M7149.51 7062.73c57.45,24.63 260.36,16.88 335.63,3.83l3.86 -285.87 -341.2 2.54c-18.13,73.51 -22.42,220.67 1.71,279.5z"/>
  <path class="fil2" d="M5147.27 9204.47c3.48,52.96 -10.06,9.63 -2.63,70.3 4.66,38.09 12.01,67.8 15.1,108.45l15.71 -27.12c42.57,21.47 39.79,9.1 58,6.65 134.74,-18.13 371.94,21.55 476.13,-15.37l31.29 -4.77 7.44 -156.06c-145.26,35.93 -440.09,-19.43 -601.02,17.92z"/>
  <path class="fil3" d="M4326.76 9740.32c43.86,87.65 136,41.43 238.8,38.04 101.57,-3.35 200.68,5.7 304.19,0.39 10.75,9.68 8.07,2.2 22.5,22.62l27.81 -35.73 8.88 -99.19 -3.78 -47.09 -601.87 3.88c-15.29,44.93 -9.66,8.44 -5.29,57.33 1.45,16.15 6.35,42.54 8.75,59.76z"/>
  <path class="fil2" d="M3516.55 9342.68l3.62 178.03 575.77 5.71 1.48 -146.2c-19.2,26.02 -13.16,54.15 -20.7,36.2 -0.8,-1.9 -3.11,5.81 -4.42,8.47l-7.5 -68.57 -398.45 -1.7c-129.01,-1.15 -89.46,10.44 -116.74,-23.87l-18.76 37.43 -14.31 -25.51z"/>
  <path class="fil10" d="M5711.34 10393.42l-31.84 7.96c-1.51,-2.13 -3.37,-5.64 -3.92,-6.78 -0.49,-1 -2.92,-4.92 -3.42,-6.05 -0.42,-0.96 -1.95,-4.58 -2.3,-5.49 -0.68,-1.71 -0.36,-8.02 -1.6,-11.56 -80.7,-15.13 -176.02,-11.3 -269.92,-10.91 -249.66,1.05 -257.6,9.97 -266.94,-82.29 21.64,-18.49 10.51,-145.63 5.97,-182.88l-1.57 -41.45c-19.91,20.3 -12.25,8.71 -12.62,52.5l-1.13 394.54c48.51,24.41 96.86,50.09 144.96,75.49 72.68,38.38 79.8,12.5 148.48,-24.16l295.83 -158.94z"/>
  <path class="fil8" d="M6810.02 9304.9l-3.22 -104.35c69.46,-21.15 217.93,-4.76 301.03,-4.85 100.25,-0.12 208,-4.61 304.64,0.78l-8.63 44.87 -22.24 134.98c-77.6,23.3 -209.01,-1.85 -281.1,17.32 -85.86,22.82 -132.97,44.11 -251.33,44.34l-27.1 46.83c-15.32,-44.96 -10.06,-122.34 -12.04,-179.91zm-16.76 228.52c121.39,13.01 366.79,5.46 494.76,-0.57 137.74,-6.49 132.61,13.71 132.61,-111.45 0,-69.58 8.91,-167.75 -0.95,-235.38l-625.95 4.43 -0.46 342.97z"/>
  <path class="fil3" d="M7634.4 8906.21c38.54,18.7 12.05,9.38 59.58,2.63 30.7,-4.36 46.32,-9.44 67.75,-11.27l399.07 -32.78c24.64,-7.29 8.39,-15.71 41.93,13.9l8.88 -30.42 2.84 -126.08 -582.11 5.47 2.07 178.55z"/>
  <path class="fil9" d="M7634.4 8906.21l5.2 145.26 580.28 -12.45 5.97 -9.27c-23.11,-16.47 -10.05,8.34 -16.05,-35.22 -0.51,-3.7 0.39,-39.21 0.54,-45.42 0.84,-33.97 1.81,-66.86 1.25,-100.84l-8.88 30.42c-33.53,-29.62 -17.29,-21.19 -41.93,-13.9l-399.07 32.78c-21.42,1.82 -37.05,6.91 -67.75,11.27 -47.53,6.75 -21.04,16.07 -59.58,-2.63z"/>
  <path class="fil1" d="M6698.72 7335.37c-42.99,-7.99 -322.49,-9.21 -335.08,9.82l-4.2 242.98c52.98,16.99 295.38,22.21 334.68,1.75l4.6 -254.55z"/>
  <path class="fil5" d="M3516.55 9342.68l14.31 25.51 18.76 -37.43c27.28,34.3 -12.27,22.71 116.74,23.87l398.45 1.7 7.5 68.57c1.32,-2.67 3.63,-10.37 4.42,-8.47 7.54,17.95 1.5,-10.18 20.7,-36.2l3.14 -172.07 -594.7 0.33 10.69 134.19z"/>
  <path class="fil8" d="M3622.03 9736.31c35.36,41.53 433.69,233.89 481.94,235.71l1.71 -349.19c-87.54,-11.44 -212.96,-3.77 -304.34,-2.53 -48.78,0.66 -97.44,0.54 -146.21,0.57 -42.92,0.02 -102.67,-7.46 -140.1,13.29 135.04,27.89 412.18,-14.05 575.5,-0.59l-8.04 117.69c-8.79,-15.23 -3.08,-24.35 -25.66,-51.09l-30.74 10.57c-4.61,0.91 -21.46,2.59 -30.04,4.04 -13.3,2.25 -41.01,8.49 -56.3,11.29 -44.14,8.08 -92.2,5.6 -138.93,3.45 -132.18,-6.08 -128.01,-23.19 -166.47,-51.69 -50.81,-37.67 -53.48,-5.29 -54.16,-5.04 -2.49,35.76 37.87,43.93 69.65,64.06l-27.83 -0.54z"/>
  <path class="fil11" d="M6565.14 9655.92c-12.12,39.49 -17.96,34.54 -27.19,73.62 -37.36,0.22 -53.4,4.42 -81.58,12.29 -29.65,8.29 -20.27,7.29 -31.04,11.35 -108.65,40.98 -170.61,-0.4 -297.92,51.44 -103.14,42.01 -173.72,-30.82 -164.06,143.77 99.62,14.22 229.95,-2.82 335.69,-3.48 -112.95,-24.42 -128.07,10.3 -181.03,-28.73 2.22,-1.61 5.53,-6.95 6.65,-4.81l31.32 -14.84c157.81,-47.64 291.07,-12.67 391.39,-13.55l3.4 -63.36c2.59,115.89 -9.23,116.28 28.41,140.87l1.61 -258.22c2.09,-96.63 -3.61,-69.46 -23.99,-78.29l8.34 31.93z"/>
  <path class="fil1" d="M8804.98 6374.07l593.9 -2.2 -13.66 -138.57c-52.73,-2.41 -481.15,-24.65 -523.65,15.77 -16.74,15.92 -51.58,95.86 -56.59,124.99z"/>
  <path class="fil12" d="M4587.34 10235.12l-15.02 -37.14 52.55 -25.38c25.23,-8.9 22.91,-10.17 51.74,-15.86l91.93 -21.63 33.74 39.8 67.1 -20.67c2.93,-1.35 17.97,-9.58 21.27,-11.37 7.17,60.55 18.49,20.43 21.69,66.67l16.41 -169.37c-132,-0.23 -520.58,-16.43 -619.99,7.01 -4.2,55.7 -2.57,35.65 57.42,68.32 22.01,12 49,29.1 71.69,41.42 36.65,19.9 103.5,60.73 149.47,78.18z"/>
  <path class="fil1" d="M6761.63 7096.52l-5.07 239.04 321.08 -3.68 -3.92 -241.29c-88.81,3.67 -233.25,28.12 -312.09,5.92z"/>
  <path class="fil6" d="M4928.95 9666.44l-8.88 99.19 -14.06 108.44 -22.77 -17.98c-25.13,-19.99 32.77,1.77 -16.46,-11.47l-530.06 8.54 -9.95 -112.85c-2.39,-17.22 -7.3,-43.62 -8.75,-59.76 -4.37,-48.88 -10.01,-12.39 5.29,-57.33 -16.63,18.27 -7.27,-15.64 -14.7,34.04l1.52 135.21c1.4,190.63 -28.3,166.26 154.76,168.75 52.5,0.72 104.95,0.83 157.45,0.51 92.78,-0.56 212.26,6.39 302.96,-3.34l3.65 -291.97z"/>
  <path class="fil1" d="M7837.25 6744.72l-1.6 -7.4 3.68 -228.83c-12.53,-16.34 20.42,-9.32 -31.45,-16.28l-41.78 -2.42c-19.47,22.79 -49.27,16.46 -107.19,18.85 -34.9,1.44 -72.37,-0.13 -105.64,8.04l-1.57 234.36c58.9,12.09 231.86,14.31 285.55,-6.32z"/>
  <path class="fil9" d="M6810.02 9304.9l4.08 63.05 512.42 -88.49c18.29,-34.96 25.53,-46.47 77.31,-38.11l8.63 -44.87c-96.63,-5.39 -204.38,-0.89 -304.64,-0.78 -83.1,0.1 -231.56,-16.29 -301.03,4.85l3.22 104.35z"/>
  <path class="fil13" d="M7628.65 9397.33c40.82,-0.75 195.8,-88.12 250.97,-114.83 53.75,-26.03 201.36,-88.08 235.28,-138.68l-488.87 10.79 2.63 242.73z"/>
  <path class="fil3" d="M7851.43 6728.86c51.56,22.84 167.35,14.22 217.26,-12.13 21.51,-11.36 48.08,-38.11 69.69,-54.91 16.99,-13.22 21.63,-14.99 37.6,-29.87 23.25,-21.68 17.69,-16.46 31.84,-40.25l-35.34 12.51c17.38,-50.68 18.56,-5.71 -18.73,-79.97 -37.6,19.64 -35.09,11.61 -69.7,-0.65 -80.11,-28.38 -68.62,8.1 -139.53,-30.49 -29.6,-16.1 10.5,-14.47 -53.96,-2.88 -7.48,-18.23 -8.25,-28.31 -17.97,-41.59 -19.38,58.25 -9.03,55.2 -13.91,127.34 -3.48,51.53 -3.77,101.94 -7.25,152.92z"/>
  <path class="fil0" d="M1033.59 3269.48c33.15,179.3 308.17,123.9 277.01,-41.05 -36.85,-195.04 -308.85,-131.14 -277.01,41.05z"/>
  <path class="fil12" d="M5958.72 10280.35c46.42,-7.55 183.53,-89.42 238.68,-117.8 51.59,-26.55 188.84,-72.53 215.17,-124.13l-453.83 3.11 -0.02 238.82z"/>
  <path class="fil0" d="M3017.74 1718.59c-36.02,19.93 -52.55,22.18 -72.87,63.8 -56.14,115 81.83,227.94 187.73,176.86 174.35,-84.06 32.82,-322.39 -114.86,-240.66z"/>
  <path class="fil12" d="M6787.89 9843.81c84.8,-19.3 274.26,-134.07 369.24,-182.88 41.43,-21.29 81.24,-33.6 117.82,-59.65 -8.86,-4.7 -1.52,-5.63 -22.28,-7.6l-201.06 17.69c-78.6,1.45 -181.09,-3.28 -258.26,3.9l-5.46 228.53z"/>
  <path class="fil0" d="M7348.03 1719.49c-190.85,104.71 -28.8,308.63 107.75,244.75 174.14,-81.46 37.49,-324.45 -107.75,-244.75z"/>
  <path class="fil14" d="M6000.72 3341.56c135.83,17.62 323.87,7.06 466.05,8.88 58.13,0.74 388.98,-14.03 440.53,12.43l-3.93 679c-57.63,37 -762.6,10.93 -902.21,19.43l-0.45 -719.73zm-5.24 725.72c68.94,13.82 650.86,4.94 808.7,3.79 17.6,-0.12 40.04,0.66 57.06,-0.38 34.86,-2.14 39.53,-1.91 53.1,-16.98 26.1,-37.83 26.08,-663.73 -0.06,-702.13 -30.23,-35.37 -164.91,-19.64 -211.33,-19.86 -78.76,-0.37 -157.34,1.2 -236.18,0.5 -115.25,-1.04 -374.09,-15.11 -473,2.45 -12.61,66.5 -11.05,665.09 1.71,732.61z"/>
  <path class="fil13" d="M5746.93 10043.05c-26.12,85.75 -10.81,232.49 -15.06,329.12l-12.75 -131.44 -25.2 72.63c-51.24,-29.74 -186.48,-24 -241.19,-22.96 -26.2,0.5 -78.13,-10.09 -130.64,-7 -104.41,6.13 -77.06,29.8 -74.57,-0.98 -41.3,0.59 -42.31,5.25 -76.16,7.38 -10.49,-7.35 12.01,-11.03 -39.96,-11.51 9.34,92.27 17.29,83.35 266.94,82.29 93.9,-0.39 189.22,-4.22 269.92,10.91 1.23,3.54 0.92,9.84 1.6,11.56 0.36,0.91 1.88,4.53 2.3,5.49 0.5,1.13 2.93,5.04 3.42,6.05 0.55,1.13 2.41,4.65 3.92,6.78l31.84 -7.96 40.36 -12.33 -0.34 -334.9c-48.03,-14.22 -252.66,-3.33 -319.28,-3.46 -45.94,-0.09 -288.67,-17.6 -296.28,11.25 44.4,-21.61 230.91,-2.58 296.28,-2.94 105.12,-0.56 210.65,-1.46 314.84,-7.99z"/>
  <path class="fil6" d="M5959.29 9944.56l4.06 3.84c-9.66,-174.59 60.91,-101.76 164.06,-143.77 127.31,-51.84 189.27,-10.46 297.92,-51.44 10.77,-4.06 1.39,-3.06 31.04,-11.35 28.18,-7.88 44.22,-12.08 81.58,-12.29 9.23,-39.08 15.07,-34.13 27.19,-73.62l-370.38 17.07c-2.38,17.16 -23.1,28.77 -37,36.45l-15.32 7.45c-2.44,1.11 -5.18,2.57 -7.69,3.6 -2.58,1.06 -5.34,2.45 -8,3.42 -102.2,37.25 -97.66,13.59 -156.27,19.61l-14.51 -74.8 3.33 275.85z"/>
  <path class="fil6" d="M6810.02 9304.9c1.98,57.57 -3.28,134.96 12.04,179.91l27.1 -46.83c118.36,-0.22 165.47,-21.51 251.33,-44.34 72.09,-19.17 203.5,5.98 281.1,-17.32l22.24 -134.98c-51.78,-8.35 -59.02,3.16 -77.31,38.11l-512.42 88.49 -4.08 -63.05z"/>
  <path class="fil13" d="M4587.34 10235.12c23.47,19.94 291.1,160.89 333.9,160.07l0.88 -354.4 -613.36 6.4c99.41,-23.44 487.99,-7.24 619.99,-7.01l-16.41 169.37c-3.2,-46.24 -14.52,-6.12 -21.69,-66.67 -3.3,1.78 -18.33,10.02 -21.27,11.37l-67.1 20.67 -33.74 -39.8 -91.93 21.63c-28.83,5.68 -26.51,6.96 -51.74,15.86l-52.55 25.38 15.02 37.14z"/>
  <path class="fil9" d="M3622.03 9736.31l27.83 0.54c-31.79,-20.13 -72.14,-28.3 -69.65,-64.06 0.68,-0.25 3.35,-32.62 54.16,5.04 38.46,28.51 34.29,45.61 166.47,51.69 46.73,2.15 94.79,4.63 138.93,-3.45 15.29,-2.8 42.99,-9.04 56.3,-11.29 8.57,-1.45 25.42,-3.13 30.04,-4.04l30.74 -10.57c22.57,26.74 16.87,35.86 25.66,51.09l8.04 -117.69c-163.32,-13.46 -440.46,28.48 -575.5,0.59l-6.66 45.85c24.06,23.54 74.08,55.63 113.66,56.3z"/>
  <path class="fil9" d="M5955.96 9668.71l14.51 74.8c58.61,-6.01 54.07,17.65 156.27,-19.61 2.66,-0.97 5.43,-2.36 8,-3.42 2.51,-1.03 5.24,-2.49 7.69,-3.6l15.32 -7.45c13.9,-7.68 34.63,-19.29 37,-36.45l370.38 -17.07 -8.34 -31.93 -596.51 0.65 -4.32 44.08z"/>
  <path class="fil9" d="M4920.07 9765.63l-27.81 35.73c-14.43,-20.42 -11.75,-12.94 -22.5,-22.62 -103.51,5.31 -202.62,-3.74 -304.19,-0.39 -102.8,3.39 -194.94,49.61 -238.8,-38.04l9.95 112.85 530.06 -8.54c49.23,13.24 -8.67,-8.52 16.46,11.47l22.77 17.98 14.06 -108.44z"/>
  <path class="fil15" d="M5141.72 8656.63c11.98,34.05 11.28,23.64 64.93,24.59 108.24,1.91 498.02,8.28 549,-4.54 14.8,-63.65 15.42,-296.9 -3.6,-349.28 -18.49,-23.04 -124.19,-16.2 -151.27,-16.21l-394.01 0.95c-71.55,-1.73 -54.41,3.82 -67.49,27.29 69.15,-20.7 222.83,-7.04 304.06,-7.83l259.28 -1.09c7.98,0.75 13.77,1.62 20.11,2.95l22.13 329.66 -603.14 -6.48z"/>
  <path class="fil13" d="M5963.35 9948.4l-4.06 -3.84c12.72,13.85 -12.28,19.04 68.44,19.85l551.44 -3.91c-37.63,-24.59 -25.81,-24.98 -28.41,-140.87l-3.4 63.36c-100.32,0.88 -233.58,-34.09 -391.39,13.55l-31.32 14.84c-1.12,-2.14 -4.43,3.21 -6.65,4.81 52.96,39.03 68.08,4.31 181.03,28.73 -105.74,0.65 -236.07,17.7 -335.69,3.48z"/>
  <path class="fil11" d="M5137.37 10095.42c4.54,37.25 15.67,164.39 -5.97,182.88 51.97,0.47 29.47,4.16 39.96,11.51 33.84,-2.13 34.85,-6.79 76.16,-7.38 -2.49,30.78 -29.84,7.11 74.57,0.98 52.51,-3.09 104.44,7.5 130.64,7 54.71,-1.04 189.95,-6.78 241.19,22.96l25.2 -72.63 12.75 131.44c4.25,-96.63 -11.06,-243.37 15.06,-329.12 -10.92,59.39 -21.79,100.29 -22.38,165.56 10.57,-3.21 17.74,7.94 11.87,-14.35 -13.26,-50.28 4.58,-10.48 -36.19,-42.08l-9.42 78.92c-65.22,15.2 -15.42,41.93 -103.51,11.31 -46.06,-16.01 -116.41,-10.76 -168.07,-8.36 -108.02,5.03 -188.69,27.52 -267.47,-14.34l-14.4 -124.29z"/>
  <path class="fil16" d="M3516.55 9342.68l-10.69 -134.19 594.7 -0.33 -3.14 172.07 -1.48 146.2 -575.77 -5.71 -3.62 -178.03zm-16.57 -142.79c-16.26,48.54 -5.5,269.14 2.53,329.78 54.98,18 557.44,19.1 609.27,0.12l-1.58 -328.36c-60.2,-19.26 -535.46,-14.87 -610.21,-1.53z"/>
  <path class="fil17" d="M6807.11 7905.68l607.39 -3.15 0.41 333.6 -610.23 -5.4 2.43 -325.05zm0 0c-10.65,4.22 -15.75,-17.7 -15.91,64.29l1.4 271.53 628.43 11.63c16.04,-60.29 14.31,-300.53 5.82,-364.51 -100.16,-8.11 -217.05,-1.91 -319.04,-0.89l-270.76 0.07c-35.07,6.74 -18.24,-0.18 -29.96,17.89z"/>
  <path class="fil18" d="M8219.88 9039.02l-580.28 12.45 -5.2 -145.26 -2.07 -178.55 582.11 -5.47 -2.84 126.08c0.56,33.98 -0.41,66.87 -1.25,100.84 -0.15,6.21 -1.05,41.72 -0.54,45.42 6,43.56 -7.07,18.75 16.05,35.22l-4.78 -318.87 -592.41 6.28c-22.71,61.18 -9.09,271.13 -3.1,345.72 59.74,11.73 362.34,0.42 460.7,-0.9 87.96,-1.18 116.91,11.39 133.61,-22.96z"/>
  <path class="fil15" d="M5139.73 8759.21l596.02 3.07c18.2,59.48 13.86,254.7 0.36,323.69 -70.52,24.31 -474.38,1.52 -593.35,10.5l-3.02 -337.26zm610.84 -4.59c-119.07,-20.52 -351.97,2.81 -487.18,-2.46 -141.33,-5.52 -135.35,-42.33 -132.72,106.84 1.28,72 -8.06,174.71 3.58,241.69 61.04,20.51 554.07,18.89 618.41,0.08 10.41,-56.48 14.6,-298.8 -2.1,-346.15z"/>
  <path class="fil19" d="M6331.47 7883.48l-364.66 1.9c6.69,-93.07 -12.82,-197.34 7.81,-285.97 92.45,-1.18 267.38,17.58 344.81,-10.02 -50.14,-26.66 -280.59,-15.55 -353.13,-5.79 -26.5,52.81 -23.91,258.69 -2.05,314.88 69.78,9.44 317.82,19.24 367.22,-14.99z"/>
  <path class="fil5" d="M8356.25 5331.04l160.98 -36.81c23.01,-31.54 -39.8,-21.05 20.63,-23.69 -44,-11.68 -38.7,0.32 -69.08,-21.66 17.42,-46.97 97.34,-61.66 20.73,-66.25l5.32 -30.87c-46.43,23.09 -168.14,93.53 -178.65,142.1l56.45 10.02 -16.38 27.16z"/>
  <path class="fil17" d="M6761.63 7096.52c78.84,22.2 223.28,-2.25 312.09,-5.92l3.92 241.29 -321.08 3.68 5.07 -239.04zm0 0c-22.22,7.91 -13.23,-43.39 -16.58,109.26 -1.03,46.98 -4.76,90.91 -0.27,137.48l345.35 3.73 -2.15 -265c-30.79,-7.07 -298.52,-17.94 -326.35,14.53z"/>
  <path class="fil0" d="M8569.87 2763.09c60.82,-8.24 91.29,-26.5 84.11,-97.32l-30.91 -31.89c-150.02,-25.21 -152.68,80.19 -53.2,129.21z"/>
  <path class="fil0" d="M1801.12 2729.65c63.31,53.08 154.59,40.22 143.27,-68.52 -34.49,-30.1 -56.49,-38.74 -118.49,-27.06 -26.88,31.09 -35.36,46.13 -24.78,95.57z"/>
  <path class="fil20" d="M8164.59 3939.51l0.4 27.2 262.52 -13.54 18.71 -42.58 -7.06 24.15 -15.49 -34.19 -236.18 0.35c-12.91,25.27 -2.69,16.78 -22.91,38.61z"/>
  <path class="fil14" d="M6319.43 7589.39c20.45,22.04 9.22,4.11 16.22,43.69 22.43,-21.12 18.52,27.21 18.65,-26.46l315.56 12.91c49.66,-9.01 46.23,-24.69 46.69,-143.84 0.09,-22.86 0.63,-44.91 1.09,-67.66 1.6,-78.2 -5,-58.67 -18.92,-72.66l-4.6 254.55c-39.31,20.46 -281.7,15.24 -334.68,-1.75l4.2 -242.98c-28.32,10.8 -17.43,74.54 -17.54,107.99 -0.14,41.54 1.32,83.7 -3.64,123.72l-23.03 12.48z"/>
  <path class="fil15" d="M7837.25 6744.72c-53.69,20.64 -226.65,18.42 -285.55,6.32l1.57 -234.36c33.27,-8.17 70.74,-6.59 105.64,-8.04 57.91,-2.39 87.72,3.93 107.19,-18.85 -50.12,-7.69 -177.65,-3.57 -224.41,13.41l-5.16 259.33c51.79,10.76 105.04,5.57 156.13,5.99 26.18,0.22 53.42,1.61 79.21,1.67 3.34,0.01 33.17,-0.46 33.63,-0.59 53.4,-14.56 12.41,7.23 31.76,-24.89z"/>
 </g>
</svg>
